<svg width="13" height="13" viewBox="0 0 13 13" fill="none" xmlns="http://www.w3.org/2000/svg">
<path fill-rule="evenodd" clip-rule="evenodd" d="M6.50008 12.4584C3.20938 12.4584 0.541748 9.79078 0.541748 6.50008C0.541748 3.20938 3.20938 0.541748 6.50008 0.541748C9.79078 0.541748 12.4584 3.20938 12.4584 6.50008C12.4584 9.79078 9.79078 12.4584 6.50008 12.4584ZM6.50008 11.3751C9.19247 11.3751 11.3751 9.19247 11.3751 6.50008C11.3751 3.80769 9.19247 1.62508 6.50008 1.62508C3.80769 1.62508 1.62508 3.80769 1.62508 6.50008C1.62508 9.19247 3.80769 11.3751 6.50008 11.3751ZM4.71642 9.04976L7.58341 6.18278V8.12508H8.66674V4.33341H4.87508V5.41675H6.81738L3.95039 8.28373L4.71642 9.04976Z" fill="#4378DB"/>
</svg>
