<svg width="178" height="370" viewBox="0 0 178 370" fill="none" xmlns="http://www.w3.org/2000/svg">
<path d="M154.706 345.516L169.07 338.512L151.457 310.673L137.063 317.678L154.706 345.516Z" fill="#E0A2A5"/>
<path d="M167.938 336.187L149.729 345.129L137.66 358.87C136.55 360.348 135.868 362.103 135.69 363.944C135.511 365.784 135.842 367.637 136.646 369.302L177.266 349.54L167.938 336.187Z" fill="#262127"/>
<path d="M148.567 346.47L149.967 338.9C150.676 338.31 151.524 337.913 152.43 337.747C153.337 337.58 154.27 337.65 155.142 337.95C156.013 338.249 156.793 338.768 157.406 339.457C158.018 340.145 158.443 340.98 158.64 341.88L148.567 346.47Z" fill="#262127"/>
<path d="M78.0869 154.848L85.4479 237.112L138.673 332.372L165.882 318.095L116.918 217.351L97.13 154.401L78.0869 154.848Z" fill="#090909"/>
<path d="M103.179 355.501H119.153L116.918 333.207H100.914L103.179 355.501Z" fill="#E0A2A5"/>
<path d="M119.182 352.908H98.8877L82.0202 359.972C80.381 360.822 79.0059 362.105 78.0444 363.681C77.0829 365.258 76.5718 367.068 76.5665 368.914H121.716L119.182 352.908Z" fill="#262127"/>
<path d="M97.2489 353.653L101.809 347.484C102.704 347.266 103.64 347.281 104.527 347.528C105.415 347.775 106.224 348.245 106.879 348.894C107.533 349.542 108.01 350.348 108.265 351.233C108.52 352.118 108.544 353.054 108.335 353.951L97.2489 353.653Z" fill="#262127"/>
<path d="M84.7322 159.319L85.4474 237.112C85.4721 239.972 85.8119 242.821 86.4607 245.607L97.368 338.542H125.799V239.825L126.395 145.042L84.7322 159.319Z" fill="#262127"/>
<path d="M82.4377 1.76434C79.0744 0.196031 75.3227 -0.343605 71.6537 0.213186C67.9848 0.769978 64.562 2.39839 61.8152 4.89397C54.7523 11.034 56.0635 19.5883 56.6297 23.3737C56.8729 24.8166 57.4664 26.1778 58.3582 27.3378L67.6562 38.5449L68.7887 12.7329L80.7093 7.48707L82.4377 1.76434Z" fill="#262127"/>
<path d="M105.653 68.9173C108.25 67.4997 110.18 65.1095 111.018 62.271C111.856 59.4324 111.534 56.3774 110.123 53.7759L95.6693 27.189L76.0897 37.8595L90.5434 64.4464C91.9608 67.0365 94.3453 68.9605 97.1762 69.7982C100.007 70.6359 103.054 70.3192 105.653 68.9173Z" fill="#E1A4A7"/>
<path d="M84.7919 53.2394C88.3355 51.2505 90.95 47.9421 92.0663 44.0344C93.1826 40.1268 92.7103 35.9362 90.7522 32.3752L77.2521 7.54688L64.2289 12.9417C59.6395 15.4454 57.9111 26.8909 60.474 31.6003L69.7422 48.6493C71.139 51.2442 73.504 53.1824 76.3225 54.042C79.141 54.9017 82.185 54.6132 84.7919 53.2394Z" fill="#E1A4A7"/>
<path d="M63.3351 36.3394V44.2678C63.3034 44.5047 63.3387 44.7458 63.4369 44.9638C63.5351 45.1818 63.6922 45.3679 63.8906 45.5012C64.089 45.6346 64.3208 45.7097 64.5596 45.7182C64.7985 45.7267 65.035 45.6683 65.2424 45.5494L71.2026 42.3006L63.3351 36.3394Z" fill="#E1A4A7"/>
<path d="M60.5932 15.4156C64.1772 10.9488 68.3014 6.94413 72.8714 3.49317C75.1661 0.90005 77.0734 2.27111 80.3516 1.94325C82.5379 0.791818 84.9846 0.225156 87.4545 0.298269C89.9243 0.371382 92.3332 1.08179 94.4476 2.36053C104.699 9.60338 100.617 24.8342 100.617 24.8342L105.444 36.4586C92.8085 40.5718 89.143 32.5838 89.143 32.5838L81.931 24.4468L78.2356 16.9356L72.9906 12.7032L67.2985 14.4915C67.2985 14.4915 52.6959 24.4468 60.5932 15.4156Z" fill="#262127"/>
<path d="M84.1364 30.1397C84.6638 31.128 85.4725 31.9377 86.4601 32.4663C87.4476 32.9949 88.5698 33.2187 89.6846 33.1093C90.7993 32.9999 91.8566 32.5623 92.7226 31.8518C93.5887 31.1413 94.2246 30.1899 94.5499 29.1179C94.8752 28.0459 94.8753 26.9015 94.5502 25.8294C94.225 24.7574 93.5893 23.8058 92.7234 23.0952C91.8574 22.3846 90.8003 21.9468 89.6855 21.8372C88.5708 21.7276 87.4486 21.9512 86.4609 22.4796C85.1375 23.1876 84.1493 24.3922 83.7135 25.8285C83.2776 27.2649 83.4297 28.8155 84.1364 30.1397Z" fill="#E1A4A7"/>
<path d="M68.282 46.1752C69.9351 45.2318 71.7658 44.6414 73.6586 44.4413C75.5513 44.2413 77.465 44.4358 79.2788 45.0128C81.019 41.2114 81.669 37.0012 81.1563 32.852C80.63 27.5201 79.2515 22.3074 77.0734 17.4125L82.6463 14.4319L85.6265 32.6433L91.3185 37.7998C92.207 39.0899 92.8055 40.5573 93.073 42.1008C93.3406 43.6444 93.2707 45.2276 92.8682 46.7415C92.2096 49.3495 91.0783 51.8145 89.5304 54.0142C88.4748 55.5615 87.0565 56.8268 85.3994 57.6997C83.7423 58.5725 81.8967 59.0264 80.0238 59.0216C70.994 60.035 68.282 46.1752 68.282 46.1752Z" fill="#262127"/>
<path d="M68.2819 36.6374C68.4585 36.9588 68.754 37.1981 69.105 37.304C69.4561 37.4099 69.8346 37.3739 70.1594 37.2037C70.3478 37.1348 70.5192 37.0261 70.662 36.8851C70.8048 36.7441 70.9156 36.5741 70.987 36.3865C71.0584 36.199 71.0886 35.9983 71.0757 35.7981C71.0628 35.5978 71.0071 35.4027 70.9122 35.2258C70.8173 35.049 70.6855 34.8946 70.5258 34.7732C70.3661 34.6517 70.1822 34.5659 69.9865 34.5217C69.7908 34.4775 69.5879 34.4759 69.3915 34.5169C69.1951 34.558 69.0098 34.6407 68.8482 34.7596C68.5268 34.9362 68.2875 35.2318 68.1817 35.5829C68.0758 35.934 68.1118 36.3126 68.2819 36.6374Z" fill="#202020"/>
<path d="M71.2622 30.378L71.0238 30.527L65.0635 33.5076C64.7465 33.6521 64.3858 33.6676 64.0576 33.5508C63.7294 33.434 63.4596 33.194 63.3052 32.8817C63.2287 32.7272 63.1834 32.559 63.172 32.3869C63.1605 32.2148 63.1831 32.0421 63.2384 31.8788C63.2938 31.7154 63.3809 31.5646 63.4946 31.435C63.6083 31.3053 63.7465 31.1993 63.9012 31.1231L69.8615 28.2916C70.0152 28.2109 70.1837 28.1623 70.3568 28.1487C70.5299 28.1351 70.704 28.1569 70.8684 28.2126C71.0329 28.2684 71.1843 28.357 71.3134 28.473C71.4426 28.5891 71.5468 28.7301 71.6198 28.8877C71.7287 29.1415 71.7527 29.4237 71.6883 29.6922C71.6238 29.9607 71.4744 30.2013 71.2622 30.378Z" fill="#262127"/>
<path d="M81.7524 16.3692C81.7524 16.3692 76.2392 25.311 72.4842 24.6851C72.4842 24.6851 71.1133 24.6851 70.3683 22.539C70.3683 22.539 63.514 35.0277 56.004 30.3482C56.004 30.3482 54.1563 29.1559 57.9411 27.5166C55.6768 28.0126 53.3183 27.8557 51.1396 27.0643C48.9609 26.2729 47.0514 24.8794 45.6331 23.0457C41.2523 16.6971 47.9874 11.5704 51.2656 11.1233C54.2029 11.0888 57.0646 10.1866 59.4908 8.53019C64.4974 5.54959 72.3352 -5.77665 81.5736 4.59583L81.7524 16.3692Z" fill="#262127"/>
<path d="M64.855 98.5742C66.3633 100.054 67.3969 101.95 67.824 104.019C68.2512 106.089 68.0525 108.239 67.2533 110.195C66.4541 112.151 65.0906 113.825 63.3366 115.003C61.5826 116.182 59.5175 116.811 57.4046 116.811C55.2917 116.811 53.2266 116.182 51.4726 115.003C49.7186 113.825 48.3551 112.151 47.5559 110.195C46.7567 108.239 46.558 106.089 46.9852 104.019C47.4123 101.95 48.4459 100.054 49.9543 98.5742C51.9433 96.6227 54.6184 95.5295 57.4046 95.5295C60.1909 95.5295 62.8659 96.6227 64.855 98.5742Z" fill="#E1A4A7"/>
<path d="M49.4176 98.9019L39.5236 104.863C39.1079 105.08 38.7921 105.449 38.6421 105.894C38.4922 106.338 38.5197 106.823 38.7189 107.248C38.8883 107.609 39.1885 107.893 39.5589 108.043C39.9294 108.192 40.3427 108.196 40.7156 108.052L52.3083 103.581L49.4176 98.9019Z" fill="#E1A4A7"/>
<path d="M61.5172 96.3088L79.2788 102.628L78.2358 116.607L59.8483 106.979L61.5172 96.3088Z" fill="#E1A4A7"/>
<path d="M75.3451 97.054L70.4279 118.216L103.001 132.821L108.663 111.331L75.3451 97.054Z" fill="#DBAF37"/>
<path d="M87.4442 73.0603C87.4442 73.0603 90.4244 62.5984 93.4045 60.0052C97.559 56.8706 102.173 54.3973 107.083 52.673C107.664 52.5156 108.273 52.4956 108.863 52.6146C109.453 52.7336 110.007 52.9883 110.481 53.3585C120.794 61.61 127.9 73.2078 130.567 86.1451C134.679 104.506 133.249 170.734 133.249 170.734C115.368 179.944 75.1363 166.442 75.1363 166.442C79.2787 134.908 80.5005 102.151 87.4442 73.0603Z" fill="#EFC22E"/>
<path d="M110.6 53.448C110.6 53.448 102.524 71.1527 89.7389 71.4806C89.5346 71.4857 89.3319 71.4441 89.1462 71.3589C88.9605 71.2737 88.7967 71.1472 88.6673 70.9891C88.538 70.8309 88.4464 70.6453 88.3997 70.4464C88.353 70.2474 88.3524 70.0405 88.3978 69.8412C89.5398 65.2776 91.7456 61.0491 94.8349 57.5016C100.467 51.2423 105.534 48.8578 110.6 53.448Z" fill="#E1A4A7"/>
<path d="M63.3054 129.125L46.0802 129.751L41.9975 139.766L65.0339 140.66L63.3054 129.125Z" fill="#E1A4A7"/>
<path d="M25.9044 129.125C27.1858 134.639 36.4242 139.945 41.9971 139.766C43.2757 139.777 44.5418 139.513 45.7099 138.993C46.8779 138.473 47.9209 137.708 48.7683 136.75C49.6156 135.793 50.2478 134.664 50.622 133.441C50.9962 132.219 51.1038 130.93 50.9375 129.662C50.8138 126.955 49.6391 124.404 47.6633 122.55C45.6875 120.696 43.0666 119.687 40.3581 119.736C34.666 119.915 23.8779 120.481 25.9044 129.125Z" fill="#E1A4A7"/>
<path d="M76.9244 143.939L121.358 119.736L121.984 141.256C121.861 144.089 120.642 146.764 118.585 148.716C116.528 150.668 113.793 151.744 110.958 151.718L76.239 149.661L76.9244 143.939Z" fill="#DBAF37"/>
<path d="M97.1597 74.8486V79.3792L96.9809 122.866L54.6629 124.893L54.8417 143.194L108.931 145.042C111.262 144.842 113.496 144.018 115.398 142.657C116.657 141.748 117.703 140.576 118.464 139.222C119.226 137.869 119.685 136.366 119.809 134.818L124.905 85.3106L97.1597 74.8486Z" fill="#EFC22E"/>
<path d="M100.021 77.561L96.6529 121.078L99.8715 121.048L100.021 77.561Z" fill="#DBAF37"/>
<path d="M100.021 77.561L96.6529 121.078L99.8715 121.048L100.021 77.561Z" fill="#DBAF37"/>
<path d="M25.8149 124.982L84.9707 127.307C85.4013 127.323 85.8308 127.254 86.2346 127.104C86.6385 126.954 87.0087 126.725 87.3243 126.432C87.6398 126.138 87.8944 125.786 88.0735 125.394C88.2526 125.002 88.3527 124.578 88.3681 124.148C88.4004 123.275 88.0864 122.425 87.4947 121.783C86.9029 121.141 86.0814 120.759 85.2091 120.72L26.0831 118.425C25.6541 118.405 25.2253 118.47 24.8216 118.617C24.4179 118.764 24.0474 118.99 23.7314 119.281C23.4154 119.572 23.1603 119.922 22.9809 120.313C22.8014 120.703 22.7011 121.125 22.6858 121.555C22.6658 121.985 22.7309 122.416 22.8774 122.821C23.0239 123.226 23.2489 123.599 23.5396 123.917C23.8302 124.236 24.1808 124.494 24.5712 124.676C24.9617 124.859 25.3843 124.963 25.8149 124.982Z" fill="black"/>
<path d="M26.9178 122.002C26.7424 121.973 26.576 121.904 26.4313 121.801C26.2867 121.697 26.1676 121.562 26.0834 121.406L0.156229 75.1169C0.0772305 74.9762 0.0268555 74.8212 0.00807571 74.6609C-0.0107021 74.5006 0.00248718 74.3381 0.0468197 74.1829C0.0911522 74.0277 0.165745 73.8828 0.266365 73.7567C0.366983 73.6305 0.491556 73.5255 0.632971 73.4478C0.9233 73.2945 1.26138 73.2585 1.57745 73.3472C1.89352 73.436 2.16349 73.6426 2.33167 73.9246L28.2291 120.213C28.3081 120.354 28.3584 120.509 28.3772 120.669C28.396 120.83 28.3828 120.992 28.3385 121.147C28.2942 121.302 28.2195 121.447 28.1189 121.574C28.0183 121.7 27.8937 121.805 27.7523 121.882C27.4979 122.023 27.2012 122.065 26.9178 122.002Z" fill="black"/>
</svg>
