<svg xmlns="http://www.w3.org/2000/svg" xmlns:xlink="http://www.w3.org/1999/xlink" id="Layer_1" x="0" y="0" version="1.1" viewBox="0 0 473.935 473.935" xml:space="preserve" style="enable-background:new 0 0 473.935 473.935"><circle style="fill:#a2d4de" cx="236.967" cy="236.967" r="236.967"/><g><path style="fill:#6f8284" d="M374.254,376.693c0,3.304-2.683,5.987-5.987,5.987H106.338c-3.304,0-5.987-2.683-5.987-5.987v-3.326 c0-3.304,2.683-5.983,5.987-5.983h261.933c3.304,0,5.987,2.679,5.987,5.983v3.326H374.254z"/><path style="fill:#6f8284" d="M360.45,357.988c0,3.304-2.683,5.987-5.987,5.987H119.449c-3.304,0-5.987-2.683-5.987-5.987v-3.326 c0-3.304,2.683-5.983,5.987-5.983h235.018c3.304,0,5.987,2.679,5.987,5.983v3.326H360.45z"/></g><g><path style="fill:#526b70" d="M360.45,158.424c0,3.304-2.683,5.987-5.987,5.987H119.449c-3.304,0-5.987-2.683-5.987-5.987v-3.326 c0-3.304,2.683-5.983,5.987-5.983h235.018c3.304,0,5.987,2.679,5.987,5.983v3.326H360.45z"/><path style="fill:#526b70" d="M381.03,138.252c0,3.854-3.128,6.982-6.978,6.982H99.861c-3.85,0-6.978-3.128-6.978-6.982 l141.889-78.136L381.03,138.252z"/></g><g><path style="fill:#809598" d="M165.166,335.477c0,5.066-4.108,9.171-9.171,9.171h-32.097c-5.066,0-9.171-4.108-9.171-9.171 V177.016c0-5.066,4.108-9.171,9.171-9.171h32.097c5.066,0,9.171,4.108,9.171,9.171V335.477z"/><path style="fill:#809598" d="M359.739,335.477c0,5.066-4.108,9.171-9.171,9.171h-32.097c-5.066,0-9.171-4.108-9.171-9.171 V177.016c0-5.066,4.108-9.171,9.171-9.171h32.097c5.066,0,9.171,4.108,9.171,9.171V335.477z"/><path style="fill:#809598" d="M262.453,335.477c0,5.066-4.108,9.171-9.171,9.171h-32.097c-5.066,0-9.171-4.108-9.171-9.171 V177.016c0-5.066,4.108-9.171,9.171-9.171h32.097c5.066,0,9.171,4.108,9.171,9.171V335.477z"/></g></svg>