<svg width="20" height="23" viewBox="0 0 20 23" fill="none" xmlns="http://www.w3.org/2000/svg">
<path fill-rule="evenodd" clip-rule="evenodd" d="M17 9C17 4.94082 14.7616 2.1235 11.8654 1.27771C11.7605 1.00636 11.5948 0.7541 11.3695 0.54243C10.5997 -0.18081 9.40027 -0.18081 8.63051 0.54243C8.40572 0.753635 8.24021 1.00525 8.13531 1.27592C5.23535 2.11803 3 4.92919 3 9C3 11.6339 2.46898 13.1098 1.48596 14.1793C1.32161 14.3582 0.876316 14.7678 0.574677 15.0453L0.574652 15.0453L0.574646 15.0453L0.574499 15.0454C0.431865 15.1766 0.321381 15.2783 0.287965 15.3119L0 15.604V19.0141H6.08798C6.29384 20.0761 6.87009 20.7867 7.9122 21.4226C9.19414 22.2049 10.8059 22.2049 12.0878 21.4226C13.0075 20.8614 13.6241 19.9989 13.8743 19.0141H20V15.604L19.712 15.3119C19.6817 15.2812 19.5757 15.1834 19.437 15.0555C19.1363 14.7781 18.6823 14.3592 18.5154 14.1769C17.5317 13.1024 17 11.6246 17 9ZM11.7367 19.0141H8.17862C8.3199 19.2769 8.56071 19.4754 8.95402 19.7154C9.59627 20.1073 10.4037 20.1073 11.046 19.7154C11.3434 19.5339 11.5758 19.2937 11.7367 19.0141ZM17.0402 15.5274C17.2506 15.7573 17.7016 16.1774 18 16.4519V17.0141H2V16.4524C2.29607 16.1811 2.74843 15.7613 2.95849 15.5327C4.29422 14.0794 5 12.1178 5 9C5 5.21989 7.33277 3.01238 10 3.01238C12.6597 3.01238 15 5.23129 15 9C15 12.1078 15.706 14.07 17.0402 15.5274Z" fill="black"/>
</svg>
