<svg xmlns="http://www.w3.org/2000/svg" width="881" height="365" fill="none" viewBox="0 0 881 365"><path fill="#CDCDCD" d="M135.891 162.64L136.858 162.894L137.188 161.64H135.891V162.64ZM100.359 162.64V161.64H99.7317L99.4587 162.205L100.359 162.64ZM100.359 120.304L99.4587 120.739L99.7317 121.304H100.359V120.304ZM135.891 120.304V121.304H137.188L136.858 120.05L135.891 120.304ZM5.237 141.472C5.237 161.554 12.2219 178.684 24.2138 190.796C36.2062 202.908 53.1488 209.945 72.954 209.945V207.945C53.6362 207.945 37.2203 201.09 25.635 189.389C14.0491 177.687 7.237 161.08 7.237 141.472H5.237ZM72.954 209.945C104.934 209.945 129.173 192.097 136.858 162.894L134.924 162.385C127.489 190.639 104.1 207.945 72.954 207.945V209.945ZM135.891 161.64H100.359V163.64H135.891V161.64ZM99.4587 162.205C94.158 173.172 84.5092 178.65 72.576 178.65V180.65C85.2129 180.65 95.598 174.788 101.259 163.075L99.4587 162.205ZM72.576 178.65C62.9154 178.65 54.8326 175.069 49.1549 168.685C43.4681 162.29 40.123 153 40.123 141.472H38.123C38.123 153.38 41.5819 163.179 47.6604 170.014C53.748 176.86 62.3916 180.65 72.576 180.65V178.65ZM40.123 141.472C40.123 129.944 43.4681 120.654 49.1549 114.259C54.8326 107.875 62.9154 104.294 72.576 104.294V102.294C62.3916 102.294 53.748 106.084 47.6604 112.93C41.5819 119.765 38.123 129.564 38.123 141.472H40.123ZM72.576 104.294C84.5092 104.294 94.158 109.772 99.4587 120.739L101.259 119.869C95.598 108.156 85.2129 102.294 72.576 102.294V104.294ZM100.359 121.304H135.891V119.304H100.359V121.304ZM136.858 120.05C129.174 90.8513 104.939 72.81 72.954 72.81V74.81C104.095 74.81 127.488 92.3006 134.924 120.558L136.858 120.05ZM72.954 72.81C53.1468 72.81 36.204 79.8952 24.2124 92.0551C12.2216 104.214 5.237 121.39 5.237 141.472H7.237C7.237 121.864 14.0494 105.209 25.6364 93.4594C37.2225 81.7108 53.6382 74.81 72.954 74.81V72.81ZM287.282 141.283C287.282 100.832 256.763 72.432 218.431 72.432V74.432C255.699 74.432 285.282 101.976 285.282 141.283H287.282ZM218.431 72.432C180.297 72.432 149.202 100.823 149.202 141.283H151.202C151.202 101.985 181.343 74.432 218.431 74.432V72.432ZM149.202 141.283C149.202 181.74 180.293 210.323 218.431 210.323V208.323C181.346 208.323 151.202 180.584 151.202 141.283H149.202ZM218.431 210.323C256.576 210.323 287.282 181.733 287.282 141.283H285.282C285.282 180.591 255.508 208.323 218.431 208.323V210.323ZM184.277 141.283C184.277 129.659 187.623 120.28 193.513 113.819C199.394 107.368 207.9 103.727 218.431 103.727V101.727C207.416 101.727 198.345 105.551 192.035 112.472C185.735 119.383 182.277 129.282 182.277 141.283H184.277ZM218.431 103.727C228.768 103.727 237.229 107.365 243.112 113.819C249.005 120.283 252.396 129.662 252.396 141.283H254.396C254.396 129.279 250.889 119.38 244.59 112.472C238.284 105.554 229.262 101.727 218.431 101.727V103.727ZM252.396 141.283C252.396 152.711 249.006 162.094 243.11 168.608C237.222 175.111 228.761 178.839 218.431 178.839V180.839C229.269 180.839 238.29 176.912 244.593 169.95C250.887 162.997 254.396 153.102 254.396 141.283H252.396ZM218.431 178.839C207.908 178.839 199.4 175.108 193.515 168.608C187.621 162.096 184.277 152.715 184.277 141.283H182.277C182.277 153.098 185.737 162.995 192.033 169.95C198.338 176.915 207.408 180.839 218.431 180.839V178.839ZM304.262 208H303.262V209H304.262V208ZM336.581 208V209H337.581V208H336.581ZM336.581 128.242L337.517 127.891L335.581 128.242H336.581ZM366.443 208L365.506 208.351L365.75 209H366.443V208ZM392.525 208V209H393.219L393.462 208.349L392.525 208ZM422.198 128.431H423.198L421.261 128.082L422.198 128.431ZM422.198 208H421.198V209H422.198V208ZM454.517 208V209H455.517V208H454.517ZM454.517 75.322H455.517V74.322H454.517V75.322ZM416.528 75.322V74.322H415.852L415.6 74.9496L416.528 75.322ZM379.673 167.176L378.746 167.552L379.678 169.85L380.601 167.548L379.673 167.176ZM342.44 75.322L343.367 74.9463L343.114 74.322H342.44V75.322ZM304.262 75.322V74.322H303.262V75.322H304.262ZM304.262 209H336.581V207H304.262V209ZM337.581 208V128.242H335.581V208H337.581ZM335.644 128.593L365.506 208.351L367.379 207.649L337.517 127.891L335.644 128.593ZM366.443 209H392.525V207H366.443V209ZM393.462 208.349L423.135 128.78L421.261 128.082L391.588 207.651L393.462 208.349ZM421.198 128.431V208H423.198V128.431H421.198ZM422.198 209H454.517V207H422.198V209ZM455.517 208V75.322H453.517V208H455.517ZM454.517 74.322H416.528V76.322H454.517V74.322ZM415.6 74.9496L378.745 166.804L380.601 167.548L417.456 75.6944L415.6 74.9496ZM380.6 166.8L343.367 74.9463L341.513 75.6977L378.746 167.552L380.6 166.8ZM342.44 74.322H304.262V76.322H342.44V74.322ZM303.262 75.322V208H305.262V75.322H303.262ZM510.077 134.668H509.077V135.668H510.077V134.668ZM510.077 101.404V100.404H509.077V101.404H510.077ZM477.758 75.322V74.322H476.758V75.322H477.758ZM477.758 208H476.758V209H477.758V208ZM510.077 208V209H511.077V208H510.077ZM510.077 160.372V159.372H509.077V160.372H510.077ZM511.077 134.668V101.404H509.077V134.668H511.077ZM510.077 102.404H527.654V100.404H510.077V102.404ZM527.654 102.404C533.925 102.404 538.218 103.971 540.944 106.611C543.666 109.246 544.987 113.105 544.987 118.036H546.987C546.987 112.761 545.568 108.304 542.336 105.174C539.109 102.05 534.235 100.404 527.654 100.404V102.404ZM544.987 118.036C544.987 122.967 543.666 126.826 540.944 129.461C538.218 132.101 533.925 133.668 527.654 133.668V135.668C534.235 135.668 539.109 134.022 542.336 130.898C545.568 127.768 546.987 123.311 546.987 118.036H544.987ZM527.654 133.668H510.077V135.668H527.654V133.668ZM579.873 118.036C579.873 105.618 575.728 94.6581 567.367 86.8071C559.01 78.9603 546.551 74.322 530.111 74.322V76.322C546.179 76.322 558.101 80.8502 565.998 88.2651C573.891 95.6759 577.873 106.073 577.873 118.036H579.873ZM530.111 74.322H477.758V76.322H530.111V74.322ZM476.758 75.322V208H478.758V75.322H476.758ZM477.758 209H510.077V207H477.758V209ZM511.077 208V160.372H509.077V208H511.077ZM510.077 161.372H530.111V159.372H510.077V161.372ZM530.111 161.372C547.232 161.372 559.695 156.202 567.88 148.138C576.061 140.079 579.873 129.224 579.873 118.036H577.873C577.873 128.772 574.22 139.085 566.477 146.713C558.739 154.336 546.821 159.372 530.111 159.372V161.372ZM706.263 75.322H707.263V74.322H706.263V75.322ZM673.944 75.322V74.322H672.944V75.322H673.944ZM627.45 75.322H628.45V74.322H627.45V75.322ZM595.131 75.322V74.322H594.131V75.322H595.131ZM594.131 154.513C594.131 173.075 600.215 187.062 610.305 196.402C620.382 205.73 634.348 210.323 649.941 210.323V208.323C634.728 208.323 621.289 203.844 611.663 194.934C602.05 186.035 596.131 172.617 596.131 154.513H594.131ZM649.941 210.323C665.44 210.323 679.775 205.73 690.249 196.415C700.74 187.084 707.263 173.097 707.263 154.513H705.263C705.263 172.595 698.935 186.013 688.92 194.921C678.887 203.844 665.061 208.323 649.941 208.323V210.323ZM707.263 154.513V75.322H705.263V154.513H707.263ZM706.263 74.322H673.944V76.322H706.263V74.322ZM672.944 75.322V154.702H674.944V75.322H672.944ZM672.944 154.702C672.944 162.383 670.956 168.295 667.236 172.282C663.527 176.258 657.963 178.461 650.508 178.461V180.461C658.363 180.461 664.517 178.128 668.699 173.646C672.87 169.175 674.944 162.708 674.944 154.702H672.944ZM650.508 178.461C643.054 178.461 637.591 176.258 633.978 172.291C630.351 168.308 628.45 162.394 628.45 154.702H626.45C626.45 162.697 628.425 169.163 632.499 173.637C636.588 178.128 642.654 180.461 650.508 180.461V178.461ZM628.45 154.702V75.322H626.45V154.702H628.45ZM627.45 74.322H595.131V76.322H627.45V74.322ZM594.131 75.322V154.513H596.131V75.322H594.131ZM721.776 101.215H720.776V102.215H721.776V101.215ZM756.93 101.215H757.93V100.215H756.93V101.215ZM756.93 208H755.93V209H756.93V208ZM789.249 208V209H790.249V208H789.249ZM789.249 101.215V100.215H788.249V101.215H789.249ZM824.403 101.215V102.215H825.403V101.215H824.403ZM824.403 75.322H825.403V74.322H824.403V75.322ZM721.776 75.322V74.322H720.776V75.322H721.776ZM721.776 102.215H756.93V100.215H721.776V102.215ZM755.93 101.215V208H757.93V101.215H755.93ZM756.93 209H789.249V207H756.93V209ZM790.249 208V101.215H788.249V208H790.249ZM789.249 102.215H824.403V100.215H789.249V102.215ZM825.403 101.215V75.322H823.403V101.215H825.403ZM824.403 74.322H721.776V76.322H824.403V74.322ZM720.776 75.322V101.215H722.776V75.322H720.776ZM921.893 75.322H922.893V74.322H921.893V75.322ZM840.623 75.322V74.322H839.623V75.322H840.623ZM840.623 208H839.623V209H840.623V208ZM921.893 208V209H922.893V208H921.893ZM921.893 182.107H922.893V181.107H921.893V182.107ZM872.942 182.107H871.942V183.107H872.942V182.107ZM872.942 153.001V152.001H871.942V153.001H872.942ZM916.223 153.001V154.001H917.223V153.001H916.223ZM916.223 128.053H917.223V127.053H916.223V128.053ZM872.942 128.053H871.942V129.053H872.942V128.053ZM872.942 101.215V100.215H871.942V101.215H872.942ZM921.893 101.215V102.215H922.893V101.215H921.893ZM921.893 74.322H840.623V76.322H921.893V74.322ZM839.623 75.322V208H841.623V75.322H839.623ZM840.623 209H921.893V207H840.623V209ZM922.893 208V182.107H920.893V208H922.893ZM921.893 181.107H872.942V183.107H921.893V181.107ZM873.942 182.107V153.001H871.942V182.107H873.942ZM872.942 154.001H916.223V152.001H872.942V154.001ZM917.223 153.001V128.053H915.223V153.001H917.223ZM916.223 127.053H872.942V129.053H916.223V127.053ZM873.942 128.053V101.215H871.942V128.053H873.942ZM872.942 102.215H921.893V100.215H872.942V102.215ZM922.893 101.215V75.322H920.893V101.215H922.893ZM975.194 135.046H974.194V136.046H975.194V135.046ZM975.194 102.16V101.16H974.194V102.16H975.194ZM942.875 75.322V74.322H941.875V75.322H942.875ZM942.875 208H941.875V209H942.875V208ZM975.194 208V209H976.194V208H975.194ZM975.194 157.915V156.915H974.194V157.915H975.194ZM982.943 157.915L983.819 157.432L983.534 156.915H982.943V157.915ZM1010.54 208L1009.66 208.483L1009.95 209H1010.54V208ZM1047.01 208V209H1048.75L1047.88 207.497L1047.01 208ZM1016.4 155.458L1016.11 154.499L1014.89 154.861L1015.53 155.961L1016.4 155.458ZM1011.99 118.414C1011.99 123.435 1010.63 127.299 1007.95 129.912C1005.27 132.53 1001.11 134.046 995.228 134.046V136.046C1001.44 136.046 1006.17 134.444 1009.35 131.344C1012.53 128.24 1013.99 123.788 1013.99 118.414H1011.99ZM995.228 134.046H975.194V136.046H995.228V134.046ZM976.194 135.046V102.16H974.194V135.046H976.194ZM975.194 103.16H995.228V101.16H975.194V103.16ZM995.228 103.16C1001.11 103.16 1005.26 104.719 1007.95 107.32C1010.64 109.917 1011.99 113.69 1011.99 118.414H1013.99C1013.99 113.31 1012.52 108.956 1009.34 105.883C1006.17 102.814 1001.45 101.16 995.228 101.16V103.16ZM941.875 75.322V208H943.875V75.322H941.875ZM942.875 209H975.194V207H942.875V209ZM976.194 208V157.915H974.194V208H976.194ZM975.194 158.915H982.943V156.915H975.194V158.915ZM982.067 158.398L1009.66 208.483L1011.41 207.517L983.819 157.432L982.067 158.398ZM1010.54 209H1047.01V207H1010.54V209ZM1047.88 207.497L1017.26 154.955L1015.53 155.961L1046.15 208.503L1047.88 207.497ZM1016.68 156.417C1037.55 150.233 1046.88 134.129 1046.88 117.091H1044.88C1044.88 133.317 1036.07 148.587 1016.11 154.499L1016.68 156.417ZM1046.88 117.091C1046.88 105.321 1042.73 94.6004 1034.37 86.8276C1026.02 79.0578 1013.56 74.322 997.118 74.322V76.322C1013.18 76.322 1025.11 80.9417 1033.01 88.2919C1040.91 95.6391 1044.88 105.803 1044.88 117.091H1046.88ZM997.118 74.322H942.875V76.322H997.118V74.322Z"/><path fill="#C8C8C8" d="M586.888 239.2L586.864 240.2L586.866 240.2L586.888 239.2ZM595.312 246.792L594.314 246.859L594.376 247.792H595.312V246.792ZM614.552 246.792V247.792H615.606L615.551 246.74L614.552 246.792ZM560.576 246.48L561.576 246.488V246.48H560.576ZM579.296 277.16L580.292 277.068L580.208 276.16H579.296V277.16ZM560.368 277.16V276.16H559.332L559.369 277.195L560.368 277.16ZM616.488 277.264C616.488 270.865 614.109 266.375 610.525 263.093C606.985 259.851 602.313 257.824 597.779 256.211C593.157 254.566 588.795 253.379 585.473 251.778C582.167 250.186 580.4 248.416 580.4 245.856H578.4C578.4 249.64 581.144 251.913 584.605 253.58C588.049 255.24 592.709 256.529 597.109 258.095C601.597 259.693 605.947 261.612 609.174 264.568C612.357 267.483 614.488 271.443 614.488 277.264H616.488ZM580.4 245.856C580.4 243.822 581.105 242.432 582.181 241.544C583.283 240.635 584.896 240.152 586.864 240.2L586.912 238.2C584.616 238.144 582.485 238.701 580.909 240.002C579.307 241.324 578.4 243.314 578.4 245.856H580.4ZM586.866 240.2C589.069 240.248 590.855 240.915 592.114 242.029C593.365 243.136 594.174 244.752 594.314 246.859L596.31 246.725C596.138 244.152 595.127 242.024 593.44 240.531C591.761 239.045 589.491 238.256 586.91 238.2L586.866 240.2ZM595.312 247.792H614.552V245.792H595.312V247.792ZM615.551 246.74C615.173 239.505 612.189 233.767 607.186 229.858C602.205 225.966 595.311 223.952 587.2 223.952V225.952C595.001 225.952 601.419 227.89 605.954 231.434C610.467 234.961 613.203 240.143 613.553 246.844L615.551 246.74ZM587.2 223.952C579.401 223.952 572.511 225.914 567.545 229.737C562.55 233.582 559.576 239.259 559.576 246.48H561.576C561.576 239.869 564.27 234.782 568.765 231.321C573.289 227.838 579.711 225.952 587.2 225.952V223.952ZM559.576 246.472C559.522 253.219 561.875 257.89 565.477 261.256C569.033 264.578 573.748 266.573 578.323 268.135C580.605 268.915 582.922 269.608 585.026 270.286C587.155 270.973 589.096 271.654 590.743 272.436C594.056 274.009 595.872 275.833 595.872 278.616H597.872C597.872 274.639 595.125 272.303 591.6 270.629C589.828 269.788 587.781 269.074 585.64 268.383C583.474 267.684 581.237 267.017 578.969 266.243C574.444 264.698 570.072 262.812 566.842 259.794C563.658 256.819 561.526 252.689 561.576 246.488L559.576 246.472ZM595.872 278.616C595.872 280.462 595.164 281.883 593.934 282.865C592.678 283.868 590.789 284.48 588.344 284.48V286.48C591.099 286.48 593.474 285.792 595.182 284.429C596.916 283.045 597.872 281.034 597.872 278.616H595.872ZM588.344 284.48C586.026 284.48 584.149 283.854 582.802 282.674C581.461 281.499 580.533 279.679 580.292 277.068L578.3 277.252C578.579 280.257 579.679 282.597 581.484 284.178C583.283 285.754 585.67 286.48 588.344 286.48V284.48ZM579.296 276.16H560.368V278.16H579.296V276.16ZM559.369 277.195C559.639 284.881 562.984 290.806 568.325 294.784C573.637 298.741 580.859 300.728 588.864 300.728V298.728C581.165 298.728 574.399 296.815 569.519 293.18C564.668 289.566 561.617 284.207 561.367 277.125L559.369 277.195ZM588.864 300.728C597.592 300.728 604.502 298.118 609.242 293.84C613.986 289.56 616.488 283.67 616.488 277.264H614.488C614.488 283.13 612.206 288.472 607.902 292.356C603.594 296.242 597.192 298.728 588.864 298.728V300.728ZM694.76 274.04L695.727 274.294L696.058 273.04H694.76V274.04ZM675.208 274.04V273.04H674.581L674.308 273.605L675.208 274.04ZM675.208 250.744L674.308 251.179L674.581 251.744H675.208V250.744ZM694.76 250.744V251.744H696.058L695.727 250.49L694.76 250.744ZM622.416 262.392C622.416 273.549 626.299 283.093 632.989 289.85C639.679 296.607 649.121 300.52 660.128 300.52V298.52C649.608 298.52 640.693 294.789 634.41 288.442C628.126 282.095 624.416 273.075 624.416 262.392H622.416ZM660.128 300.52C677.913 300.52 691.443 290.577 695.727 274.294L693.793 273.786C689.758 289.119 677.08 298.52 660.128 298.52V300.52ZM694.76 273.04H675.208V275.04H694.76V273.04ZM674.308 273.605C671.472 279.472 666.329 282.4 659.92 282.4V284.4C667.032 284.4 672.912 281.088 676.109 274.475L674.308 273.605ZM659.92 282.4C654.722 282.4 650.401 280.477 647.369 277.067C644.327 273.648 642.512 268.65 642.512 262.392H640.512C640.512 269.03 642.441 274.536 645.874 278.397C649.316 282.267 654.199 284.4 659.92 284.4V282.4ZM642.512 262.392C642.512 256.134 644.327 251.136 647.369 247.717C650.401 244.307 654.722 242.384 659.92 242.384V240.384C654.199 240.384 649.316 242.517 645.874 246.387C642.441 250.248 640.512 255.754 640.512 262.392H642.512ZM659.92 242.384C666.329 242.384 671.472 245.312 674.308 251.179L676.109 250.309C672.912 243.696 667.032 240.384 659.92 240.384V242.384ZM675.208 251.744H694.76V249.744H675.208V251.744ZM695.727 250.49C691.444 234.211 677.918 224.16 660.128 224.16V226.16C677.075 226.16 689.757 235.661 693.793 250.998L695.727 250.49ZM660.128 224.16C649.119 224.16 639.677 228.1 632.987 234.884C626.299 241.667 622.416 251.235 622.416 262.392H624.416C624.416 251.709 628.126 242.661 634.411 236.288C640.696 229.916 649.61 226.16 660.128 226.16V224.16ZM705.651 299H704.651V300H705.651V299ZM723.435 299V300H724.435V299H723.435ZM723.435 225.992H724.435V224.992H723.435V225.992ZM705.651 225.992V224.992H704.651V225.992H705.651ZM705.651 300H723.435V298H705.651V300ZM724.435 299V225.992H722.435V299H724.435ZM723.435 224.992H705.651V226.992H723.435V224.992ZM704.651 225.992V299H706.651V225.992H704.651ZM781.043 225.992H782.043V224.992H781.043V225.992ZM736.323 225.992V224.992H735.323V225.992H736.323ZM736.323 299H735.323V300H736.323V299ZM781.043 299V300H782.043V299H781.043ZM781.043 284.752H782.043V283.752H781.043V284.752ZM754.107 284.752H753.107V285.752H754.107V284.752ZM754.107 268.736V267.736H753.107V268.736H754.107ZM777.923 268.736V269.736H778.923V268.736H777.923ZM777.923 255.008H778.923V254.008H777.923V255.008ZM754.107 255.008H753.107V256.008H754.107V255.008ZM754.107 240.24V239.24H753.107V240.24H754.107ZM781.043 240.24V241.24H782.043V240.24H781.043ZM781.043 224.992H736.323V226.992H781.043V224.992ZM735.323 225.992V299H737.323V225.992H735.323ZM736.323 300H781.043V298H736.323V300ZM782.043 299V284.752H780.043V299H782.043ZM781.043 283.752H754.107V285.752H781.043V283.752ZM755.107 284.752V268.736H753.107V284.752H755.107ZM754.107 269.736H777.923V267.736H754.107V269.736ZM778.923 268.736V255.008H776.923V268.736H778.923ZM777.923 254.008H754.107V256.008H777.923V254.008ZM755.107 255.008V240.24H753.107V255.008H755.107ZM754.107 241.24H781.043V239.24H754.107V241.24ZM782.043 240.24V225.992H780.043V240.24H782.043ZM840.117 225.992V224.992H839.117V225.992H840.117ZM840.117 271.232L839.281 271.781L841.117 274.573V271.232H840.117ZM810.373 225.992L811.208 225.443L810.912 224.992H810.373V225.992ZM792.589 225.992V224.992H791.589V225.992H792.589ZM792.589 299H791.589V300H792.589V299ZM810.373 299V300H811.373V299H810.373ZM810.373 253.968L811.207 253.417L809.373 250.64V253.968H810.373ZM840.117 299L839.282 299.551L839.579 300H840.117V299ZM857.901 299V300H858.901V299H857.901ZM857.901 225.992H858.901V224.992H857.901V225.992ZM839.117 225.992V271.232H841.117V225.992H839.117ZM840.952 270.683L811.208 225.443L809.537 226.541L839.281 271.781L840.952 270.683ZM810.373 224.992H792.589V226.992H810.373V224.992ZM791.589 225.992V299H793.589V225.992H791.589ZM792.589 300H810.373V298H792.589V300ZM811.373 299V253.968H809.373V299H811.373ZM809.538 254.519L839.282 299.551L840.951 298.449L811.207 253.417L809.538 254.519ZM840.117 300H857.901V298H840.117V300ZM858.901 299V225.992H856.901V299H858.901ZM857.901 224.992H840.117V226.992H857.901V224.992ZM939.12 274.04L940.087 274.294L940.417 273.04H939.12V274.04ZM919.568 274.04V273.04H918.94L918.667 273.605L919.568 274.04ZM919.568 250.744L918.667 251.179L918.94 251.744H919.568V250.744ZM939.12 250.744V251.744H940.417L940.087 250.49L939.12 250.744ZM866.776 262.392C866.776 273.549 870.658 283.093 877.348 289.85C884.039 296.607 893.48 300.52 904.488 300.52V298.52C893.967 298.52 885.053 294.789 878.769 288.442C872.485 282.095 868.776 273.075 868.776 262.392H866.776ZM904.488 300.52C922.272 300.52 935.802 290.577 940.087 274.294L938.153 273.786C934.118 289.119 921.439 298.52 904.488 298.52V300.52ZM939.12 273.04H919.568V275.04H939.12V273.04ZM918.667 273.605C915.832 279.472 910.688 282.4 904.28 282.4V284.4C911.392 284.4 917.272 281.088 920.468 274.475L918.667 273.605ZM904.28 282.4C899.082 282.4 894.76 280.477 891.728 277.067C888.687 273.648 886.872 268.65 886.872 262.392H884.872C884.872 269.03 886.801 274.536 890.233 278.397C893.675 282.267 898.558 284.4 904.28 284.4V282.4ZM886.872 262.392C886.872 256.134 888.687 251.136 891.728 247.717C894.76 244.307 899.082 242.384 904.28 242.384V240.384C898.558 240.384 893.675 242.517 890.233 246.387C886.801 250.248 884.872 255.754 884.872 262.392H886.872ZM904.28 242.384C910.688 242.384 915.832 245.312 918.667 251.179L920.468 250.309C917.272 243.696 911.392 240.384 904.28 240.384V242.384ZM919.568 251.744H939.12V249.744H919.568V251.744ZM940.087 250.49C935.803 234.211 922.277 224.16 904.488 224.16V226.16C921.434 226.16 934.116 235.661 938.153 250.998L940.087 250.49ZM904.488 224.16C893.478 224.16 884.037 228.1 877.347 234.884C870.658 241.667 866.776 251.235 866.776 262.392H868.776C868.776 251.709 872.486 242.661 878.771 236.288C885.055 229.916 893.969 226.16 904.488 226.16V224.16ZM994.73 225.992H995.73V224.992H994.73V225.992ZM950.01 225.992V224.992H949.01V225.992H950.01ZM950.01 299H949.01V300H950.01V299ZM994.73 299V300H995.73V299H994.73ZM994.73 284.752H995.73V283.752H994.73V284.752ZM967.794 284.752H966.794V285.752H967.794V284.752ZM967.794 268.736V267.736H966.794V268.736H967.794ZM991.611 268.736V269.736H992.611V268.736H991.611ZM991.611 255.008H992.611V254.008H991.611V255.008ZM967.794 255.008H966.794V256.008H967.794V255.008ZM967.794 240.24V239.24H966.794V240.24H967.794ZM994.73 240.24V241.24H995.73V240.24H994.73ZM994.73 224.992H950.01V226.992H994.73V224.992ZM949.01 225.992V299H951.01V225.992H949.01ZM950.01 300H994.73V298H950.01V300ZM995.73 299V284.752H993.73V299H995.73ZM994.73 283.752H967.794V285.752H994.73V283.752ZM968.794 284.752V268.736H966.794V284.752H968.794ZM967.794 269.736H991.611V267.736H967.794V269.736ZM992.611 268.736V255.008H990.611V268.736H992.611ZM991.611 254.008H967.794V256.008H991.611V254.008ZM968.794 255.008V240.24H966.794V255.008H968.794ZM967.794 241.24H994.73V239.24H967.794V241.24ZM995.73 240.24V225.992H993.73V240.24H995.73Z"/></svg>