<svg width="307" height="201" viewBox="0 0 307 201" fill="none" xmlns="http://www.w3.org/2000/svg">
<g clip-path="url(#clip0)">
<path opacity="0.2" d="M15.3186 192.741C15.3186 192.741 -16.8254 155.529 19.3826 115.035C48.5718 82.3959 39.2511 69.7739 37.9062 47.7624C36.7675 29.1342 58.0398 1.5844 89.8697 0.209594C142.044 -2.04275 155.017 14.611 182.714 13.4312C210.411 12.2514 222.942 2.62282 255.12 6.41573C314.829 13.4604 306.779 69.6667 298.077 111.676C289.375 153.686 315.521 168.034 296.707 192.775" fill="#B5D0FF"/>
<path d="M178.34 186.623H127.918L133.396 165.231L134.638 160.38L137.048 150.99H169.211L171.621 160.38L172.863 165.231L178.34 186.623Z" fill="#6F3FBA"/>
<path d="M172.863 165.231H133.396L134.638 160.38H171.621L172.863 165.231Z" fill="#5730A0"/>
<path d="M197.689 192.532H108.565C106.425 192.532 104.693 190.811 104.693 188.685C104.693 186.56 106.425 184.839 108.565 184.839H197.689C199.829 184.839 201.561 186.56 201.561 188.685C201.561 190.806 199.829 192.532 197.689 192.532Z" fill="#774CC9"/>
<path d="M235.404 60.1162V154.266C235.404 156.504 233.573 158.322 231.32 158.322H74.9486C72.6859 158.322 70.865 156.504 70.865 154.266V60.1162C70.865 57.8784 72.6908 56.06 74.9486 56.06H231.32C233.573 56.06 235.404 57.8784 235.404 60.1162Z" fill="#854DCE"/>
<path d="M232.09 59.0388H73.8737V142.034H232.09V59.0388Z" fill="#B8B8F4"/>
<g opacity="0.3">
<path opacity="0.3" d="M216.428 59.0388H211.991V129.622H216.428V59.0388Z" fill="#EEFAFF"/>
<path opacity="0.3" d="M227.668 59.0388H223.231V129.622H227.668V59.0388Z" fill="#EEFAFF"/>
<path opacity="0.3" d="M81.5846 59.0388H77.1475V129.622H81.5846V59.0388Z" fill="#EEFAFF"/>
<path opacity="0.3" d="M92.8195 59.0388H88.3824V129.622H92.8195V59.0388Z" fill="#EEFAFF"/>
<path opacity="0.3" d="M104.059 59.0388H99.6223V129.622H104.059V59.0388Z" fill="#EEFAFF"/>
<path opacity="0.3" d="M115.294 59.0388H110.857V129.622H115.294V59.0388Z" fill="#EEFAFF"/>
<path opacity="0.3" d="M126.534 59.0388H122.097V129.622H126.534V59.0388Z" fill="#EEFAFF"/>
<path opacity="0.3" d="M137.769 59.0388H133.332V129.622H137.769V59.0388Z" fill="#EEFAFF"/>
<path opacity="0.3" d="M149.009 59.0388H144.572V129.622H149.009V59.0388Z" fill="#EEFAFF"/>
<path opacity="0.3" d="M160.244 59.0388H155.807V129.622H160.244V59.0388Z" fill="#EEFAFF"/>
<path opacity="0.3" d="M171.484 59.0388H167.047V129.622H171.484V59.0388Z" fill="#EEFAFF"/>
<path opacity="0.3" d="M182.719 59.0388H178.282V129.622H182.719V59.0388Z" fill="#EEFAFF"/>
<path opacity="0.3" d="M193.958 59.0388H189.521V129.622H193.958V59.0388Z" fill="#EEFAFF"/>
<path opacity="0.3" d="M205.194 59.0388H200.756V129.622H205.194V59.0388Z" fill="#EEFAFF"/>
</g>
<path d="M232.09 129.622H73.8737V142.034H232.09V129.622Z" fill="#7272DD"/>
<path d="M153.122 153.681C151.036 153.681 149.328 151.985 149.328 149.913C149.328 147.841 151.036 146.144 153.122 146.144C155.208 146.144 156.916 147.841 156.916 149.913C156.916 151.989 155.208 153.681 153.122 153.681Z" fill="#5730A0"/>
<path opacity="0.2" d="M164.759 158.249H153.642L182.871 56.06H193.983L164.759 158.249Z" fill="url(#paint0_linear)"/>
<path opacity="0.2" d="M192.682 158.249H169.103L198.332 56.06H221.906L192.682 158.249Z" fill="url(#paint1_linear)"/>
<path d="M226.019 137.042H96.216C95.5387 137.042 94.989 136.496 94.989 135.823C94.989 135.151 95.5387 134.604 96.216 134.604H226.019C226.696 134.604 227.246 135.151 227.246 135.823C227.246 136.496 226.696 137.042 226.019 137.042Z" fill="#9494ED"/>
<path d="M161.118 134.609V137.047H96.216C95.5387 137.047 94.989 136.501 94.989 135.828C94.989 135.151 95.5387 134.609 96.216 134.609H161.118Z" fill="#F98094"/>
<path d="M161.147 138.022C162.367 138.022 163.356 137.04 163.356 135.828C163.356 134.617 162.367 133.634 161.147 133.634C159.927 133.634 158.938 134.617 158.938 135.828C158.938 137.04 159.927 138.022 161.147 138.022Z" fill="white"/>
<path d="M89.251 136.965C89.8765 134.334 88.2363 131.698 85.5877 131.077C82.939 130.455 80.2849 132.084 79.6595 134.715C79.034 137.346 80.6742 139.982 83.3228 140.604C85.9715 141.225 88.6256 139.596 89.251 136.965Z" fill="white"/>
<path d="M83.7147 133.629L86.4192 135.697C86.5026 135.76 86.5026 135.887 86.4192 135.955L83.7147 138.022C83.6068 138.105 83.4497 138.027 83.4497 137.895V133.761C83.4497 133.625 83.6068 133.551 83.7147 133.629Z" fill="#854DCE"/>
<path d="M17.7481 182.016C17.7481 182.016 -6.00773 150.142 1.44788 143.336C8.90348 136.525 19.7948 160.506 17.7481 182.016Z" fill="#D6D4FF"/>
<path d="M3.67127 147.109C7.00396 152.18 9.8311 157.562 12.0791 163.193C14.1013 168.258 15.6768 173.504 16.8499 178.828C17.1493 180.183 17.4094 181.538 17.6695 182.903C17.9199 184.2 18.1113 185.511 18.3812 186.808C18.4156 186.969 18.6905 186.935 18.6757 186.769C18.4892 184.375 18.018 181.982 17.537 179.632C17.0069 177.048 16.3787 174.479 15.6523 171.939C14.0718 166.42 11.9956 161.028 9.37464 155.914C7.77946 152.804 5.99778 149.801 3.98049 146.944C3.84306 146.758 3.54857 146.924 3.67127 147.109Z" fill="#7878C4"/>
<path d="M3.05778 151.473C4.05906 152.17 5.07506 152.848 6.0518 153.579C6.56716 153.964 7.07271 154.354 7.57335 154.759C8.02491 155.124 8.47647 155.597 9.00165 155.86C9.10963 155.914 9.25197 155.802 9.17834 155.685C8.86422 155.197 8.32922 154.817 7.88748 154.447C7.39175 154.032 6.89111 153.628 6.37574 153.238C5.37446 152.487 4.33883 151.756 3.20503 151.219C3.03324 151.136 2.90072 151.366 3.05778 151.473Z" fill="#7878C4"/>
<path d="M3.79399 153.384C4.79526 154.081 5.81127 154.759 6.78801 155.49C7.30337 155.875 7.80892 156.265 8.30956 156.67C8.76111 157.035 9.21267 157.508 9.73785 157.771C9.84583 157.825 9.98817 157.713 9.91455 157.596C9.60042 157.108 9.06542 156.728 8.62368 156.358C8.12795 155.943 7.62731 155.539 7.11195 155.149C6.11067 154.398 5.07503 153.667 3.94123 153.13C3.76944 153.047 3.63692 153.272 3.79399 153.384Z" fill="#7878C4"/>
<path d="M22.5975 178.364C22.5975 178.364 45.4993 145.881 37.867 139.27C30.2347 132.664 19.9814 156.918 22.5975 178.364Z" fill="#D6D4FF"/>
<path d="M35.4423 142.936C31.82 148.372 28.9782 154.31 26.8038 160.453C24.8602 165.937 23.4564 171.598 22.5091 177.331C22.2735 178.749 22.0625 180.173 21.8956 181.601C21.7385 182.971 21.5716 184.346 21.5275 185.721C21.5226 185.887 21.7974 185.931 21.822 185.76C22.1999 183.288 22.4551 180.802 22.8527 178.335C23.2895 175.629 23.8245 172.938 24.4724 170.276C25.9105 164.333 27.8738 158.512 30.4261 152.95C31.982 149.562 33.7686 146.276 35.7417 143.107C35.8595 142.922 35.565 142.751 35.4423 142.936Z" fill="#7878C4"/>
<path d="M23.265 162.808C23.2012 164.246 23.2895 165.699 23.3828 167.132C23.4269 167.785 23.4858 168.434 23.5447 169.087C23.5987 169.667 23.5938 170.345 23.8 170.9C23.8392 171.003 24.0258 171.037 24.0454 170.9C24.1386 170.335 24.0258 169.711 23.9865 169.14C23.9374 168.473 23.8981 167.805 23.854 167.137C23.7558 165.694 23.7116 164.246 23.5595 162.812C23.5398 162.622 23.2748 162.617 23.265 162.808Z" fill="#0E7C74"/>
<path d="M20.8059 166.849C20.8059 166.849 -2.24311 134.468 5.35974 127.828C12.9626 121.178 23.3239 145.388 20.8059 166.849Z" fill="#A29EE5"/>
<path d="M7.50465 131.65C9.73789 135.185 11.7257 138.87 13.424 142.688C15.029 146.29 16.3935 150 17.5273 153.779C18.5629 157.235 19.412 160.745 20.0844 164.29C20.6832 167.449 21.1446 170.627 21.4686 173.826C21.7385 176.502 21.9201 179.183 22.0625 181.865C22.0772 182.162 22.1017 182.455 22.1214 182.747C22.1361 182.937 22.4159 182.942 22.4208 182.747C22.4846 180.119 22.2981 177.467 22.0674 174.849C21.7876 171.685 21.3753 168.536 20.8305 165.406C20.2121 161.862 19.4169 158.352 18.4304 154.895C17.3604 151.161 16.0695 147.485 14.5234 143.916C12.8644 140.084 10.9453 136.35 8.68753 132.83C8.39795 132.376 8.09855 131.923 7.79914 131.47C7.68135 131.294 7.38685 131.46 7.50465 131.65Z" fill="#7878C4"/>
<path d="M19.4268 176.292C19.4268 176.292 33.6115 156.928 29.0763 152.857C24.5411 148.782 18.0819 163.315 19.4268 176.292Z" fill="#8C8CDD"/>
<path d="M27.5106 155.007C24.6786 159.049 22.5877 163.583 21.1005 168.268C19.844 172.231 19.0292 176.326 18.5678 180.456C18.3715 182.24 18.1801 184.078 18.2586 185.877C18.2684 186.072 18.5335 186.062 18.558 185.877C18.7494 184.302 18.823 182.713 18.9948 181.138C19.1961 179.247 19.4807 177.365 19.839 175.498C20.6931 171.091 21.9888 166.761 23.7951 162.647C24.9289 160.058 26.2885 157.562 27.81 155.178C27.9278 154.993 27.6333 154.832 27.5106 155.007Z" fill="#7878C4"/>
<path d="M28.934 175.356L28.8211 176.097L28.5855 177.672L26.3228 192.776H12.8055L10.5379 177.672L10.3072 176.097L10.1943 175.356H28.934Z" fill="#BFB8F4"/>
<path d="M28.8211 176.097L28.5855 177.672H10.5379L10.3073 176.097H28.8211Z" fill="#7878C4"/>
<path d="M29.1941 176.78H9.92932C9.31088 176.78 8.81024 176.283 8.81024 175.668C8.81024 175.054 9.31088 174.557 9.92932 174.557H29.1941C29.8126 174.557 30.3132 175.054 30.3132 175.668C30.3132 176.283 29.8126 176.78 29.1941 176.78Z" fill="#A29EE5"/>
<path d="M37.3958 120.54V130.524C37.3958 130.675 37.3467 130.816 37.2632 130.929C37.1356 131.114 36.9246 131.231 36.6841 131.231H21.9152C21.7238 131.231 21.552 131.153 21.4244 131.041V121.768C21.4244 121.432 21.7041 121.159 22.0477 121.159H32.4286C32.7673 121.159 33.0422 120.881 33.0422 120.54C33.0422 120.198 33.317 119.92 33.6557 119.92H36.7724C37.116 119.92 37.3958 120.198 37.3958 120.54Z" fill="#383493"/>
<path d="M37.2682 130.929C37.1406 131.114 36.9295 131.231 36.689 131.231H21.9152C21.7238 131.231 21.552 131.153 21.4244 131.041C21.3655 130.982 21.3066 130.909 21.2771 130.831C21.2673 130.816 21.2624 130.797 21.2575 130.782L17.969 123.328C17.7972 122.938 18.0868 122.504 18.5138 122.504H33.16C33.3956 122.504 33.6115 122.641 33.7048 122.855L36.7823 129.832L37.2682 130.929Z" fill="#5146AF"/>
<path d="M4.93274 192.995H301.331" stroke="#5730A0" stroke-width="2" stroke-miterlimit="10" stroke-linecap="round" stroke-linejoin="round"/>
<path d="M107.205 70.5052H35.2361C34.8484 70.5052 34.5342 70.1932 34.5342 69.8081V16.6342C34.5342 15.4251 35.5208 14.4501 36.7331 14.4501H104.648C106.45 14.4501 107.912 15.9029 107.912 17.6921V69.8081C107.912 70.1932 107.593 70.5052 107.205 70.5052Z" fill="#D6D4FF"/>
<path d="M103.716 67.7848H38.8093C38.0436 67.7848 37.4203 67.1657 37.4203 66.4052V57.0935C37.4203 56.333 38.0436 55.7138 38.8093 55.7138H103.716C104.481 55.7138 105.105 56.333 105.105 57.0935V66.4052C105.1 67.1657 104.481 67.7848 103.716 67.7848Z" fill="white"/>
<path d="M104.216 53.7198H38.3038C37.8179 53.7198 37.4203 53.3249 37.4203 52.8423V49.7027C37.4203 49.22 37.8179 48.8251 38.3038 48.8251H104.216C104.702 48.8251 105.1 49.22 105.1 49.7027V52.8423C105.1 53.3249 104.707 53.7198 104.216 53.7198Z" fill="white"/>
<path opacity="0.31" d="M76.8255 23.9128H38.2125C37.6137 23.9128 37.1229 23.4302 37.1229 22.8305C37.1229 22.2358 37.6088 21.7482 38.2125 21.7482H76.8304C77.4292 21.7482 77.9201 22.2309 77.9201 22.8305C77.9152 23.4302 77.4292 23.9128 76.8255 23.9128Z" fill="white"/>
<path opacity="0.31" d="M76.8235 28.3785H38.2105C37.6117 28.3785 37.1208 27.8959 37.1208 27.2962C37.1208 26.7015 37.6068 26.2139 38.2105 26.2139H76.8284C77.4273 26.2139 77.9181 26.6966 77.9181 27.2962C77.9132 27.8959 77.4273 28.3785 76.8235 28.3785Z" fill="white"/>
<path opacity="0.31" d="M76.8235 32.8442H38.2105C37.6117 32.8442 37.1208 32.3616 37.1208 31.7619C37.1208 31.1671 37.6068 30.6796 38.2105 30.6796H76.8284C77.4273 30.6796 77.9181 31.1623 77.9181 31.7619C77.9132 32.3616 77.4273 32.8442 76.8235 32.8442Z" fill="white"/>
<path opacity="0.31" d="M76.8235 37.3099H38.2105C37.6117 37.3099 37.1208 36.8273 37.1208 36.2276C37.1208 35.6328 37.6068 35.1453 38.2105 35.1453H76.8284C77.4273 35.1453 77.9181 35.628 77.9181 36.2276C77.9132 36.8224 77.4273 37.3099 76.8235 37.3099Z" fill="white"/>
<path opacity="0.31" d="M76.8235 41.7755H38.2105C37.6117 41.7755 37.1208 41.2929 37.1208 40.6933C37.1208 40.0985 37.6068 39.611 38.2105 39.611H76.8284C77.4273 39.611 77.9181 40.0936 77.9181 40.6933C77.9132 41.288 77.4273 41.7755 76.8235 41.7755Z" fill="white"/>
<path opacity="0.31" d="M67.7531 46.2413H38.2056C37.6068 46.2413 37.116 45.7587 37.116 45.159C37.116 44.5642 37.6019 44.0767 38.2056 44.0767H67.7531C68.3519 44.0767 68.8428 44.5594 68.8428 45.159C68.8428 45.7587 68.3519 46.2413 67.7531 46.2413Z" fill="white"/>
<path d="M107.166 12.5975H35.2754C34.8631 12.5975 34.5294 12.929 34.5294 13.3385V18.8085H107.907V13.3336C107.912 12.9241 107.579 12.5975 107.166 12.5975Z" fill="#854DCE"/>
<path d="M97.0209 15.6981C97.0209 16.0686 96.7166 16.3709 96.3436 16.3709C95.9706 16.3709 95.6663 16.0686 95.6663 15.6981C95.6663 15.3276 95.9706 15.0253 96.3436 15.0253C96.7166 15.0253 97.0209 15.3276 97.0209 15.6981Z" fill="white"/>
<path d="M100.388 15.6981C100.388 16.0686 100.084 16.3709 99.7106 16.3709C99.3376 16.3709 99.0333 16.0686 99.0333 15.6981C99.0333 15.3276 99.3376 15.0253 99.7106 15.0253C100.089 15.0253 100.388 15.3276 100.388 15.6981Z" fill="white"/>
<path d="M103.76 15.6981C103.76 16.0686 103.456 16.3709 103.083 16.3709C102.71 16.3709 102.405 16.0686 102.405 15.6981C102.405 15.3276 102.71 15.0253 103.083 15.0253C103.456 15.0253 103.76 15.3276 103.76 15.6981Z" fill="white"/>
<path d="M105.1 22.4503V45.5344C105.1 45.9244 104.781 46.2413 104.388 46.2413H81.398C81.0152 46.2413 80.6962 45.9244 80.6962 45.5344V22.4503C80.6962 22.07 81.0152 21.7531 81.398 21.7531H104.388C104.786 21.7531 105.1 22.07 105.1 22.4503Z" fill="white"/>
<path d="M105.1 41.21V45.5344C105.1 45.9244 104.781 46.2413 104.388 46.2413H92.9864L93.4723 41.21L98.837 35.3159L105.1 41.21Z" fill="#6C3DB7"/>
<path d="M101.91 46.2413H81.4029C81.0201 46.2413 80.701 45.9244 80.701 45.5344V41.2101L88.726 32.8442L101.91 46.2413Z" fill="#854DCE"/>
<path d="M101.875 28.3786C101.875 29.9289 100.609 31.1867 99.048 31.1867C97.4872 31.1867 96.2209 29.9289 96.2209 28.3786C96.2209 26.8282 97.4872 25.5704 99.048 25.5704C100.609 25.5704 101.875 26.8234 101.875 28.3786Z" fill="#854DCE"/>
<path d="M139.634 122.26L131.963 109.185L119.766 110.141L116.438 113.154C116.011 112.661 116.104 112.773 115.77 112.403C113.198 109.541 107.176 104.783 102.4 99.8832C96.9768 94.3206 92.9177 88.7531 92.9177 88.7531L91.9508 89.2309C91.9557 88.719 91.9557 88.3924 91.9557 88.3924L87.661 82.6884L82.4582 82.352L78.5955 87.0176L78.7967 89.5137C78.7967 89.5137 78.8605 93.3553 81.884 93.7453C82.792 93.8624 85.0841 94.2962 85.8106 94.7886C87.8818 96.1976 89.5163 98.1477 90.6599 100.366C94.0711 107.006 99.0382 116.474 103.706 124.591C103.706 124.591 103.883 124.932 104.241 125.459C105.866 128.028 110.897 135.463 115.01 135.809C119.992 136.238 139.634 122.26 139.634 122.26Z" fill="#F7B59C"/>
<path d="M157.113 53.3152C157.113 53.3152 158.752 50.8825 161.005 50.3072C163.258 49.7271 158.531 55.5091 158.531 55.5091C158.531 55.5091 157.26 56.0697 157.113 55.9771C156.965 55.8796 157.113 53.3152 157.113 53.3152Z" fill="#01263A"/>
<path d="M199.093 35.9497C199.093 35.9497 215.162 41.6781 196.03 58.1465L193.149 57.2739L199.093 35.9497Z" fill="#003051"/>
<path d="M158.453 85.5209C166.119 94.7984 176.368 96.2853 176.368 96.2853C194.17 95.9489 197.203 86.2083 197.203 86.2083L187.259 84.0144C187.259 84.0144 186.96 71.1195 192.471 63.168C196.604 63.9578 198.538 57.4835 197.404 55.7479C196.172 53.8612 194.788 54.1099 194.788 54.1099C193.615 55.3726 192.55 58.3464 192.025 59.8139L167.224 72.5528C167.224 72.5528 167.523 73.1671 167.891 74.3225C168.274 75.5267 168.73 77.3256 169 79.6511C169.162 81.0747 169.256 82.6884 169.216 84.4922L158.453 85.5209ZM190.263 62.6269C190.788 61.7347 191.357 60.8377 191.99 59.9309C191.77 60.5598 191.603 61.1253 191.485 61.5885C190.783 62.1735 190.278 62.6074 190.263 62.6269Z" fill="#F7B59C"/>
<path d="M167.896 74.3225C168.279 75.5267 168.735 77.3256 169.005 79.6511C189.659 75.1561 190.248 64.0504 190.248 64.0504L179.646 68.3211L167.896 74.3225Z" fill="#ED9780"/>
<path d="M164.627 29.027C164.627 29.027 160.131 37.3343 163.228 42.8043L170.389 33.5853" fill="#01263A"/>
<path d="M156.74 71.2073C161.501 78.6712 178.939 78.5006 187.126 67.8044C195.308 57.1082 196.643 44.8372 192.555 37.2953C190.277 33.1026 184.839 30.6796 179.489 30.2847C178.046 30.1775 176.618 30.2896 175.234 30.5968C171.975 31.3085 169.005 33.1221 166.801 35.6962C166.6 35.9302 166.414 36.1691 166.227 36.408L164.971 38.0558C164.804 38.2703 164.657 38.4849 164.504 38.714C163.714 39.884 163.096 41.1613 162.688 42.502C162.458 43.1992 162.296 43.9207 162.178 44.6471C161.869 46.6167 161.108 49.1957 159.248 51.4724C155.655 55.8601 151.988 63.7482 156.74 71.2073Z" fill="#F7B59C"/>
<path d="M166.792 35.6962C167.979 36.1886 169.908 36.8419 172.338 37.1295C176.5 37.6268 184.888 38.4507 187.701 41.4928C187.701 41.4928 188.883 42.5508 189.58 44.9396C190.272 47.3285 188.02 36.8224 188.02 36.8224L175.234 30.6016C171.97 31.3134 168.995 33.1221 166.792 35.6962Z" fill="#ED9780"/>
<path d="M191.127 48.2645C191.127 48.2645 191.087 59.0826 185.325 61.9444C179.568 64.8061 175.622 61.2765 172.991 59.4093C171.479 58.3367 170.944 61.0912 170.944 61.0912C170.944 61.0912 173.948 66.0493 175.45 66.0493C176.952 66.0493 183.004 65.9664 183.465 65.6739C183.926 65.3814 187.387 63.7238 187.387 63.7238C187.387 63.7238 189.767 59.6871 189.934 59.2581C190.101 58.834 192.815 54.2318 192.687 53.6516C192.56 53.0715 192.604 49.2591 192.604 49.2591L191.127 48.2645Z" fill="#ED9780"/>
<path d="M164.784 14.845C163.424 15.1082 162.197 17.8773 161.643 19.1157C160.848 20.9 159.326 25.156 162.786 29.9191C166.708 35.316 175.18 35.3306 181.506 36.9443C187.126 38.3825 189.924 41.9804 189.556 46.0804C189.453 47.2017 189.855 48.3133 190.601 49.1616L190.719 49.2981C191.411 50.0879 191.696 51.1506 191.485 52.1793C190.827 55.4213 188.761 62.0711 183.691 63.558C179.308 64.8451 177.511 63.207 176.79 62.661C174.242 60.7353 172.799 58.6 167.822 56.1867C165.236 54.9338 162.448 55.1044 158.821 54.5828C158.143 54.4853 157.211 54.3975 157.108 53.3104C157.108 53.3104 149.186 62.544 154.727 72.1384C156.121 74.5516 158.418 76.2872 161.142 76.9405C164.868 77.8327 171.052 78.3494 178.247 75.122C190.017 69.8373 193.9 57.7712 195.461 53.9783C197.026 50.1854 201.095 39.9669 198.062 30.5578C196.187 24.7514 190.258 19.8372 180.564 19.4082C173.815 19.1108 168.809 14.0698 164.784 14.845Z" fill="#003051"/>
<path d="M172.485 61.9151C172.485 61.9151 172.318 62.2271 171.985 62.661C170.924 64.0407 168.132 66.6392 163.375 64.3429C161.883 63.6214 161.123 62.6512 160.774 61.6665C160.048 59.6237 161.127 57.5225 161.127 57.5225C161.127 57.5225 162.89 58.6731 165.29 59.7895C167.361 60.7645 169.918 61.7152 172.21 61.8956C172.304 61.9053 172.397 61.9102 172.485 61.9151Z" fill="#8D1612"/>
<path d="M172.338 61.4763L172.21 61.8956L171.98 62.661C170.919 64.0407 168.127 66.6391 163.371 64.3429C161.878 63.6214 161.118 62.6512 160.769 61.6664C162.732 59.7944 164.691 59.7895 164.691 59.7895H167.886L172.338 61.4763Z" fill="#FF4C2F"/>
<path d="M161.368 57.5225C161.368 57.5225 160.038 59.1703 160.033 59.6384C160.028 60.3696 168.799 64.4599 169.265 64.4892C169.737 64.5185 170.551 62.8414 170.551 62.8414L166.998 60.7402" fill="#FAFFF7"/>
<path d="M161.8 39.8694C161.594 40.3325 161.761 39.8987 161.569 40.5568C161.378 41.2296 161.81 41.8341 162.472 42.0681C164.117 42.6532 169.098 44.6081 169.098 44.6081C169.619 44.9055 169.628 44.3497 169.466 44.0182C168.814 42.658 168.156 40.9663 163.434 39.377C162.777 39.1527 162.085 39.2356 161.8 39.8694Z" fill="#003051"/>
<path d="M185.217 49.2396C185.021 49.7076 185.222 49.2883 184.873 49.8782C184.515 50.4779 183.774 50.5802 183.146 50.2682C181.59 49.4833 176.731 47.2407 176.731 47.2407C176.152 47.0701 176.554 46.6849 176.912 46.5679C178.355 46.1048 180.044 45.4125 184.451 47.7234C185.07 48.0403 185.487 48.596 185.217 49.2396Z" fill="#003051"/>
<path d="M159.346 57.8394C159.346 57.8394 162.109 61.3301 165.947 60.2624C165.947 60.2624 165.982 63.1144 172.431 64.0504L172.995 61.8176C172.995 61.8176 168.848 59.6189 168.573 59.7846C168.298 59.9504 164.357 58.7365 163.606 58.5999C162.855 58.4586 160.288 56.4695 160.288 56.4695L159.346 57.8394Z" fill="#003051"/>
<path d="M195.402 56.333C195.402 56.333 193.06 59.6432 193.419 61.0912C193.419 61.0912 193.507 60.2526 195.662 60.2673C195.662 60.2673 197.056 58.3416 196.354 56.9034C196.005 56.1867 195.402 56.333 195.402 56.333Z" fill="#ED9780"/>
<path d="M176.952 50.2926C176.215 51.4822 175.911 52.779 177.114 53.7247C177.501 54.027 178.169 53.9003 178.498 53.5834C179.111 53.0032 179.19 52.7253 179.553 52.0477C180.373 50.5022 177.889 48.7715 176.952 50.2926Z" fill="#452E17"/>
<path d="M177.153 50.9849C176.961 51.2969 176.878 51.6381 177.197 51.8868C177.3 51.9648 177.472 51.9307 177.56 51.8478C177.722 51.6966 177.678 51.5358 177.771 51.3603C177.987 50.9556 177.398 50.59 177.153 50.9849Z" fill="white"/>
<path d="M164.122 45.9878C163.513 46.9092 163.243 47.9282 164.171 48.6984C164.47 48.9471 165 48.8593 165.27 48.6156C165.766 48.1719 165.81 47.816 166.109 47.2846C166.792 46.0853 164.897 44.808 164.122 45.9878Z" fill="#452E17"/>
<path d="M164.264 46.5388C164.107 46.7825 164.033 47.0458 164.278 47.2505C164.357 47.3139 164.494 47.2944 164.568 47.231C164.696 47.114 164.666 46.9873 164.745 46.8508C164.926 46.5339 164.47 46.2316 164.264 46.5388Z" fill="white"/>
<path d="M93.0846 89.0213C93.0846 89.0213 86.9297 75.8923 82.635 72.8015C82.635 72.8015 81.1232 73.0355 81.2999 74.8588C81.4766 76.6821 84.0829 78.9198 84.2007 80.6262C84.3185 82.3325 83.1651 82.0985 81.7417 81.7718C80.3183 81.4452 69.8049 75.6339 68.7692 76.1458C67.714 76.6626 68.7987 77.7498 69.5398 78.3397C70.281 78.9296 75.8911 82.4349 75.8911 82.4349C75.8911 82.4349 65.7801 76.921 65.0242 78.8418C64.5334 80.085 73.9376 84.8773 73.9376 84.8773C73.9376 84.8773 65.8586 80.3824 65.4905 82.0497C65.1764 83.4733 72.0185 86.6617 72.0185 86.6617C72.0185 86.6617 67.7876 84.4629 67.4735 85.4282C67.071 86.6519 72.9461 89.8208 74.6444 90.9226C76.3475 92.0293 80.495 93.7941 82.1392 93.7502C83.7835 93.7063 85.0007 93.5455 85.9039 94.4571" fill="#F7B59C"/>
<path d="M205.689 117.137L209.086 129.622H147.394C147.399 126.395 147.222 122.543 146.967 118.741L133.695 126.814C129.356 118.273 119.898 110.146 119.766 110.141C128.978 101.161 140.277 90.9957 146.432 86.7543C149.377 84.7213 163.523 83.9023 165.358 83.7219C166.958 83.561 168.372 82.625 169.143 81.2209C169.143 81.2209 171.111 85.7646 174.321 87.4075C175.194 87.7634 175.273 92.9165 176.363 92.8873C176.687 92.8775 179.072 87.4953 179.381 87.4466C179.381 87.4466 183.18 86.8079 187.377 80.5286L188.128 81.5476C188.815 82.4787 189.801 83.132 190.93 83.3953C193.07 83.8974 196.904 84.9066 200.668 86.4179C205.959 88.5386 211.785 98.6254 211.785 98.6254L213.096 117.137L205.321 116.786L205.689 117.137Z" fill="white"/>
<path d="M200.01 113.963L201.478 129.622H209.086L207.736 119.418L200.01 113.963Z" fill="#F4F4F4"/>
<path d="M222.706 111.496L229.578 129.622H209.086L205.689 122.26" fill="#F7B59C"/>
<path d="M192.697 83.834C192.697 83.834 208.403 86.0913 213.096 90.7325C215.437 93.0482 217.356 97.4846 220.291 104.139C225.096 115.026 227.364 120.959 227.364 120.959C227.364 120.959 215.476 129.169 203.564 126.731L197.728 110.033L192.697 83.834Z" fill="white"/>
<path d="M169.435 48.7077C170.463 46.1812 169.44 43.3883 167.15 42.4694C164.86 41.5506 162.171 42.8538 161.143 45.3802C160.116 47.9067 161.139 50.6996 163.428 51.6185C165.718 52.5373 168.407 51.2341 169.435 48.7077Z" stroke="white" stroke-miterlimit="10"/>
<path d="M181.541 53.591C182.569 51.0645 181.546 48.2716 179.256 47.3527C176.966 46.4339 174.277 47.7371 173.249 50.2635C172.222 52.79 173.245 55.5829 175.535 56.5018C177.824 57.4206 180.513 56.1174 181.541 53.591Z" stroke="white" stroke-miterlimit="10"/>
<path d="M169.56 48.3767C169.56 48.3767 172.24 48.0939 173.251 50.2682" stroke="white" stroke-miterlimit="10"/>
<path d="M181.713 53.1251L195.465 53.9832" stroke="white" stroke-miterlimit="10" stroke-linecap="round"/>
<path d="M150.761 129.622H147.394C147.399 126.395 147.222 122.543 146.967 118.741L149.696 117.224C149.696 117.224 150.84 126.18 150.761 129.622Z" fill="#F4F4F4"/>
<path d="M170.949 49.7027C170.949 49.7027 167.366 52.4572 166.978 53.8954C166.747 54.7437 168.185 55.6846 168.185 55.6846" stroke="#ED9780" stroke-miterlimit="10" stroke-linecap="round"/>
<path d="M72.2246 145.613C72.2246 145.613 73.6971 150.707 68.1802 150.702C67.3998 150.702 66.7372 150.498 66.1777 150.225C64.1407 149.25 63.6696 145.856 63.6696 145.856C65.3923 145.418 64.7886 142.946 64.7886 142.946L70.9141 143.087C70.9141 143.087 70.6098 144.677 71.0564 145.13C71.8369 145.925 72.2246 145.613 72.2246 145.613Z" fill="#F7B59C"/>
<path d="M64.0131 145.476C64.0131 145.476 63.6695 149.996 67.9495 149.996C71.8221 149.996 71.8712 147.002 71.5816 145.354C76.0039 145.744 80.8385 147.519 83.3123 149.532C86.2425 153.296 88.2745 159.059 88.2745 159.059C88.2745 159.059 86.8806 159.707 85.5259 160.107C84.0829 160.536 83.0178 161.194 83.0178 161.194L81.2852 184.444H54.1967L53.7353 161.179C53.7353 161.179 51.9536 160.755 50.5155 160.287C48.4099 159.6 47.6196 158.932 47.6196 158.932C47.6196 158.932 49.2492 154.169 51.6984 150.249C54.1868 147.958 58.8448 146.076 64.0131 145.476Z" fill="#5146AF"/>
<path d="M48.1006 159.195C48.1006 159.195 45.5189 168.273 45.7545 172.607C45.995 176.941 56.3121 183.01 56.3121 183.01L57.6618 178.438C57.6618 178.438 53.3769 176.624 52.7389 173.314C52.1057 170.003 55.7034 161.696 55.7034 161.696C55.7034 161.696 54.1132 161.233 51.9388 160.643C49.8283 160.068 48.1006 159.195 48.1006 159.195Z" fill="#F7B59C"/>
<path d="M87.9604 159.195C87.9604 159.195 90.5421 168.273 90.3065 172.607C90.0709 176.941 79.7489 183.01 79.7489 183.01L78.3992 178.438C78.3992 178.438 82.684 176.624 83.3221 173.314C83.9553 170.003 80.2348 161.496 80.2348 161.496C80.2348 161.496 81.9527 161.111 84.1222 160.521C86.2327 159.951 87.9604 159.195 87.9604 159.195Z" fill="#F7B59C"/>
<path d="M84.5933 184.814H51.1192L50.3584 163.983C50.3388 163.441 50.7756 162.993 51.3204 162.993H84.3921C84.9369 162.993 85.3737 163.441 85.3541 163.983L84.5933 184.814Z" fill="#9999EF"/>
<path d="M81.9085 189.582C81.9085 189.582 82.6202 188.749 84.2792 188.7C85.3541 188.671 88.3972 189.353 89.85 189.329C91.3029 189.304 92.8097 188.987 93.6441 190.221C95.0577 192.307 94.449 194.194 92.0685 194.477C90.7728 194.633 89.7028 193.78 87.6462 193.985C85.6535 194.18 82.5466 193.521 81.6385 192.108" fill="#4C4051"/>
<path d="M79.0961 188.612C79.0961 188.612 80.7011 189.065 81.7662 189.124C82.8313 189.182 85.2216 188.919 86.3014 189.592C87.4696 190.323 87.0377 192.303 86.2965 192.771C85.0989 193.526 84.132 193.136 81.9429 192.449C79.7538 191.761 77.1868 192.025 77.1868 192.025" fill="#F7B59C"/>
<path d="M82.3601 193.356C82.3601 193.356 57.5441 192.912 50.9327 192.049C48.1546 191.683 45.5434 191.089 43.3642 190.206C40.3898 188.446 39.3002 184.258 41.3224 180.397C42.2647 178.598 45.1753 178.92 45.5778 178.92C45.6809 178.92 45.7349 178.925 45.7349 178.925C53.7794 179.237 61.1123 181.28 69.3974 184.57C77.1083 187.627 83.003 188.9 83.003 188.9C83.4399 192.044 82.3601 193.356 82.3601 193.356Z" fill="#0052A3"/>
<path d="M88.3383 190.655C88.3383 190.655 87.6806 190.289 87.4597 190.684C87.2389 191.074 87.1211 192.741 87.234 192.995C87.4401 193.458 88.4021 193.292 88.4021 193.292L89.1874 191.186L88.3383 190.655Z" fill="#4C4051"/>
<path d="M54.2801 189.616C54.2801 189.616 53.5439 188.744 51.8211 188.695C50.7069 188.661 47.5411 189.358 46.0343 189.329C44.5275 189.299 43.0452 188.973 42.0832 189.982C40.272 191.878 41.9555 194.258 44.4293 194.56C45.7742 194.726 46.1717 193.955 48.3068 194.175C50.3781 194.384 53.6077 193.711 54.5501 192.244" fill="#594A5F"/>
<path d="M57.2005 188.617C57.2005 188.617 55.5317 189.085 54.4274 189.139C53.323 189.192 50.8395 188.909 49.7155 189.607C48.4982 190.362 48.94 192.42 49.7106 192.907C50.9524 193.697 51.9585 193.292 54.2311 192.59C56.5085 191.888 59.1736 192.166 59.1736 192.166" fill="#F7B59C"/>
<path d="M92.9668 190.119L92.9619 190.123C90.6943 191.094 87.9309 191.732 84.9664 192.117C78.3501 192.956 53.5243 193.312 53.5243 193.312C53.5243 193.312 52.4493 191.986 52.896 188.846C52.896 188.846 58.8006 187.598 66.5212 184.571C74.6345 181.397 81.83 179.383 89.6586 179.027C91.19 179.179 92.9619 179.851 94.2135 182.455C95.8774 185.906 94.5865 189.514 92.9668 190.119Z" fill="#0058C4"/>
<path d="M48.9989 189.87C48.9989 189.87 49.8382 189.407 50.1179 189.909C50.3977 190.411 50.5401 192.537 50.3928 192.858C50.1278 193.443 48.9007 193.229 48.9007 193.229L47.9092 190.538L48.9989 189.87Z" fill="#594A5F"/>
<path d="M75.0468 131.109C75.0468 131.109 77.3439 130.875 74.7376 136.793C73.756 139.021 73.4026 138.875 73.3879 138.982C73.3731 139.09 72.5093 138.241 72.5093 137.866C72.5093 137.491 72.5485 134.565 72.5829 134.414C72.6222 134.263 75.0468 131.109 75.0468 131.109Z" fill="#2C1E56"/>
<path d="M61.4903 132.464C61.4903 132.464 59.7086 131.972 60.4301 135.502C60.916 137.886 62.1824 138.88 62.1971 138.987C62.2118 139.095 63.0757 138.246 63.0757 137.871C63.0757 137.495 63.0364 134.57 63.002 134.419C62.9628 134.263 61.4903 132.464 61.4903 132.464Z" fill="#2C1E56"/>
<path d="M61.9762 136.876C61.9762 136.876 61.2203 136.15 61.0093 137.12C60.7982 138.085 61.5884 140.591 62.5897 139.626" fill="#E5A18C"/>
<path d="M73.6332 136.876C73.6332 136.876 74.3891 136.15 74.6002 137.12C74.8112 138.085 74.021 140.591 73.0197 139.626" fill="#E5A18C"/>
<path d="M68.0379 144.565C68.0379 144.565 68.0183 144.565 67.979 144.565C67.2771 144.608 61.0436 144.667 61.8339 133.415H73.7069C73.7118 133.415 75.1499 143.892 68.0379 144.565Z" fill="#F7B59C"/>
<path d="M72.092 127.106C74.3302 127.765 75.7732 130.573 74.6688 132.796C73.5645 135.019 70.0109 136.311 66.0353 135.472C63.694 134.98 62.9431 134.044 61.5393 134.112C60.4595 134.166 59.4779 133.512 59.1 132.508C58.5895 131.143 58.2901 129.295 59.7135 128.194C63.591 129.3 68.7348 126.122 72.092 127.106Z" fill="#2C1E56"/>
<path d="M69.7704 173.241C69.7704 174.42 68.8084 175.381 67.6157 175.381C66.4279 175.381 65.461 174.425 65.461 173.241C65.461 172.061 66.423 171.1 67.6157 171.1C68.8035 171.1 69.7704 172.061 69.7704 173.241Z" fill="#D1DEFF"/>
<path d="M64.8819 143.643C64.8819 143.643 65.2206 143.867 65.7703 144.072C66.3151 144.287 67.0906 144.452 67.8563 144.413C68.2588 144.399 68.622 144.34 68.9852 144.257C69.3386 144.175 69.6723 144.077 69.9423 143.965C70.4969 143.755 70.8454 143.56 70.8454 143.56C70.8454 143.56 70.5509 143.838 70.011 144.121C69.741 144.257 69.4171 144.409 69.049 144.516C68.6907 144.628 68.2637 144.696 67.871 144.716C67.4538 144.73 67.0464 144.691 66.6685 144.599C66.2955 144.511 65.9666 144.365 65.6918 144.228C65.1568 143.941 64.8819 143.643 64.8819 143.643Z" fill="#EAA18B"/>
<path d="M65.304 138.168C65.3481 138.573 65.3825 139.046 64.9407 139.099C64.7297 139.124 64.5383 138.968 64.4892 138.846C64.4008 138.617 64.445 138.495 64.4352 138.271C64.4107 137.764 65.2451 137.656 65.304 138.168Z" fill="#452E17"/>
<path d="M65.0978 138.51C65.1174 138.612 65.1076 138.714 64.9947 138.748C64.9604 138.758 64.9162 138.734 64.9015 138.7C64.872 138.641 64.9015 138.602 64.8917 138.544C64.872 138.417 65.0733 138.378 65.0978 138.51Z" fill="white"/>
<path d="M70.7521 138.168C70.7962 138.573 70.8306 139.046 70.3889 139.099C70.1778 139.124 69.9864 138.968 69.9373 138.846C69.849 138.617 69.8931 138.495 69.8833 138.271C69.8588 137.764 70.6932 137.656 70.7521 138.168Z" fill="#452E17"/>
<path d="M70.5459 138.51C70.5656 138.612 70.5558 138.714 70.4429 138.748C70.4085 138.758 70.3643 138.734 70.3496 138.7C70.3202 138.641 70.3496 138.602 70.3398 138.544C70.3202 138.417 70.5214 138.378 70.5459 138.51Z" fill="white"/>
<path d="M71.4098 136.691C71.4442 136.789 71.4197 136.701 71.4393 136.833C71.4589 136.969 71.3215 137.052 71.1399 137.057C70.6883 137.067 69.314 137.13 69.314 137.13C69.1668 137.154 69.1864 137.052 69.2453 136.998C69.4711 136.789 69.7165 136.516 71.0074 136.506C71.189 136.501 71.3608 136.555 71.4098 136.691Z" fill="#003051"/>
<path d="M63.802 136.691C63.7677 136.789 63.7922 136.701 63.7726 136.833C63.7529 136.969 63.8904 137.052 64.072 137.057C64.5235 137.067 65.8978 137.13 65.8978 137.13C66.0451 137.154 66.0254 137.052 65.9665 136.998C65.7408 136.789 65.4954 136.516 64.2045 136.506C64.0229 136.501 63.8462 136.555 63.802 136.691Z" fill="#003051"/>
<path d="M67.6158 138.914C67.6158 138.914 67.0955 140.05 67.2575 140.274C67.4194 140.499 68.033 140.508 68.033 140.508" stroke="#EAA18B" stroke-width="0.5" stroke-miterlimit="10" stroke-linecap="round"/>
<path d="M66.2267 142.171C66.2267 142.171 67.8709 143.131 69.3385 142.093" stroke="#C9806F" stroke-width="0.5" stroke-miterlimit="10" stroke-linecap="round"/>
<path d="M194.052 191.299V147.383C194.052 147.286 193.973 147.208 193.875 147.208H192.8C192.702 147.208 192.623 147.286 192.623 147.383V191.299C192.344 191.367 192.133 191.601 192.133 191.899C192.133 192.245 192.417 192.528 192.766 192.528H193.909C194.258 192.528 194.543 192.245 194.543 191.899C194.543 191.601 194.331 191.367 194.052 191.299Z" fill="white"/>
<path d="M281.776 191.269H281.742V147.202H280.314V191.269H280.279C280.029 191.269 279.823 191.474 279.823 191.722V192.078C279.823 192.327 280.029 192.532 280.279 192.532H281.781C282.032 192.532 282.238 192.327 282.238 192.078V191.722C282.228 191.474 282.027 191.269 281.776 191.269Z" fill="white"/>
<path d="M292.904 147.641H180.132C179.396 147.641 178.802 147.051 178.802 146.32C178.802 145.588 179.396 144.998 180.132 144.998H292.904C293.64 144.998 294.234 145.588 294.234 146.32C294.234 147.051 293.64 147.641 292.904 147.641Z" fill="#9999F1"/>
<path d="M240.253 143.536H207.702L201.257 123.411C200.933 122.397 201.694 121.363 202.764 121.363H231.997C232.684 121.363 233.298 121.807 233.504 122.46L240.253 143.536Z" fill="#5146AF"/>
<path d="M239.6 143.536H208.772L202.293 123.094C202.17 122.714 202.455 122.324 202.852 122.324H232.385C232.675 122.324 232.935 122.514 233.023 122.792L239.6 143.536Z" fill="white"/>
<path d="M220.173 125.507H205.974C205.763 125.507 205.591 125.337 205.591 125.127C205.591 124.917 205.763 124.747 205.974 124.747H220.173C220.384 124.747 220.556 124.917 220.556 125.127C220.556 125.337 220.384 125.507 220.173 125.507Z" fill="#C2E0F2"/>
<path d="M222.372 127.267H206.538C206.327 127.267 206.155 127.097 206.155 126.887C206.155 126.677 206.327 126.507 206.538 126.507H222.372C222.583 126.507 222.755 126.677 222.755 126.887C222.755 127.097 222.583 127.267 222.372 127.267Z" fill="#C2E0F2"/>
<path d="M220.905 129.022H207.113C206.902 129.022 206.73 128.852 206.73 128.642C206.73 128.432 206.902 128.262 207.113 128.262H220.905C221.116 128.262 221.288 128.432 221.288 128.642C221.288 128.852 221.116 129.022 220.905 129.022Z" fill="#C2E0F2"/>
<path d="M218.608 130.782H207.677C207.466 130.782 207.294 130.612 207.294 130.402C207.294 130.192 207.466 130.022 207.677 130.022H218.608C218.819 130.022 218.991 130.192 218.991 130.402C218.991 130.612 218.819 130.782 218.608 130.782Z" fill="#C2E0F2"/>
<path d="M224.09 132.542H208.256C208.045 132.542 207.873 132.372 207.873 132.162C207.873 131.952 208.045 131.782 208.256 131.782H224.09C224.301 131.782 224.473 131.952 224.473 132.162C224.473 132.372 224.301 132.542 224.09 132.542Z" fill="#C2E0F2"/>
<path d="M222.613 134.302H208.821C208.61 134.302 208.438 134.132 208.438 133.922C208.438 133.712 208.61 133.542 208.821 133.542H222.613C222.824 133.542 222.996 133.712 222.996 133.922C222.996 134.132 222.824 134.302 222.613 134.302Z" fill="#C2E0F2"/>
<path d="M225.788 137.817H209.954C209.743 137.817 209.572 137.647 209.572 137.437C209.572 137.227 209.743 137.057 209.954 137.057H225.788C225.999 137.057 226.171 137.227 226.171 137.437C226.171 137.647 225.999 137.817 225.788 137.817Z" fill="#C2E0F2"/>
<path d="M226.363 139.577H210.529C210.318 139.577 210.146 139.407 210.146 139.197C210.146 138.987 210.318 138.817 210.529 138.817H226.363C226.574 138.817 226.745 138.987 226.745 139.197C226.745 139.407 226.574 139.577 226.363 139.577Z" fill="#C2E0F2"/>
<path d="M234.785 139.577H229.671C229.195 139.577 228.773 139.27 228.63 138.817L224.365 125.41C224.144 124.713 224.669 123.996 225.406 123.996H230.52C230.996 123.996 231.418 124.303 231.56 124.757L235.826 138.163C236.047 138.865 235.521 139.577 234.785 139.577Z" fill="#C2E0F2"/>
<path d="M242.982 144.998H207.584C207.005 144.998 206.538 144.53 206.538 143.96C206.538 143.385 207.01 142.922 207.584 142.922H242.982C243.561 142.922 244.027 143.39 244.027 143.96C244.027 144.535 243.561 144.998 242.982 144.998Z" fill="#5146AF"/>
<path d="M246.496 118.117C246.226 118.117 245.961 117.975 245.824 117.731L244.798 115.937C244.695 115.757 244.67 115.542 244.729 115.343C244.788 115.143 244.926 114.977 245.112 114.879L247.969 113.383C248.337 113.188 248.808 113.329 249.009 113.695L249.986 115.474C250.084 115.655 250.109 115.859 250.05 116.059C249.991 116.254 249.858 116.42 249.677 116.517L246.869 118.029C246.747 118.087 246.624 118.117 246.496 118.117ZM248.322 113.646C248.258 113.646 248.19 113.661 248.131 113.695L245.274 115.191C245.176 115.245 245.102 115.333 245.068 115.44C245.038 115.547 245.048 115.659 245.107 115.762L246.133 117.556C246.246 117.751 246.496 117.819 246.693 117.717L249.5 116.205C249.598 116.152 249.667 116.064 249.701 115.962C249.731 115.854 249.721 115.742 249.667 115.65L248.69 113.87C248.617 113.724 248.469 113.646 248.322 113.646Z" fill="#1A1A47"/>
<path d="M241.122 133.751C240.891 134.044 240.709 134.229 240.709 134.229C240.709 134.229 238.992 132.937 238.515 132.815C238.039 132.698 237.009 132.986 236.439 133.103C235.507 133.293 235.894 132.533 235.894 132.533C235.894 132.533 235.266 132.752 234.716 132.976C234.088 133.23 233.43 133.751 233.244 133.795C232.886 133.878 232.532 133.703 232.866 133.2C233.342 132.494 235.59 130.441 236.15 130.173C236.866 129.837 237.838 129.344 238.618 129.632C239.404 129.919 241.941 131.811 241.941 131.811C242.01 132.464 241.505 133.259 241.122 133.751Z" fill="#F7B59C"/>
<path d="M240.444 134.229C240.444 134.229 248.862 141.542 255.164 142.288C261.461 143.034 272.088 131.163 272.088 131.163C272.088 131.163 271.42 124.839 267.489 125.58C263.557 126.322 258.296 135.726 256.013 136.165C253.731 136.603 241.868 131.611 241.868 131.611C241.868 131.611 241.529 131.845 241.132 132.508C240.709 133.225 240.444 134.229 240.444 134.229Z" fill="#9CA2F2"/>
<path d="M259.169 105.655C257.162 103.374 254.192 103.125 251.9 103.379C248.891 103.71 246.275 105.724 245.412 108.605C245.039 109.848 244.965 111.306 245.549 112.91C247.419 118.039 249.407 120.866 250.933 122.256C251.606 122.865 253.019 122.036 254.443 121.539C254.629 121.476 254.835 121.549 254.934 121.724L255.743 123.216L261.609 122.026C261.609 122.026 260.73 120.179 260.372 118.643C261.138 117.673 262.841 109.834 259.169 105.655Z" fill="#F7B59C"/>
<path d="M248.494 112.973C249.152 112.92 249.775 113.266 250.03 113.87C250.467 114.899 251.134 116.332 251.665 116.8C251.772 116.898 252.008 116.927 252.244 116.805C252.474 116.683 252.523 116.488 252.509 116.357C252.465 115.913 252.131 114.952 251.9 114.314C251.601 113.495 251.954 112.627 252.941 112.408C253.117 112.369 253.569 112.393 253.8 112.461C255.36 112.934 254.286 115.362 254.256 116.634C254.232 117.531 255.311 119.603 255.792 119.794C257.363 120.403 259.739 119.852 261 118.307C262.261 116.761 262.536 111.584 261.844 108.493C261.152 105.397 258.664 103.652 257.839 103.452C257.432 103.354 257.098 103.354 256.857 103.379C256.607 103.403 256.357 103.32 256.17 103.154C255.341 102.438 252.862 100.795 248.936 102.482C244.037 104.583 243.217 109.068 243.306 111.106C243.365 112.427 244.41 112.33 245.132 112.1C245.529 111.974 245.966 112.076 246.28 112.349C246.688 112.686 247.394 113.061 248.494 112.973Z" fill="#0B0B3A"/>
<path d="M254.727 124.001C254.727 124.001 254.207 123.426 254.403 123.07C254.649 122.631 257.309 120.539 260.411 120.652C260.892 120.671 261.486 120.666 262.06 121.919C262.639 123.172 262.777 124.001 262.777 124.001H254.727Z" fill="#9CA2F2"/>
<path d="M268.564 161.311C268.377 161.355 268.171 161.399 267.96 161.442C265.324 161.93 261.039 161.989 261.039 161.989C252.587 161.837 248.837 157.313 247.463 154.978C246.982 154.159 246.791 153.608 246.791 153.608C247.272 153.355 248.96 151.829 249.598 149.752C250.236 147.67 249.564 142.707 248.474 140.815C247.875 139.777 246.094 137.671 244.98 135.448C244.067 133.62 243.591 131.718 244.592 130.266C247.075 126.643 250.997 124.713 250.997 124.713C250.997 124.713 258.188 121.851 264.313 122.499C268.2 122.904 271.661 124.722 272.583 129.583C274.959 142.093 268.564 161.311 268.564 161.311Z" fill="#B0B2FF"/>
<path d="M250.879 186.087C250.879 186.087 250.276 186.794 249.363 186.935C248.347 187.096 247.596 186.608 247.596 186.608L247.125 185.263L250.369 184.561L250.879 186.087Z" fill="#F7B59C"/>
<path d="M233.887 187.759C233.887 187.759 233.18 188.358 232.252 188.358C231.227 188.358 230.559 187.759 230.559 187.759L230.309 186.355H233.637L233.887 187.759Z" fill="#F7B59C"/>
<path d="M250.879 184.566C250.668 184.663 250.02 184.926 249.785 185.009C248.558 185.419 246.815 185.77 246.815 185.77C244.027 179.783 239.477 164.723 239.477 164.723C238.844 162.062 240.754 160.984 242.427 160.882C243.006 160.848 243.561 160.931 243.973 161.106C245.573 161.779 247.924 166.279 247.924 166.279C247.924 166.279 248.641 167.834 249.387 171.047C250.138 174.259 250.879 184.566 250.879 184.566Z" fill="#1A1A47"/>
<path d="M257.177 161.569C257.157 163.085 256.75 165.499 254.467 166.181C251.061 167.195 248.543 166.62 244.592 165.942C241.284 165.377 236.056 163.456 234.456 162.851C234.25 162.773 234.285 162.876 234.329 163.095C235.085 166.766 233.862 186.589 233.862 186.589C233.862 186.589 233.318 186.755 232.734 186.847C232.513 186.881 232.287 186.906 232.086 186.906C231.227 186.906 229.651 186.745 229.651 186.745C229.651 186.745 226.618 172.782 226.142 164.967C225.666 157.152 226.147 155.948 229.872 154.661C234.024 153.228 246.801 153.613 246.801 153.613L246.805 153.618C246.85 153.754 247.748 156.197 250.403 158.405C251.964 159.712 254.168 160.945 257.177 161.569Z" fill="#3D3D72"/>
<path d="M261.039 169.511V189.572C261.039 190.289 260.455 190.869 259.734 190.869C259.444 190.869 259.179 190.777 258.963 190.616C258.639 190.382 258.433 189.997 258.433 189.572V169.511H261.039Z" fill="#94C1F7"/>
<path d="M261.039 170.384V189.519C261.039 190.143 260.539 190.777 259.915 190.855C259.606 190.894 259.321 190.83 259.081 190.694C259.042 190.616 258.993 190.528 258.948 190.45V170.915C258.948 170.623 259.189 170.384 259.483 170.384H261.039Z" fill="#B5D0FF"/>
<path d="M262.689 168.838C262.689 168.936 262.679 169.023 262.654 169.116C262.605 169.316 262.497 169.491 262.36 169.628C262.158 169.833 261.879 169.955 261.565 169.955H257.682C257.064 169.955 256.558 169.457 256.558 168.838C256.558 168.531 256.686 168.248 256.887 168.048C257.093 167.844 257.368 167.722 257.682 167.722H261.565C262.188 167.722 262.689 168.219 262.689 168.838Z" fill="#94C1F7"/>
<path d="M262.649 169.111C262.6 169.311 262.492 169.487 262.355 169.623C262.154 169.828 261.874 169.95 261.56 169.95H257.844C257.893 169.75 257.996 169.574 258.134 169.433C258.34 169.233 258.62 169.106 258.929 169.106H262.649V169.111Z" fill="#B5D0FF"/>
<path d="M276.52 133.834C276.52 133.849 276.515 133.854 276.515 133.863C276.5 133.98 276.476 134.102 276.446 134.244C276.132 135.555 275.018 138.115 274.856 141.961C274.753 144.321 274.851 150.585 274.738 154.373C274.738 154.373 274.738 154.373 274.738 154.378C274.719 154.944 274.699 155.446 274.674 155.885C274.468 159.234 273.32 164.202 269.796 166.717C266.218 169.384 259.022 168.926 254.649 168.828C250.281 168.726 239.453 166.771 238.589 165.172C238.383 164.816 238.344 164.504 238.383 164.251C238.383 164.246 238.383 164.246 238.388 164.236C238.432 163.983 238.555 163.787 238.722 163.622C239.129 163.217 239.757 163.085 240.317 163.227C242.079 163.666 247.331 164.67 249.692 161.696C252.553 158.093 252.19 153.93 253.417 145.159C254.575 136.862 257.181 134.317 261.496 132.659C266.105 130.894 273.516 131.65 275.366 132.206C276.093 132.42 276.589 133.088 276.52 133.834Z" fill="#CFE3FF"/>
<path d="M274.851 192.049C274.851 192.312 274.635 192.522 274.375 192.522H245.092C244.827 192.522 244.616 192.312 244.616 192.049C244.616 191.82 244.783 191.62 245.019 191.581L259.739 189.212L263.439 189.807L274.453 191.581C274.679 191.62 274.851 191.82 274.851 192.049Z" fill="#B5D0FF"/>
<path d="M230.559 187.759C230.559 187.759 231.443 188.105 232.243 188.105C233.2 188.105 233.897 187.759 233.897 187.759C233.897 187.759 235.605 189.919 234.697 192.322C234.648 192.449 234.525 192.532 234.388 192.532H222.947C222.809 192.532 222.691 192.424 222.686 192.283C222.682 192.005 222.794 191.557 223.491 191.347C224.547 191.025 225.636 190.85 226.456 190.562C227.276 190.274 228.449 189.08 229.101 188.861C229.936 188.578 230.559 187.759 230.559 187.759Z" fill="#1A1A47"/>
<path d="M247.591 186.613C247.591 186.613 248.518 186.818 249.304 186.691C250.251 186.54 250.884 186.087 250.884 186.087C250.884 186.087 252.911 187.949 252.401 190.465C252.376 190.596 252.263 190.699 252.131 190.718C252.131 190.718 246.094 192.064 244.057 192.351C242.805 192.527 240.842 192.527 240.842 192.527C240.695 192.532 240.572 192.454 240.547 192.317C240.498 192.039 240.538 191.581 241.19 191.264C242.182 190.781 243.227 190.435 243.988 190.021C244.749 189.607 245.716 188.246 246.329 187.925C247.11 187.52 247.591 186.613 247.591 186.613Z" fill="#1A1A47"/>
<path d="M224.63 143.901C224.63 143.901 223.457 143.419 222.843 143.204C222.598 143.121 222.367 143.058 222.181 143.014C221.921 142.956 221.646 142.931 221.376 142.931H214.71C214.519 142.931 214.362 142.775 214.362 142.58C214.362 142.322 214.494 142.083 214.71 141.942L215.427 141.483L217.562 140.113C218.622 139.436 219.388 139.392 220.649 139.504C220.885 139.524 221.788 139.904 221.96 139.962C223.207 140.372 223.481 140.557 224.311 140.85C224.64 140.967 224.861 141.03 225.008 141.059C225.239 141.108 225.293 141.088 225.293 141.088C225.523 142.77 224.63 143.901 224.63 143.901Z" fill="#F7B59C"/>
<path d="M250.727 128.086C249.853 127.555 247.213 126.102 243.807 131.372C240.4 136.647 239.36 138.895 238.373 140.538C237.18 141.249 225.18 140.942 225.18 140.942C225.18 140.942 224.439 142.527 224.311 143.897C224.311 143.897 230.687 147.041 239.144 147.636C245.696 147.636 252.445 134.921 252.749 133.332C253.059 131.748 252.813 129.354 250.727 128.086Z" fill="#B0B2FF"/>
<path d="M245.205 116.903C245.142 116.903 245.078 116.868 245.048 116.805C245.004 116.717 245.038 116.61 245.127 116.566L251.763 113.188C252.514 112.807 254.05 112.023 255.194 113.685C255.248 113.768 255.228 113.875 255.144 113.929C255.066 113.982 254.953 113.963 254.899 113.88C254.011 112.583 252.95 112.978 251.939 113.49L245.294 116.873C245.259 116.898 245.23 116.903 245.205 116.903Z" fill="#1A1A47"/>
<path d="M251.743 113.539L252.617 116.318C252.617 116.318 253.299 116.971 253.957 116.22C254.614 115.469 255.184 112.861 253.981 112.427C252.779 111.988 252.047 112.608 251.743 113.539Z" fill="#F7B59C"/>
<path opacity="0.5" d="M276.255 132.849C276.25 132.835 276.25 132.83 276.25 132.83C276.044 132.532 275.744 132.313 275.376 132.201C273.526 131.645 266.114 130.89 261.506 132.654C257.191 134.307 254.585 136.852 253.427 145.154C252.2 153.93 252.558 158.088 249.701 161.691C247.336 164.665 242.089 163.661 240.327 163.222C239.762 163.081 239.139 163.207 238.731 163.617C238.565 163.783 238.432 163.987 238.393 164.246C238.349 164.499 238.393 164.811 238.599 165.167C239.468 166.766 250.29 168.721 254.659 168.824C259.027 168.921 266.227 169.384 269.805 166.713C273.33 164.197 274.478 159.229 274.684 155.88C274.709 155.441 274.728 154.939 274.748 154.373C274.674 154.681 272.255 161.452 263.739 159.892C255.532 158.391 254.786 149.449 255.081 146.441C255.12 146.115 255.159 145.798 255.194 145.501C255.267 144.945 255.719 142.585 256.278 140.528C256.646 139.163 257.623 137.076 259.508 135.545C259.744 135.355 260.023 135.224 260.288 135.077C260.367 135.029 260.46 134.98 260.553 134.931C260.676 134.863 260.809 134.804 260.956 134.736C261.098 134.673 261.241 134.614 261.383 134.551C261.486 134.507 261.599 134.463 261.707 134.429C268.372 131.811 275.538 133.512 276.009 133.586C276.446 133.668 276.284 132.976 276.255 132.849Z" fill="#94C1F7"/>
<path d="M94.6061 197.222L95.3374 195.291C95.3374 195.291 106.94 195.837 112.438 199.235L101.968 199.43L94.6061 197.222Z" fill="#E1EFFF"/>
<path d="M130.274 197.222L129.543 195.291C129.543 195.291 117.94 195.837 112.443 199.235L122.912 199.43L130.274 197.222Z" fill="#E1EFFF"/>
<path d="M112.443 199.235C106.16 196.812 94.0122 196.642 94.0122 196.642V200.751H109.748H115.147H130.883V196.642C130.873 196.642 118.725 196.812 112.443 199.235Z" fill="#CCE1FF"/>
<path d="M132.296 199.606H92.5839V201H132.296V199.606Z" fill="#7878FF"/>
<path d="M212.973 50.5217L216.473 48.245C217.199 48.7082 218.063 48.9763 218.991 48.9763H235.84C238.427 48.9763 240.523 46.8946 240.523 44.3254V39.0601C240.523 36.4909 238.427 34.4092 235.84 34.4092H218.991C216.404 34.4092 214.308 36.4909 214.308 39.0601V44.3254C214.308 45.2906 214.607 46.1877 215.113 46.9336L212.973 50.5217ZM218.976 45.9829C218.976 45.7538 219.167 45.5637 219.398 45.5637H235.6C235.831 45.5637 236.022 45.7538 236.022 45.9829C236.022 46.2121 235.831 46.4022 235.6 46.4022H219.398C219.162 46.3973 218.976 46.2121 218.976 45.9829ZM235.6 44.223H227.04C226.809 44.223 226.618 44.0328 226.618 43.8037C226.618 43.5746 226.809 43.3844 227.04 43.3844H235.6C235.831 43.3844 236.022 43.5746 236.022 43.8037C236.017 44.0328 235.831 44.223 235.6 44.223ZM218.976 41.6294C218.976 41.4002 219.167 41.2101 219.398 41.2101H235.6C235.831 41.2101 236.022 41.4002 236.022 41.6294C236.022 41.8585 235.831 42.0486 235.6 42.0486H219.398C219.162 42.0486 218.976 41.8585 218.976 41.6294ZM235.6 39.8694H223.648C223.418 39.8694 223.226 39.6793 223.226 39.4501C223.226 39.221 223.418 39.0309 223.648 39.0309H235.6C235.831 39.0309 236.022 39.221 236.022 39.4501C236.017 39.6842 235.831 39.8694 235.6 39.8694ZM218.976 37.2758C218.976 37.0467 219.167 36.8565 219.398 36.8565H235.6C235.831 36.8565 236.022 37.0467 236.022 37.2758C236.022 37.5049 235.831 37.6951 235.6 37.6951H219.398C219.162 37.6951 218.976 37.5049 218.976 37.2758Z" fill="#B5D0FF"/>
<path d="M67.6158 92.7167H64.6708" stroke="#9ACEE2" stroke-miterlimit="10" stroke-linecap="round"/>
<path d="M62.2462 92.7167H43.3004C42.2108 92.7167 41.3224 93.5942 41.3224 94.6814V169.14C41.3224 169.379 41.3666 169.613 41.4451 169.823" stroke="#9ACEE2" stroke-miterlimit="10" stroke-linecap="round" stroke-dasharray="11.86 11.86"/>
<path d="M42.1813 170.759C42.5004 170.974 42.8832 171.1 43.2955 171.1H45.0576" stroke="#9ACEE2" stroke-miterlimit="10" stroke-linecap="round"/>
<path d="M238.584 67.7849H241.529" stroke="#9ACEE2" stroke-miterlimit="10" stroke-linecap="round"/>
<path d="M243.949 67.7849H285.124C287.043 67.7849 288.594 69.3303 288.594 71.2316V131.601C288.594 133.508 287.038 135.048 285.124 135.048H283.971" stroke="#9ACEE2" stroke-miterlimit="10" stroke-linecap="round" stroke-dasharray="11.84 11.84"/>
<path d="M282.763 135.053H279.818" stroke="#9ACEE2" stroke-miterlimit="10" stroke-linecap="round"/>
<path d="M110.857 21.7531H138.893C142.025 21.7531 144.567 24.2785 144.567 27.3889V53.9831" stroke="#9ACEE2" stroke-miterlimit="10" stroke-linecap="round" stroke-dasharray="12 12"/>
<path d="M196.584 139.86C196.584 139.86 193.33 137.968 192.624 134.249C192.624 134.249 195.691 134.878 197.227 139.86" fill="white"/>
<path d="M197.866 139.86C197.866 139.86 201.12 137.968 201.826 134.249C201.826 134.249 198.759 134.878 197.223 139.86" fill="white"/>
<path d="M196.884 139.553C196.884 139.553 194.538 136.618 195.23 132.903C195.23 132.903 197.861 134.59 197.483 139.787" fill="white"/>
<path d="M197.645 139.567C197.645 139.567 199.922 136.579 199.142 132.879C199.142 132.879 196.55 134.629 197.051 139.811" fill="white"/>
<path d="M200.693 139.104H193.6V144.998H200.693V139.104Z" fill="#CFE3FF"/>
<path opacity="0.5" d="M195.711 139.104H193.6V144.998H195.711V139.104Z" fill="#94C1F7"/>
<g opacity="0.5">
<g opacity="0.5">
<g opacity="0.5">
<path opacity="0.5" d="M266.06 103.808L262.85 105.509L264.455 101.365" fill="#389FE5"/>
</g>
<path opacity="0.5" d="M276.014 98.5084C276.014 102.228 272.976 105.246 269.231 105.246C265.486 105.246 262.448 102.228 262.448 98.5084C262.448 94.7886 265.486 91.7709 269.231 91.7709C272.981 91.7757 276.014 94.7886 276.014 98.5084Z" fill="#389FE5"/>
</g>
</g>
<path d="M266.379 97.8697L268.436 100.415L272.088 96.6071" stroke="white" stroke-width="1.3801" stroke-miterlimit="10" stroke-linecap="round" stroke-linejoin="round"/>
<g opacity="0.5">
<g opacity="0.5">
<g opacity="0.5">
<path opacity="0.5" d="M55.6396 125.946L58.8496 127.648L57.2446 123.504" fill="#389FE5"/>
</g>
<path opacity="0.5" d="M45.6858 120.647C45.6858 124.367 48.724 127.384 52.469 127.384C56.2139 127.384 59.2521 124.367 59.2521 120.647C59.2521 116.927 56.2139 113.909 52.469 113.909C48.7191 113.914 45.6858 116.927 45.6858 120.647Z" fill="#389FE5"/>
</g>
</g>
<path d="M49.6124 120.008L51.6689 122.553L55.3206 118.745" stroke="white" stroke-width="1.3801" stroke-miterlimit="10" stroke-linecap="round" stroke-linejoin="round"/>
<path d="M271.739 62.9633H245.397C244.916 62.9633 244.528 62.5781 244.528 62.1004V35.5987C244.528 35.121 244.916 34.7358 245.397 34.7358H271.739C272.22 34.7358 272.608 35.121 272.608 35.5987V62.1004C272.608 62.5781 272.22 62.9633 271.739 62.9633Z" fill="white"/>
<g opacity="0.5">
<path opacity="0.5" d="M265.879 47.3724C265.879 48.5668 265.619 49.6979 265.148 50.7168C264.922 51.214 264.642 51.6869 264.318 52.1257C264.097 52.4231 263.852 52.7107 263.592 52.974C263.592 52.974 263.587 52.9789 263.582 52.9789C263.361 53.208 263.13 53.4176 262.885 53.6175C262.522 53.9149 262.139 54.1733 261.727 54.4024C261.403 54.5828 261.074 54.7388 260.73 54.8705C259.96 55.1727 259.13 55.358 258.266 55.4116C258.104 55.4213 257.937 55.4262 257.77 55.4262C255.832 55.4262 254.055 54.7486 252.661 53.6321C250.83 52.155 249.662 49.8977 249.662 47.3773C249.662 46.2218 249.908 45.1347 250.344 44.145C251.355 41.8537 253.407 40.1181 255.905 39.5379C255.93 39.5331 255.954 39.5282 255.979 39.5233C256.234 39.4599 256.494 39.416 256.769 39.3819C257.098 39.3429 257.432 39.3185 257.77 39.3185C260.853 39.3185 263.538 41.0297 264.907 43.5551C264.995 43.7257 265.084 43.8964 265.162 44.0767C265.624 45.0762 265.879 46.1975 265.879 47.3724Z" fill="#9999F1"/>
<g opacity="0.5">
<g opacity="0.5">
<path opacity="0.5" d="M259.812 54.5048C259.871 54.9095 259.375 55.1483 258.978 55.2458C258.742 55.3043 258.507 55.3629 258.266 55.4116C258.104 55.4214 257.937 55.4262 257.77 55.4262C255.832 55.4262 254.06 54.7535 252.666 53.6273C252.651 53.559 252.646 53.4859 252.641 53.4176C252.636 53.1056 252.744 52.8082 252.818 52.506C252.877 52.2525 252.916 51.9941 252.926 51.7357C252.931 51.6431 252.931 51.5358 252.867 51.4627C252.813 51.4042 252.73 51.3798 252.651 51.3457C252.219 51.1555 251.866 50.5803 252.043 50.1464C252.435 49.1811 253.824 49.498 252.911 47.0994C252.715 46.5826 253.127 46.451 253.098 46.3096C253.019 45.9927 251.822 46.0756 251.493 46.0268C251.277 45.9927 251.041 45.9732 250.879 45.8269C250.781 45.7392 250.717 45.6173 250.668 45.4954C250.487 45.0664 250.379 44.6033 250.344 44.1401C251.365 41.8244 253.446 40.0839 255.979 39.5135L256.004 39.7768C255.92 40.6933 255.861 41.605 255.827 42.5216C255.822 42.6824 255.817 42.8482 255.753 42.9993C255.616 43.326 255.218 43.4966 254.865 43.4527C254.737 43.4381 254.59 43.3991 254.477 43.4625C254.291 43.5697 254.335 43.8427 254.31 44.0524C254.256 44.418 253.932 44.6715 253.706 44.964C253.481 45.2565 253.392 45.7587 253.721 45.9391C253.805 45.983 253.908 46.0073 253.957 46.0853C254.021 46.1975 253.932 46.334 253.829 46.4022C253.726 46.4705 253.594 46.5095 253.515 46.607C253.353 46.7971 253.471 47.0994 253.652 47.2651C253.834 47.4309 254.075 47.5381 254.232 47.7283C254.433 47.972 254.477 48.3182 254.693 48.5376C255.223 49.0836 256.318 48.5132 256.858 49.0495C257.137 49.3225 257.137 49.7856 257.383 50.0879C257.54 50.2829 257.775 50.3901 257.982 50.5315C258.448 50.8582 258.752 51.4042 258.782 51.9697C258.816 52.5742 258.59 53.2811 259.007 53.7248C259.272 54.0124 259.758 54.1246 259.812 54.5048Z" fill="#81A8CC"/>
</g>
<g opacity="0.5">
<path opacity="0.5" d="M264.907 43.5502C264.77 43.5551 264.627 43.56 264.5 43.5843C264.446 43.5941 264.397 43.6087 264.357 43.6477C264.303 43.7062 264.313 43.7989 264.318 43.8817C264.328 44.145 264.215 44.4131 264.014 44.5886C263.974 44.6228 263.93 44.6569 263.876 44.6618C263.724 44.691 263.621 44.5155 263.567 44.3693C263.42 43.9841 263.273 43.599 263.125 43.2089C263.076 43.0919 263.027 42.9652 262.929 42.8921C262.747 42.7556 262.477 42.8141 262.286 42.6922C262.055 42.5459 261.938 42.151 261.672 42.2144C261.457 42.268 261.452 42.5703 261.525 42.7799C261.599 42.9896 261.677 43.2577 261.51 43.3991C261.329 43.5502 261.049 43.3991 260.912 43.2089C260.769 43.0188 260.666 42.7799 260.445 42.6971C260.131 42.58 259.807 42.8628 259.631 43.1553C259.454 43.443 259.302 43.7891 258.983 43.9012C258.826 43.9549 258.649 43.9451 258.507 44.0231C258.207 44.1889 258.217 44.6179 258.325 44.9445C258.428 45.2712 258.58 45.6271 258.428 45.9293C258.399 45.9878 258.355 46.0463 258.296 46.0707C258.158 46.1194 258.031 45.9976 257.942 45.8854C257.456 45.2663 257.029 44.5984 256.671 43.8915C256.602 43.755 256.534 43.6038 256.553 43.4527C256.563 43.3552 256.612 43.2675 256.646 43.17C256.754 42.8482 256.656 42.4972 256.7 42.1608C256.774 41.5904 257.24 41.0541 257.059 40.513C256.99 40.3131 256.843 40.1473 256.75 39.9572C256.656 39.7719 256.627 39.5184 256.779 39.377C257.108 39.338 257.442 39.3137 257.785 39.3137C260.858 39.3137 263.538 41.0249 264.907 43.5502Z" fill="#81A8CC"/>
</g>
<g opacity="0.5">
<path opacity="0.5" d="M265.879 47.3723C265.879 48.5668 265.619 49.6978 265.147 50.7167C264.917 51.2189 264.642 51.6918 264.318 52.1257C264.313 52.1257 264.313 52.1208 264.313 52.1208C264.289 52.0721 264.289 52.0184 264.289 51.9599C264.293 51.7649 264.308 51.5602 264.396 51.3895C264.455 51.2823 264.539 51.1896 264.598 51.0824C264.745 50.8094 264.72 50.4779 264.691 50.1658C264.676 50.0001 264.652 49.8197 264.534 49.6978C264.46 49.6247 264.357 49.5808 264.284 49.5077C264.107 49.3224 264.161 49.0348 264.205 48.7862C264.244 48.5375 264.22 48.2206 263.984 48.128C263.7 48.5229 263.381 48.8885 263.032 49.2201C263.076 48.9519 262.757 48.7179 262.492 48.7959C262.227 48.8739 262.075 49.1713 262.109 49.4443C261.874 49.4492 261.82 49.1177 261.854 48.8885C261.908 48.4936 261.967 48.1036 262.016 47.7087C261.761 47.5966 261.569 48.0061 261.295 48.0646C261.064 48.1134 260.848 47.8842 260.823 47.6502C260.799 47.4162 260.907 47.192 261.01 46.9823C261.133 46.7337 261.255 46.4899 261.373 46.2413C261.53 45.9195 261.707 45.5783 262.031 45.4174C262.418 45.2273 262.88 45.3589 263.302 45.4613C263.724 45.5636 264.23 45.6124 264.534 45.3053C264.716 45.1249 264.779 44.8665 264.828 44.6179C264.873 44.4033 264.936 44.1547 265.138 44.067L265.157 44.0718C265.628 45.0761 265.879 46.1925 265.879 47.3723Z" fill="#81A8CC"/>
</g>
</g>
<path opacity="0.3" d="M263.955 52.5888C263.842 52.7253 263.724 52.8521 263.597 52.9789C263.597 52.9789 263.592 52.9837 263.587 52.9837C263.366 53.2129 263.135 53.4225 262.89 53.6224C262.527 53.9198 262.144 54.1782 261.731 54.4073C261.407 54.5877 261.079 54.7437 260.735 54.8753C259.964 55.1776 259.135 55.3628 258.271 55.4165C258.109 55.4262 257.942 55.4311 257.775 55.4311C255.837 55.4311 254.06 54.7534 252.666 53.637C250.835 52.1598 249.667 49.9026 249.667 47.3821C249.667 46.2267 249.912 45.1395 250.349 44.1498C251.36 41.8585 253.412 40.1229 255.91 39.5428C255.935 39.5379 255.959 39.533 255.984 39.5282C256.239 39.4648 256.499 39.4209 256.774 39.3868C256.784 39.3868 256.804 39.3819 256.813 39.3819C256.013 40.1083 255.365 41.0005 254.924 41.995C254.507 42.9457 254.266 43.9938 254.266 45.0956C254.266 47.5235 255.395 49.693 257.152 51.1068C258.492 52.1891 260.195 52.8375 262.055 52.8375C262.212 52.8375 262.374 52.8326 262.531 52.8228C263.017 52.779 263.494 52.7058 263.955 52.5888Z" fill="#9999F1"/>
<path opacity="0.5" d="M267.719 47.3382C267.719 44.3644 266.394 41.5757 264.082 39.6842C262.301 38.2265 260.048 37.4269 257.741 37.4269C257.451 37.4269 257.221 37.661 257.221 37.9437C257.221 38.2314 257.456 38.4605 257.741 38.4605C259.812 38.4605 261.83 39.1771 263.42 40.4837C265.491 42.1754 266.679 44.6764 266.679 47.3382C266.679 52.233 262.669 56.216 257.741 56.216C255.051 56.216 252.533 55.0313 250.825 52.9594C250.644 52.74 250.31 52.7058 250.089 52.8862C249.981 52.974 249.912 53.0959 249.903 53.2372C249.888 53.3737 249.932 53.5103 250.02 53.6175C251.792 55.7675 254.359 57.0643 257.127 57.2349V58.9656H254.109C253.746 58.9656 253.446 59.2581 253.446 59.6238C253.446 59.9845 253.741 60.2819 254.109 60.2819H261.437C261.8 60.2819 262.1 59.9894 262.1 59.6238C262.1 59.263 261.805 58.9656 261.437 58.9656H258.418V57.2203C263.606 56.8644 267.719 52.5742 267.719 47.3382Z" fill="#7878FF"/>
</g>
<path d="M116.3 172.231C116.497 173.718 115.437 175.078 113.94 175.273C112.443 175.468 111.073 174.415 110.877 172.929C110.681 171.442 111.741 170.081 113.238 169.886C114.735 169.696 116.109 170.744 116.3 172.231Z" fill="#9999F1"/>
<path d="M112.413 172.86L113.616 173.752L114.794 171.656" stroke="white" stroke-width="1.0564" stroke-miterlimit="10" stroke-linecap="round" stroke-linejoin="round"/>
<path d="M123.663 29.4023C124.134 30.8259 123.349 32.3616 121.915 32.8296C120.482 33.2976 118.936 32.5176 118.465 31.094C117.994 29.6704 118.779 28.1348 120.212 27.6667C121.646 27.1987 123.192 27.9788 123.663 29.4023Z" fill="#9999F1"/>
<path d="M119.962 30.7381L121.307 31.3914L122.068 29.1147" stroke="white" stroke-width="1.0564" stroke-miterlimit="10" stroke-linecap="round" stroke-linejoin="round"/>
<path d="M270.664 79.7193C270.493 82.0058 268.49 83.7219 266.188 83.5561C263.886 83.3855 262.158 81.3964 262.325 79.1099C262.497 76.8235 264.5 75.1074 266.802 75.2731C269.108 75.4389 270.836 77.428 270.664 79.7193Z" fill="#9999F1"/>
<path d="M264.647 79.4707L266.173 81.1722L268.583 78.3933" stroke="white" stroke-width="1.6155" stroke-miterlimit="10" stroke-linecap="round" stroke-linejoin="round"/>
<path d="M257.844 79.266C257.844 79.8169 257.393 80.2654 256.838 80.2654C256.283 80.2654 255.832 79.8169 255.832 79.266C255.832 78.7151 256.283 78.2665 256.838 78.2665C257.393 78.2665 257.844 78.7151 257.844 79.266Z" fill="#9999F1"/>
<path opacity="0.3" d="M224.002 10.6035C224.002 11.1544 223.55 11.603 222.996 11.603C222.441 11.603 221.989 11.1544 221.989 10.6035C221.989 10.0526 222.441 9.60413 222.996 9.60413C223.55 9.60413 224.002 10.0526 224.002 10.6035Z" fill="#9999F1"/>
<path d="M60.278 101.633C60.278 102.511 59.5614 103.228 58.673 103.228C57.7846 103.228 57.068 102.516 57.068 101.633C57.068 100.751 57.7846 100.039 58.673 100.039C59.5614 100.044 60.278 100.756 60.278 101.633Z" fill="#9999F1"/>
<path opacity="0.3" d="M304.099 117.765C304.099 119.121 302.995 120.218 301.63 120.218C300.266 120.218 299.161 119.121 299.161 117.765C299.161 116.41 300.266 115.313 301.63 115.313C302.995 115.313 304.099 116.41 304.099 117.765Z" fill="#9999F1"/>
<path opacity="0.3" d="M34.3478 83.9169C34.3478 85.2722 33.2434 86.3691 31.8789 86.3691C30.5144 86.3691 29.4101 85.2722 29.4101 83.9169C29.4101 82.5616 30.5144 81.4647 31.8789 81.4647C33.2434 81.4647 34.3478 82.5616 34.3478 83.9169Z" fill="#9999F1"/>
<path opacity="0.3" d="M283.833 139.86C283.833 140.738 283.117 141.454 282.228 141.454C281.34 141.454 280.623 140.742 280.623 139.86C280.623 138.982 281.34 138.266 282.228 138.266C283.117 138.266 283.833 138.978 283.833 139.86Z" fill="#9999F1"/>
<path opacity="0.3" d="M158.654 16.3709C158.654 17.2485 157.937 17.9651 157.049 17.9651C156.16 17.9651 155.444 17.2533 155.444 16.3709C155.444 15.4885 156.16 14.7767 157.049 14.7767C157.932 14.7767 158.654 15.4934 158.654 16.3709Z" fill="#9999F1"/>
<path opacity="0.2" d="M188.51 8.37557C188.51 9.2531 187.794 9.96976 186.905 9.96976C186.017 9.96976 185.3 9.25798 185.3 8.37557C185.3 7.49803 186.017 6.78137 186.905 6.78137C187.794 6.78625 188.51 7.49803 188.51 8.37557Z" fill="#9999F1"/>
<path d="M29.9205 62.349C29.7438 62.349 29.6015 62.2076 29.6015 62.0321V59.7847C29.6015 59.6092 29.7438 59.4678 29.9205 59.4678C30.0972 59.4678 30.2396 59.6092 30.2396 59.7847V62.0321C30.2396 62.2076 30.0972 62.349 29.9205 62.349Z" fill="#9999F1"/>
<path d="M31.0494 61.2277H28.7867C28.6101 61.2277 28.4677 61.0863 28.4677 60.9108C28.4677 60.7353 28.6101 60.5939 28.7867 60.5939H31.0494C31.2261 60.5939 31.3685 60.7353 31.3685 60.9108C31.3734 61.0863 31.2261 61.2277 31.0494 61.2277Z" fill="#9999F1"/>
<g opacity="0.3">
<g opacity="0.3">
<g opacity="0.3">
<path opacity="0.3" d="M47.6638 5.90383C47.4871 5.90383 47.3447 5.76245 47.3447 5.58694V3.33947C47.3447 3.16396 47.4871 3.02258 47.6638 3.02258C47.8405 3.02258 47.9828 3.16396 47.9828 3.33947V5.58694C47.9828 5.76245 47.8405 5.90383 47.6638 5.90383Z" fill="#9999F1"/>
</g>
<g opacity="0.3">
<path opacity="0.3" d="M48.7927 4.78252H46.53C46.3533 4.78252 46.2109 4.64114 46.2109 4.46563C46.2109 4.29012 46.3533 4.14874 46.53 4.14874H48.7927C48.9694 4.14874 49.1117 4.29012 49.1117 4.46563C49.1166 4.63626 48.9694 4.78252 48.7927 4.78252Z" fill="#9999F1"/>
</g>
</g>
</g>
<path d="M235.801 32.7857C235.625 32.7857 235.482 32.6443 235.482 32.4688V30.2214C235.482 30.0459 235.625 29.9045 235.801 29.9045C235.978 29.9045 236.12 30.0459 236.12 30.2214V32.4688C236.12 32.6443 235.978 32.7857 235.801 32.7857Z" fill="#9999F1"/>
<path d="M236.93 31.6644H234.667C234.491 31.6644 234.348 31.523 234.348 31.3475C234.348 31.172 234.491 31.0306 234.667 31.0306H236.93C237.107 31.0306 237.249 31.172 237.249 31.3475C237.249 31.5182 237.107 31.6644 236.93 31.6644Z" fill="#9999F1"/>
<path d="M305.547 151.356C305.371 151.356 305.228 151.214 305.228 151.039V148.791C305.228 148.616 305.371 148.474 305.547 148.474C305.724 148.474 305.866 148.616 305.866 148.791V151.039C305.871 151.214 305.724 151.356 305.547 151.356Z" fill="#9999F1"/>
<path d="M306.681 150.234H304.418C304.242 150.234 304.099 150.093 304.099 149.918C304.099 149.742 304.242 149.601 304.418 149.601H306.681C306.858 149.601 307 149.742 307 149.918C307 150.088 306.858 150.234 306.681 150.234Z" fill="#9999F1"/>
<path d="M230.103 61.5251V78.6566C230.103 78.9442 229.867 79.1782 229.578 79.1782H212.517C212.232 79.1782 211.996 78.9442 211.996 78.6566V61.5251C211.996 61.2423 212.232 61.0083 212.517 61.0083H229.578C229.867 61.0034 230.103 61.2374 230.103 61.5251Z" fill="white"/>
<path d="M230.103 75.4438V78.6566C230.103 78.9442 229.867 79.1782 229.578 79.1782H221.116L221.474 75.4438L225.455 71.0707L230.103 75.4438Z" fill="#9999F1"/>
<path d="M227.732 79.1782H212.517C212.232 79.1782 211.996 78.9442 211.996 78.6566V75.4438L217.95 69.2377L227.732 79.1782Z" fill="#8787DD"/>
<path d="M227.708 65.9225C227.708 67.0731 226.765 68.0091 225.607 68.0091C224.448 68.0091 223.506 67.0731 223.506 65.9225C223.506 64.772 224.448 63.8359 225.607 63.8359C226.765 63.8359 227.708 64.7671 227.708 65.9225Z" fill="#9999F1"/>
<path d="M229.715 82.1131H212.384C212.168 82.1131 211.996 81.9424 211.996 81.7279V80.9138C211.996 80.6993 212.168 80.5286 212.384 80.5286H229.715C229.931 80.5286 230.103 80.6993 230.103 80.9138V81.7279C230.103 81.9424 229.931 82.1131 229.715 82.1131Z" fill="white"/>
<path d="M229.715 84.9456H212.384C212.168 84.9456 211.996 84.775 211.996 84.5604V83.7463C211.996 83.5318 212.168 83.3611 212.384 83.3611H229.715C229.931 83.3611 230.103 83.5318 230.103 83.7463V84.5604C230.103 84.775 229.931 84.9456 229.715 84.9456Z" fill="white"/>
</g>
<defs>
<linearGradient id="paint0_linear" x1="173.815" y1="54.9671" x2="173.815" y2="157.792" gradientUnits="userSpaceOnUse">
<stop stop-color="white"/>
<stop offset="1" stop-color="white" stop-opacity="0"/>
</linearGradient>
<linearGradient id="paint1_linear" x1="195.505" y1="54.9671" x2="195.505" y2="157.792" gradientUnits="userSpaceOnUse">
<stop stop-color="white"/>
<stop offset="1" stop-color="white" stop-opacity="0"/>
</linearGradient>
<clipPath id="clip0">
<rect width="307" height="201" fill="white"/>
</clipPath>
</defs>
</svg>
