<svg xmlns="http://www.w3.org/2000/svg" xmlns:xlink="http://www.w3.org/1999/xlink" width="239.246" height="209.522" viewBox="0 0 239.246 209.522">
  <defs>
    <linearGradient id="linear-gradient" x1="0.5" y1="1" x2="0.5" gradientUnits="objectBoundingBox">
      <stop offset="0" stop-color="gray" stop-opacity="0.251"/>
      <stop offset="0.54" stop-color="gray" stop-opacity="0.122"/>
      <stop offset="1" stop-color="gray" stop-opacity="0.102"/>
    </linearGradient>
  </defs>
  <g id="Group_2" data-name="Group 2" transform="translate(-828 -413)">
    <path id="Path_2" data-name="Path 2" d="M156.116,473.426,67.923,473,59.16,452.442l30.987-2.249-5.4-22.535,61.288-7.944-58.688-20.4,5.184-1.232,94.369,15.4-5.2,35.168-7.428,19.327Z" transform="translate(784.083 117.489)" fill="#4c1aaf"/>
    <path id="Path_3" data-name="Path 3" d="M187,698.6s5.411-.866,8.657,2.958c0,0-2.381,1.876-7.5-.721Z" transform="translate(666.359 -116.722)" fill="#4c1aaf"/>
    <path id="Path_4" data-name="Path 4" d="M178.4,698.51s-3.453,4.249-1.752,8.98c0,0,2.814-1.126,3.12-6.862Z" transform="translate(674.397 -116.719)" fill="#4c1aaf"/>
    <path id="Path_5" data-name="Path 5" d="M172.76,667.441s2.164-3.971,10.822,1.587c0,0-1.154,2.669-4.978,2.453S173.77,669.533,172.76,667.441Z" transform="translate(676.93 -92.636)" fill="#4c1aaf"/>
    <path id="Path_6" data-name="Path 6" d="M156.4,670.278s-4.491-.515-4.927,9.765c0,0,2.847.59,4.87-2.662S157.533,672.305,156.4,670.278Z" transform="translate(692.734 -95.758)" fill="#4c1aaf"/>
    <path id="Path_7" data-name="Path 7" d="M160.44,627.49s2.525-7,11.688-2.02c0,0-2.092,6.421-10.75,4.4Z" transform="translate(686.076 -61.172)" fill="#4c1aaf"/>
    <path id="Path_8" data-name="Path 8" d="M149.52,588.35s4.762-7.07,13.2-.515c0,0-2.958,6.637-12.481,3.03Z" transform="translate(694.182 -32.493)" fill="#4c1aaf"/>
    <path id="Path_9" data-name="Path 9" d="M145.6,550.9s5.555-6.5,13.914,0c0,0-5.267,5.7-13.914,1.659Z" transform="translate(697.092 -5.002)" fill="#4c1aaf"/>
    <path id="Path_10" data-name="Path 10" d="M142.24,512.69s5.627-6.782,13.636-.361c0,0-6.349,5.988-13.636,1.948Z" transform="translate(699.586 23.541)" fill="#4c1aaf"/>
    <path id="Path_11" data-name="Path 11" d="M144.2,474.339s5.926-8.73,13.419-2.814c0,0-6.349,7.5-13.419,4.473Z" transform="translate(698.131 53.306)" fill="#4c1aaf"/>
    <path id="Path_12" data-name="Path 12" d="M149.52,436.416s6.277-8.658,13.563-2.02c0,0-7.431,7.5-13.563,3.607Z" transform="translate(694.182 81.201)" fill="#4c1aaf"/>
    <path id="Path_13" data-name="Path 13" d="M156.7,398.358s7.431-8.137,13.914-4.9c0,0-7.743,8.642-14.238,7.055Z" transform="translate(689.09 110.295)" fill="#4c1aaf"/>
    <path id="Path_14" data-name="Path 14" d="M165.968,360.6s8.575-9.966,13.563-6.637c0,0-6.318,7.73-14.171,8.5Z" transform="translate(682.423 139.559)" fill="#4c1aaf"/>
    <path id="Path_15" data-name="Path 15" d="M179.367,324.878s7.506-8.137,12.989-6.117c0,0-6.421,8.441-14,8.657Z" transform="translate(672.773 165.421)" fill="#4c1aaf"/>
    <path id="Path_16" data-name="Path 16" d="M194.4,288.685s8.3-7.792,11.9-6.421c0,0-5.988,8.658-12.265,8.152Z" transform="translate(661.133 192.396)" fill="#4c1aaf"/>
    <path id="Path_17" data-name="Path 17" d="M208.32,249.753s7.142-9.309,11.041-8.588c0,0-4.331,8.3-11.041,9.534Z" transform="translate(650.533 222.814)" fill="#4c1aaf"/>
    <path id="Path_18" data-name="Path 18" d="M221.55,209.549s6.313-7.135,9.724-7.119c0,0-4.983,9.534-9.984,9.446Z" transform="translate(640.905 251.539)" fill="#4c1aaf"/>
    <path id="Path_19" data-name="Path 19" d="M228.346,157.582l6.1-14.862s.3,13.435-6.874,17.619Z" transform="translate(636.243 295.864)" fill="#4c1aaf"/>
    <path id="Path_20" data-name="Path 20" d="M240.071,98.122s1.01-12.412.361-13.422c0,0,4.36,10.319-.4,18.9Z" transform="translate(626.993 338.934)" fill="#4c1aaf"/>
    <path id="Path_21" data-name="Path 21" d="M129.507,635.536s-6.323-3.919-10.417,5.669c0,0,5.627,3.736,11.162-3.223Z" transform="translate(716.771 -69.382)" fill="#4c1aaf"/>
    <path id="Path_22" data-name="Path 22" d="M115.548,594.562s-7.756-3.538-11.518,6.472c0,0,5.991,4.123,12.224-3.942Z" transform="translate(727.951 -39.105)" fill="#4c1aaf"/>
    <path id="Path_23" data-name="Path 23" d="M104.114,553.213s-5.555-6.5-13.914,0c0,0,5.267,5.7,13.914,1.659Z" transform="translate(738.217 -6.717)" fill="#4c1aaf"/>
    <path id="Path_24" data-name="Path 24" d="M102.216,512.69s-5.627-6.782-13.636-.361c0,0,6.349,5.988,13.636,1.948Z" transform="translate(739.42 23.541)" fill="#4c1aaf"/>
    <path id="Path_25" data-name="Path 25" d="M108.108,470.247s-3.947-9.778-12.528-5.573c0,0,4.638,8.67,12.177,7.2Z" transform="translate(734.224 57.646)" fill="#4c1aaf"/>
    <path id="Path_26" data-name="Path 26" d="M115.075,430.371s-3.924-9.948-12.626-5.336c0,0,5.328,9.119,12.239,6.872Z" transform="translate(729.124 87.197)" fill="#4c1aaf"/>
    <path id="Path_27" data-name="Path 27" d="M135.651,380.613s-1.546-10.907-8.761-11.883c0,0,1.531,11.5,7.789,13.849Z" transform="translate(710.981 128.089)" fill="#4c1aaf"/>
    <path id="Path_28" data-name="Path 28" d="M149.508,342.579s-.6-13.141-6.568-13.6c0,0,.2,9.974,5.9,15.46Z" transform="translate(699.067 157.596)" fill="#4c1aaf"/>
    <path id="Path_29" data-name="Path 29" d="M163.142,306.672s-1.778-10.927-7.472-12.262c0,0,.706,10.582,6.908,14.944Z" transform="translate(689.617 183.259)" fill="#4c1aaf"/>
    <path id="Path_30" data-name="Path 30" d="M186.441,270.386S186.381,259,182.9,257.33c0,0-2.157,10.307,2.53,14.509Z" transform="translate(669.768 210.785)" fill="#4c1aaf"/>
    <path id="Path_31" data-name="Path 31" d="M197.159,235.583s-.487-11.721-4.089-13.373c0,0-1.232,9.276,3.551,14.141Z" transform="translate(661.959 236.856)" fill="#4c1aaf"/>
    <path id="Path_32" data-name="Path 32" d="M214.362,199.78s-.021-9.534-2.592-11.77c0,0-2.556,10.443,1.25,13.687Z" transform="translate(648.595 262.244)" fill="#4c1aaf"/>
    <path id="Path_33" data-name="Path 33" d="M219.448,152.867,216.946,137s-3.4,13,2.62,18.732Z" transform="translate(644.839 300.11)" fill="#4c1aaf"/>
    <path id="Path_34" data-name="Path 34" d="M213.174,103.223s-6.421-10.667-6.29-11.853c0,0,.683,11.18,8.761,16.748Z" transform="translate(651.6 333.983)" fill="#4c1aaf"/>
    <path id="Path_35" data-name="Path 35" d="M208.862,77.957s-6.06-15.151-8.8-16.377c0,0,8.657,4.4,9.307,15.944Z" transform="translate(656.664 356.097)" fill="#4c1aaf"/>
    <path id="Path_36" data-name="Path 36" d="M219.975,151.8l-.415-.126c5.115-16.679,6.39-27.312,3.594-29.979l.3-.314C226.416,124.194,225.213,134.712,219.975,151.8Z" transform="translate(642.189 311.705)" fill="#444053"/>
    <path id="Path_37" data-name="Path 37" d="M164.743,274.98l-.613-.219c.544-1.528,1.129-3.079,1.742-4.607,5.339-13.306,9.884-25.684,12.8-35.186l.533-.258c-2.919,9.521-7.385,22.373-12.729,35.7C165.864,271.906,165.282,273.45,164.743,274.98Z" transform="translate(683.336 227.576)" fill="#444053"/>
    <path id="Path_38" data-name="Path 38" d="M159.62,478.628c-.082-.09-8.371-9.425-14.151-25.362a93.836,93.836,0,0,1-5.584-29.059c-.4-12.4,2.206-26.248,6.663-38.827l.484.567c-10.008,28.232-6.032,52.424-.758,66.992,5.718,15.792,13.914,25.024,13.994,25.117Z" transform="translate(701.363 115.729)" fill="#444053"/>
    <path id="Path_39" data-name="Path 39" d="M562.647,670.36s-5.841,7.13-1.2,17.908l-46.637,20.227-4.476.938-2.061-9.018,1.379-11.381v-6.22Z" transform="translate(427.869 -95.822)" fill="#d5d6db"/>
    <path id="Path_40" data-name="Path 40" d="M59.16,575.157l64.55-11.767,85.531,13.625-53.125,19.126Z" transform="translate(784.083 -5.227)" fill="#4c1aaf"/>
    <path id="Path_41" data-name="Path 41" d="M59.16,575.157l64.55-11.767,85.531,13.625-53.125,19.126Z" transform="translate(784.083 -5.227)" fill="#4c1aaf"/>
    <path id="Path_42" data-name="Path 42" d="M140.739,652.47s-6.037,11.438.92,22l95.722,20.742s-5.942-9.111.307-21.757Z" transform="translate(702.504 -82.542)" fill="#4c1aaf"/>
    <path id="Path_43" data-name="Path 43" d="M140.739,652.47s-6.037,11.438.92,22l95.722,20.742s-5.942-9.111.307-21.757Z" transform="translate(702.504 -82.542)" opacity="0.1"/>
    <path id="Path_44" data-name="Path 44" d="M154.392,667.86s-3.45,8.369,0,13.785" transform="translate(691.703 -93.967)" opacity="0.1"/>
    <path id="Path_45" data-name="Path 45" d="M247.032,752.663l53.439-22.8s2.989.644,1.056,2.834-53.465,22.159-53.465,22.159L151.31,731.921Z" transform="translate(692.853 -139.992)" fill="#4c1aaf"/>
    <path id="Path_46" data-name="Path 46" d="M247.032,752.663l53.439-22.8s2.989.644,1.056,2.834-53.465,22.159-53.465,22.159L151.31,731.921Z" transform="translate(692.853 -139.992)" opacity="0.1"/>
    <path id="Path_47" data-name="Path 47" d="M499.211,742.86s-5.153,6.184,0,15.46" transform="translate(436.293 -149.642)" opacity="0.1"/>
    <rect id="Rectangle_1" data-name="Rectangle 1" width="24.367" height="0.258" transform="translate(937.34 600.825) rotate(-18.45)" opacity="0.1"/>
    <rect id="Rectangle_2" data-name="Rectangle 2" width="29.691" height="0.258" transform="translate(937.331 602.899) rotate(-20.82)" opacity="0.1"/>
    <rect id="Rectangle_3" data-name="Rectangle 3" width="34.414" height="0.258" transform="translate(937.486 605.344) rotate(-22.26)" opacity="0.1"/>
    <rect id="Rectangle_4" data-name="Rectangle 4" width="39.613" height="0.258" transform="translate(937.857 607.501) rotate(-24.31)" opacity="0.1"/>
    <rect id="Rectangle_5" data-name="Rectangle 5" width="43.326" height="0.258" transform="matrix(0.916, -0.401, 0.401, 0.916, 938.144, 608.55)" opacity="0.1"/>
    <rect id="Rectangle_6" data-name="Rectangle 6" width="51.847" height="0.258" transform="translate(938.743 610.312) rotate(-23.36)" opacity="0.1"/>
    <path id="Path_48" data-name="Path 48" d="M152.23,586.474l45.349-9.534,27.627,5.282L188.045,594.2Z" transform="translate(714.994 -15.286)" fill="#fff" opacity="0.3"/>
    <path id="Path_49" data-name="Path 49" d="M577.133,659.69s2.345.946.969,2.407-54.1,16.72-54.1,16.72Z" transform="translate(416.192 -87.902)" fill="#4c1aaf"/>
    <path id="Path_50" data-name="Path 50" d="M661.945,574.18s-5.839,7.127-1.2,17.908l-46.637,20.227-4.476.943-2.061-9.018,1.4-11.378v-6.228Z" transform="translate(354.155 -24.425)" fill="#d5d6db"/>
    <path id="Path_51" data-name="Path 51" d="M158.46,478.975l64.547-11.765,85.534,13.625-53.125,19.126Z" transform="translate(710.369 66.171)" fill="#3a3768"/>
    <path id="Path_52" data-name="Path 52" d="M239.994,556.29s-6.04,11.438.917,22l95.722,20.742s-5.939-9.119.317-21.76Z" transform="translate(628.825 -11.144)" fill="#3a3768"/>
    <path id="Path_53" data-name="Path 53" d="M239.994,556.29s-6.04,11.438.917,22l95.722,20.742s-5.939-9.119.317-21.76l-30.27-6.552Z" transform="translate(628.825 -11.144)" opacity="0.1"/>
    <path id="Path_54" data-name="Path 54" d="M253.686,571.68s-3.448,8.366,0,13.785" transform="translate(617.993 -22.569)" opacity="0.1"/>
    <path id="Path_55" data-name="Path 55" d="M346.322,656.483l53.442-22.8s2.986.644,1.054,2.834-53.465,22.159-53.465,22.159L250.6,635.741Z" transform="translate(619.147 -68.594)" fill="#3a3768"/>
    <path id="Path_56" data-name="Path 56" d="M346.322,656.483l53.442-22.8s2.986.644,1.054,2.834-53.465,22.159-53.465,22.159L250.6,635.741Z" transform="translate(619.147 -68.594)" opacity="0.1"/>
    <path id="Path_57" data-name="Path 57" d="M598.5,646.68s-5.153,6.184,0,15.46" transform="translate(362.587 -78.244)" opacity="0.1"/>
    <rect id="Rectangle_7" data-name="Rectangle 7" width="24.367" height="0.258" transform="translate(962.925 576.045) rotate(-18.45)" opacity="0.1"/>
    <rect id="Rectangle_8" data-name="Rectangle 8" width="29.691" height="0.258" transform="translate(962.919 578.119) rotate(-20.82)" opacity="0.1"/>
    <rect id="Rectangle_9" data-name="Rectangle 9" width="34.414" height="0.258" transform="translate(963.071 580.561) rotate(-22.26)" opacity="0.1"/>
    <rect id="Rectangle_10" data-name="Rectangle 10" width="39.613" height="0.258" transform="translate(963.445 582.717) rotate(-24.31)" opacity="0.1"/>
    <rect id="Rectangle_11" data-name="Rectangle 11" width="43.326" height="0.258" transform="matrix(0.916, -0.401, 0.401, 0.916, 963.728, 583.763)" opacity="0.1"/>
    <rect id="Rectangle_12" data-name="Rectangle 12" width="51.847" height="0.258" transform="translate(964.329 585.525) rotate(-23.36)" opacity="0.1"/>
    <path id="Path_58" data-name="Path 58" d="M251.53,490.294l45.349-9.534,27.627,5.282-37.16,11.981Z" transform="translate(641.28 56.112)" fill="#fff" opacity="0.45"/>
    <path id="Path_59" data-name="Path 59" d="M676.455,563.51s2.342.946.969,2.4-54.094,16.72-54.094,16.72Z" transform="translate(342.455 -16.504)" fill="#3a3768"/>
    <path id="Path_60" data-name="Path 60" d="M671.367,464.15s-5.841,12.8-1.2,23.576l-46.637,14.558-4.465.946L617,494.212l1.378-11.381V476.6Z" transform="translate(347.154 57.255)" fill="#d5d6db"/>
    <path id="Path_61" data-name="Path 61" d="M167.89,368.947l64.55-11.768,85.534,13.625-53.128,19.126Z" transform="translate(703.369 147.85)" fill="#4c1aaf"/>
    <path id="Path_62" data-name="Path 62" d="M249.448,446.26s-6.047,11.438.91,22L346.08,489s-5.942-9.119.314-21.757Z" transform="translate(621.811 70.535)" fill="#4c1aaf"/>
    <path id="Path_63" data-name="Path 63" d="M249.448,446.26s-6.047,11.438.91,22L346.08,489s-5.942-9.119.314-21.757Z" transform="translate(621.811 70.535)" opacity="0.1"/>
    <path id="Path_64" data-name="Path 64" d="M263.122,461.65s-3.45,8.369,0,13.785" transform="translate(610.989 59.111)" opacity="0.1"/>
    <path id="Path_65" data-name="Path 65" d="M355.762,552.392,409.2,535.257s2.989.644,1.056,2.834-53.465,16.49-53.465,16.49L260.04,531.65Z" transform="translate(612.139 7.147)" fill="#4c1aaf"/>
    <path id="Path_66" data-name="Path 66" d="M355.762,552.392,409.2,535.257s2.989.644,1.056,2.834-53.465,16.49-53.465,16.49L260.04,531.65Z" transform="translate(612.139 7.147)" opacity="0.1"/>
    <path id="Path_67" data-name="Path 67" d="M607.941,536.65s-5.153,6.184,0,15.46" transform="translate(355.579 3.435)" opacity="0.1"/>
    <rect id="Rectangle_13" data-name="Rectangle 13" width="24.367" height="0.258" transform="translate(965.358 547.694) rotate(-18.45)" opacity="0.1"/>
    <rect id="Rectangle_14" data-name="Rectangle 14" width="29.691" height="0.258" transform="translate(965.351 549.769) rotate(-20.82)" opacity="0.1"/>
    <rect id="Rectangle_15" data-name="Rectangle 15" width="34.414" height="0.258" transform="translate(965.5 552.212) rotate(-22.26)" opacity="0.1"/>
    <rect id="Rectangle_16" data-name="Rectangle 16" width="39.613" height="0.258" transform="translate(965.878 554.366) rotate(-24.31)" opacity="0.1"/>
    <rect id="Rectangle_17" data-name="Rectangle 17" width="43.326" height="0.258" transform="matrix(0.916, -0.401, 0.401, 0.916, 966.162, 555.415)" opacity="0.1"/>
    <rect id="Rectangle_18" data-name="Rectangle 18" width="51.847" height="0.258" transform="translate(966.762 557.179) rotate(-23.36)" opacity="0.1"/>
    <path id="Path_68" data-name="Path 68" d="M260.96,380.264l45.349-9.534,27.627,5.282-37.16,11.981Z" transform="translate(634.28 137.792)" fill="#fff" opacity="0.3"/>
    <path id="Path_69" data-name="Path 69" d="M685.885,453.48s2.345.946.969,2.407-54.094,16.72-54.094,16.72Z" transform="translate(335.455 65.175)" fill="#4c1aaf"/>
    <path id="Path_70" data-name="Path 70" d="M373.819,149.883s-9.791-.59-8.647,6.279a1.676,1.676,0,0,0,.871,1.765s.018-.515,1-.338a4.393,4.393,0,0,0,1.067.052,2.221,2.221,0,0,0,1.3-.536h0s2.754-1.139,3.826-5.643c0,0,.794-.982.773-1.234l-1.659.706a2.973,2.973,0,0,1,.121,2.185s-.054-2.141-.374-2.092c-.064,0-.858.415-.858.415s.971,2.079.237,3.589c0,0,.278-2.561-.541-3.44l-1.165.68s1.136,2.146.366,3.9c0,0,.2-2.687-.611-3.734l-1.056.825s1.069,2.115.417,3.569c0,0-.085-3.128-.644-3.365a6.367,6.367,0,0,0-1.064,1.149s.732,1.546.276,2.347c0,0-.276-2.084-.515-2.095a6.935,6.935,0,0,0-1.015,2.319,5.014,5.014,0,0,1,.791-2.458,2.76,2.76,0,0,0-1.407.729s.142-.977,1.636-1.062a6.333,6.333,0,0,1,.964-1.111,6.032,6.032,0,0,0-2.386.273,2.7,2.7,0,0,1,2.657-.515l1.031-.85a8.891,8.891,0,0,0-2.783.028s.956-.814,3.064-.222l1.136-.678a10.325,10.325,0,0,0-2.659-.229,4.082,4.082,0,0,1,2.991.046l.809-.363s-1.219-.24-1.577-.278-.376-.137-.376-.137a4.254,4.254,0,0,1,2.293.258A10.227,10.227,0,0,0,373.819,149.883Z" transform="translate(534.165 290.556)" fill="#4c1aaf"/>
    <path id="Path_71" data-name="Path 71" d="M908.419,259.463s-9.791-.59-8.647,6.279a1.676,1.676,0,0,0,.871,1.765s.018-.515,1-.338a4.541,4.541,0,0,0,1.067.052,2.213,2.213,0,0,0,1.288-.536h0s2.757-1.139,3.826-5.643c0,0,.794-.982.773-1.234l-1.654.706a2.973,2.973,0,0,1,.121,2.185s-.054-2.141-.371-2.092c-.064,0-.861.415-.861.415s.971,2.079.24,3.589c0,0,.278-2.561-.544-3.44l-1.165.68s1.136,2.146.366,3.9c0,0,.2-2.687-.611-3.734l-1.054.825s1.067,2.115.415,3.569c0,0-.085-3.128-.644-3.365a6.462,6.462,0,0,0-1.064,1.149s.732,1.546.278,2.347c0,0-.278-2.085-.515-2.095a6.936,6.936,0,0,0-1.015,2.319,5,5,0,0,1,.794-2.458,2.771,2.771,0,0,0-1.409.729s.144-.977,1.636-1.062a6.436,6.436,0,0,1,.964-1.113,6.056,6.056,0,0,0-2.386.276,2.7,2.7,0,0,1,2.656-.515l1.031-.85a8.893,8.893,0,0,0-2.783.028s.953-.814,3.064-.222l1.134-.678a10.324,10.324,0,0,0-2.659-.229,4.082,4.082,0,0,1,2.991.046l.812-.363s-1.221-.24-1.58-.278-.376-.137-.376-.137a4.222,4.222,0,0,1,2.293.258A10.393,10.393,0,0,0,908.419,259.463Z" transform="translate(137.311 209.21)" fill="#4c1aaf" opacity="0.1"/>
    <path id="Path_72" data-name="Path 72" d="M431.838,298.216s-4.267-8.846-9.7-4.486a1.674,1.674,0,0,0-1.116,1.621s.451-.234.773.714a4.567,4.567,0,0,0,.474.953,2.224,2.224,0,0,0,1.105.876h0s2.337,1.85,6.792.587a4.408,4.408,0,0,0,1.448.064l-1.422-1.1a2.991,2.991,0,0,1-1.85,1.17s1.845-1.09,1.646-1.342c-.041-.052-.773-.549-.773-.549s-1.342,1.863-3.017,1.958c0,0,2.37-1,2.736-2.151l-1.159-.685s-1.322,2.041-3.226,2.221c0,0,2.443-1.136,2.961-2.352l-1.232-.515s-1.327,1.963-2.914,2.105c0,0,2.69-1.6,2.623-2.206a6.53,6.53,0,0,0-1.523-.368s-.984,1.389-1.912,1.389c0,0,1.683-1.26,1.579-1.464a6.8,6.8,0,0,0-2.525.258,5.017,5.017,0,0,1,2.533-.515,2.775,2.775,0,0,0-1.324-.874s.922-.35,1.724.91a6.357,6.357,0,0,1,1.44.3,6.05,6.05,0,0,0-1.4-1.945s1.19.24,1.734,2.061l1.25.495a8.6,8.6,0,0,0-1.381-2.414s1.175.435,1.688,2.577l1.144.66a10.2,10.2,0,0,0-1.1-2.432,4.083,4.083,0,0,1,1.417,2.633l.714.531s-.387-1.183-.515-1.512-.064-.4-.064-.4a4.229,4.229,0,0,1,.9,2.126A9.612,9.612,0,0,0,431.838,298.216Z" transform="translate(492.636 184.66)" fill="#4c1aaf" opacity="0.1"/>
    <path id="Path_73" data-name="Path 73" d="M815.619,194.6s-4.264-8.846-9.7-4.486a1.677,1.677,0,0,0-1.116,1.621s.454-.232.773.714a4.47,4.47,0,0,0,.477.956,2.21,2.21,0,0,0,1.1.873h0s2.34,1.85,6.792.59a4.428,4.428,0,0,0,1.451.062l-1.415-1.1A2.99,2.99,0,0,1,812.138,195s1.842-1.092,1.644-1.345c-.041-.052-.773-.549-.773-.549s-1.34,1.863-3.017,1.958c0,0,2.373-1,2.739-2.149l-1.177-.68a5.143,5.143,0,0,1-3.226,2.221s2.443-1.139,2.963-2.355l-1.234-.515s-1.327,1.966-2.912,2.105c0,0,2.688-1.6,2.62-2.2a6.374,6.374,0,0,0-1.52-.368s-.984,1.386-1.914,1.386c0,0,1.685-1.26,1.582-1.464a6.814,6.814,0,0,0-2.528.258,5.015,5.015,0,0,1,2.533-.515,2.759,2.759,0,0,0-1.322-.874s.922-.35,1.724.91a6.38,6.38,0,0,1,1.44.3,6.03,6.03,0,0,0-1.4-1.948s1.19.242,1.734,2.074l1.252.495a8.6,8.6,0,0,0-1.381-2.417s1.175.435,1.685,2.577l1.146.66a10.288,10.288,0,0,0-1.1-2.432,4.07,4.07,0,0,1,1.417,2.633l.714.531s-.384-1.183-.515-1.512-.064-.394-.064-.394a4.238,4.238,0,0,1,.894,2.126A9.894,9.894,0,0,0,815.619,194.6Z" transform="translate(207.742 261.581)" fill="#4c1aaf" opacity="0.1"/>
    <path id="Path_74" data-name="Path 74" d="M868.487,364.4s-4.264-8.848-9.706-4.488a1.677,1.677,0,0,0-1.116,1.621s.454-.232.773.714a4.461,4.461,0,0,0,.474.956,2.211,2.211,0,0,0,1.1.873h0s2.34,1.853,6.795.59c0,0,1.242.214,1.448.062l-1.422-1.1a2.99,2.99,0,0,1-1.85,1.172s1.842-1.093,1.644-1.345c-.041-.052-.773-.549-.773-.549s-1.34,1.863-3.017,1.961c0,0,2.373-1.008,2.739-2.152l-1.162-.685s-1.319,2.041-3.226,2.221c0,0,2.443-1.139,2.963-2.355l-1.234-.515s-1.327,1.963-2.912,2.105c0,0,2.69-1.6,2.623-2.206a6.4,6.4,0,0,0-1.523-.368s-.984,1.386-1.914,1.386c0,0,1.685-1.26,1.582-1.464a6.813,6.813,0,0,0-2.528.258,5.031,5.031,0,0,1,2.535-.515,2.754,2.754,0,0,0-1.324-.873s.922-.353,1.724.91a6.358,6.358,0,0,1,1.44.3,6.077,6.077,0,0,0-1.4-1.948s1.19.242,1.734,2.074l1.25.495a8.559,8.559,0,0,0-1.381-2.414s1.175.433,1.685,2.577l1.147.657a10.289,10.289,0,0,0-1.1-2.432,4.08,4.08,0,0,1,1.42,2.636l.714.515s-.386-1.183-.515-1.513-.064-.394-.064-.394a4.212,4.212,0,0,1,.894,2.126A10.428,10.428,0,0,0,868.487,364.4Z" transform="translate(168.502 135.531)" fill="#4c1aaf" opacity="0.1"/>
    <ellipse id="Ellipse_1" data-name="Ellipse 1" cx="5.924" cy="0.662" rx="5.924" ry="0.662" transform="translate(874.111 613.723)" fill="#4c1aaf" opacity="0.1"/>
    <ellipse id="Ellipse_2" data-name="Ellipse 2" cx="5.924" cy="0.662" rx="5.924" ry="0.662" transform="translate(835.279 602.468)" fill="#4c1aaf" opacity="0.1"/>
    <ellipse id="Ellipse_3" data-name="Ellipse 3" cx="5.924" cy="0.662" rx="5.924" ry="0.662" transform="translate(903.712 621.198)" fill="#4c1aaf" opacity="0.1"/>
    <ellipse id="Ellipse_4" data-name="Ellipse 4" cx="5.924" cy="0.662" rx="5.924" ry="0.662" transform="translate(1055.398 604.916)" fill="#4c1aaf" opacity="0.1"/>
    <ellipse id="Ellipse_5" data-name="Ellipse 5" cx="5.924" cy="0.662" rx="5.924" ry="0.662" transform="translate(1006.105 601.703)" fill="#4c1aaf" opacity="0.1"/>
    <ellipse id="Ellipse_6" data-name="Ellipse 6" cx="7.006" cy="1.203" rx="7.006" ry="1.203" transform="translate(973.134 616.292)" fill="#4c1aaf" opacity="0.1"/>
    <path id="Path_75" data-name="Path 75" d="M673.42,790.14s-9.755,5.04-4.715,10.976a1.886,1.886,0,0,0,1.845,1.2s-.273-.5.773-.9a5.025,5.025,0,0,0,1.054-.559,2.476,2.476,0,0,0,.943-1.26h0s1.994-2.669.448-7.609a4.9,4.9,0,0,0,.026-1.623l-1.185,1.626a3.319,3.319,0,0,1,1.365,2.03s-1.288-2.028-1.546-1.8c-.057.046-.587.889-.587.889s2.123,1.44,2.28,3.311c0,0-1.2-2.62-2.486-2.994l-.739,1.319s2.319,1.412,2.577,3.535c0,0-1.348-2.693-2.724-3.236l-.544,1.394s2.237,1.422,2.443,3.19c0,0-1.871-2.955-2.543-2.863a7.143,7.143,0,0,0-.366,1.713s1.58,1.056,1.608,2.095c0,0-1.458-1.842-1.682-1.721a7.764,7.764,0,0,0,.356,2.816,5.559,5.559,0,0,1-.647-2.816,3.092,3.092,0,0,0-.935,1.5s-.42-1.018.964-1.956a7.127,7.127,0,0,1,.291-1.618,6.792,6.792,0,0,0-2.133,1.628s.234-1.337,2.265-2l.515-1.412a9.6,9.6,0,0,0-2.656,1.618s.451-1.327,2.816-1.964l.7-1.288a11.832,11.832,0,0,0-2.685,1.288,4.563,4.563,0,0,1,2.9-1.667l.569-.812s-1.309.466-1.675.634-.438.085-.438.085a4.739,4.739,0,0,1,2.347-1.067A11.485,11.485,0,0,0,673.42,790.14Z" transform="translate(309.845 -184.74)" fill="#4c1aaf"/>
    <path id="Path_76" data-name="Path 76" d="M551.76,140.639c-1.685-4.579-10.961-5.009-14.986-3.842a120.324,120.324,0,0,1-12.11,2.242l-.209-.2c.417-.124.428-.428.376-.879a13.752,13.752,0,0,1,.026-1.783,4.39,4.39,0,0,0,3.731-.837h0c2.319-1.031,1.7-5.442,2.139-6.648a76.455,76.455,0,0,0,.85-8.864h.034l.018-.889c.023-.384.034-.608.034-.608s.227-6.478.67-7.789c.412-1.206.747-7.282.8-8.245v-.126l-.034-.562c.023-.41.034-.866.031-1.345,0-2.2-.229-4.978-.258-5.426v-.234c.018-.94-.1-5.651-4.107-7.431-1.476-.66-3.252-1.445-4.97-2.211-.443-3.826-1.456-7.632-1.368-11.487,0-.58.052-1.159.108-1.737,0,.167-.018.338-.021.515v1.123c.152-4.821,1.974-9.668,1.8-14.385-.016.461-.049.925-.093,1.389a14.982,14.982,0,0,0-.495-4.738,2.8,2.8,0,0,0-.809-1.469,3.332,3.332,0,0,0-1.412-.559,28.4,28.4,0,0,0-3.708-.691,5.726,5.726,0,0,0-.835-1.621c-2.613-3.587-6.483-6.957-11.059-7.73-2.3-.386-4.937-.064-6.5,1.577a4.878,4.878,0,0,0-.459.464c-.84,1-1.2,2.319-2.061,3.319-.057.067-.121.129-.183.193-1.685,1.507-4.311,1.822-6.184,3.174a7.428,7.428,0,0,0-.925.806,15.684,15.684,0,0,0-2.02,2.456A10.186,10.186,0,0,0,485.6,59.4c-.539,2.834,1.391,5.522,1.75,8.374.8,6.382-6.264,12.046-4.927,18.343a8.4,8.4,0,0,0,2.273,4.079c-2.754,2.494-5.1,4.914-5.1,4.914v.144h-.435l.044.515h-.044l.24,2.8-.24,4.071v.384h.016a65.1,65.1,0,0,0,.773,7.988c.443,1.312.667,7.789.667,7.789s.49,9.155.938,10.366-.188,5.609,2.139,6.648h0a4.9,4.9,0,0,0,2.337.969c-.119.964-.044,1.662.34,1.881a1.123,1.123,0,0,0,.541.155,5.741,5.741,0,0,0-.42.734,10.913,10.913,0,0,1-2.7-.636c-2.5-1.031-10.794-3.35-13.2-1.719s-8.207,3.11-5.529,9.675,3.924,6.73,3.924,6.73a9.533,9.533,0,0,1,2.141,2.151c.8,1.208,8.294,3.973,10.167,3.973a18.346,18.346,0,0,1,2.383.119s-2.033,1.783-1.762,2.819-.618,9.327-.618,9.327,2.061,2.077,2.943-.647l.031.041c.165.224,1.056,1.237,2.734-.041a15.326,15.326,0,0,1,2.18-1.381l8.122-1.149a22.985,22.985,0,0,1,2.543-.018,5.314,5.314,0,0,0,3.35-1.247c1.683.639,3.574,1.337,4.473,1.592,1.824.515,10.209,2.765,12.169,2.061a2.723,2.723,0,0,0,1.056-.752l1.871.059-.876.175s1.706.028,4.025.059l-.1.057,2.909-.026c4.257.039,9.039.052,9.667-.09a67.917,67.917,0,0,1,7.606,0h.42s5.62-1.121,3.3-6.823c-1.783-4.38-7.263-5.653-9.7-6,.685-.137,1.275-.242,1.667-.3,1.7-.258,5-1.8,5.264-2.332s3.033-2.061,3.746-2.935S553.453,145.218,551.76,140.639Zm-46.547,12.814-.276.09-.186.062-.356.35c-.283-.191-.587-.392-.9-.6C504.051,153.391,504.626,153.425,505.213,153.453Zm24.558,7.261Z" transform="translate(460.459 369.572)" fill="url(#linear-gradient)"/>
    <path id="Path_77" data-name="Path 77" d="M686.65,273.448s3.942,10.307,6.184,9.276,1.634-5.411,2.061-6.612.9-10.306.9-10.306.216-6.442.644-7.745c.4-1.2.719-7.24.773-8.191v-.126l-.425-7.472-2.407-.6-5.581,2.061-.773,4.414-.3,1.724-.129.734Z" transform="translate(295.451 222.41)" fill="#be6f72"/>
    <path id="Path_78" data-name="Path 78" d="M691.69,358.3s3.762,3.079,4.9,3.35,1.829,2.672,1.829,2.672" transform="translate(291.709 135.831)" opacity="0.1"/>
    <path id="Path_79" data-name="Path 79" d="M536.564,275.2s-3.942,10.307-6.184,9.276-1.634-5.411-2.061-6.612-.9-10.307-.9-10.307-.216-6.442-.644-7.745c-.4-1.2-.719-7.24-.773-8.191v-.126l.428-7.472,2.407-.6,5.581,2.061.773,4.414.3,1.724.129.734Z" transform="translate(414.707 221.111)" fill="#be6f72"/>
    <rect id="Rectangle_19" data-name="Rectangle 19" width="8.799" height="13.715" transform="translate(968.143 441.153)" fill="#3e373a"/>
    <rect id="Rectangle_20" data-name="Rectangle 20" width="8.799" height="13.715" transform="translate(968.143 441.153)" opacity="0.1"/>
    <path id="Path_80" data-name="Path 80" d="M554.836,404.228s-3.007,3.306-1.891,3.906,8.333,11.852,8.333,11.852,23.705,2.919,28.175-1.461,4.38-12.206,4.38-12.206-3.592.773-3.983.353-2.543-2.445-2.543-2.445S556.9,402.383,554.836,404.228Z" transform="translate(394.889 102.346)" fill="#4b4b5b"/>
    <path id="Path_81" data-name="Path 81" d="M554.836,404.228s-3.007,3.306-1.891,3.906,8.333,11.852,8.333,11.852,23.705,2.919,28.175-1.461,4.38-12.206,4.38-12.206-3.592.773-3.983.353-2.543-2.445-2.543-2.445S556.9,402.383,554.836,404.228Z" transform="translate(394.889 102.346)" opacity="0.02"/>
    <path id="Path_82" data-name="Path 82" d="M578.925,176.1l-7.73,6.184-2.337.17-.858.062-14.411,1.056-14.944-1.092-2.224-.162-2.834-.206-5.926-5.669a101.48,101.48,0,0,1,7.869-7.526,16.144,16.144,0,0,1,3.813-2.548l.17-.059a4.241,4.241,0,0,0,1.634-1.139c2.9-2.991,5.584-10.374,5.584-10.374s12.8-6.612,11.252,2.061,5.754,6.529,5.754,6.529l2.407,1.1.951.435,2.425,1.111,5.47,2.51C579.28,170.513,578.925,176.1,578.925,176.1Z" transform="translate(413.475 288.692)" fill="#be6f72"/>
    <circle id="Ellipse_7" data-name="Ellipse 7" cx="11.51" cy="11.51" r="11.51" transform="translate(954.953 427.528)" opacity="0.1"/>
    <path id="Path_83" data-name="Path 83" d="M577.711,224.366H526v-.126l.428-7.472a101.47,101.47,0,0,1,7.869-7.526l32.466-1.288,1.51-1.592,5.47,2.51c4.3,1.974,3.95,7.557,3.95,7.557S578.28,222.9,577.711,224.366Z" transform="translate(414.707 248.622)" opacity="0.1"/>
    <path id="Path_84" data-name="Path 84" d="M577.711,223.366H526v-.126l.428-7.472a101.472,101.472,0,0,1,7.869-7.526l32.466-1.288,1.51-1.592,5.47,2.51c4.3,1.974,3.95,7.557,3.95,7.557S578.28,221.9,577.711,223.366Z" transform="translate(414.707 249.364)" fill="#e7c7ca"/>
    <path id="Path_85" data-name="Path 85" d="M584.511,187.434s8.158,10.394,19.023-.214,1.2,23.661,1.2,23.661l-23.447,2.783Z" transform="translate(373.663 264.342)" opacity="0.1"/>
    <path id="Path_86" data-name="Path 86" d="M584.511,189.434s8.158,10.394,19.023-.214,1.2,23.661,1.2,23.661l-23.447,2.783Z" transform="translate(373.663 262.858)" fill="#e7c7ca"/>
    <path id="Path_87" data-name="Path 87" d="M584.805,201.775l.863,13.164.925,4.38.706,3.35s1.8,25.766,1.288,27.055.258,2.319.366,3-.108,2.407-.023,3.18,0,1.116-1.974.84-4.726-.755-4.726-.755-6.957.515-9.361-.343a27.466,27.466,0,0,0-6.957-.861s-6.872.173-9.1-.085-3.437,2.749-4.9,1.889S553.63,247.4,554.661,245s-1.373-8.5-1.373-8.5l3.092-17.153.688-3.888V203.231l.17-.059a4.242,4.242,0,0,0,1.634-1.139l.773,12.3,24.22.861V201.35" transform="translate(395.749 252.341)" opacity="0.1"/>
    <path id="Path_88" data-name="Path 88" d="M584.805,199.775l.863,13.164.925,4.38.706,3.35s1.8,25.766,1.288,27.055.258,2.319.366,3-.108,2.407-.023,3.18,0,1.116-1.974.84-4.726-.755-4.726-.755-6.957.515-9.361-.343a27.469,27.469,0,0,0-6.957-.861s-6.872.173-9.1-.085-3.437,2.749-4.9,1.889S553.63,245.4,554.661,243s-1.373-8.5-1.373-8.5l3.092-17.153.688-3.888V201.231l.17-.059a4.242,4.242,0,0,0,1.634-1.139l.773,12.3,24.22.861V199.35" transform="translate(395.749 253.826)" fill="#e7c7ca"/>
    <path id="Path_89" data-name="Path 89" d="M577.207,59.4a2.84,2.84,0,0,0-.773-1.458,3.164,3.164,0,0,0-1.361-.557A26.877,26.877,0,0,0,571.5,56.7a5.725,5.725,0,0,0-.773-1.605c-2.525-3.566-6.261-6.929-10.657-7.689-2.3-.4-4.968-.041-6.442,1.773-.809,1-1.157,2.319-1.974,3.3-1.574,1.9-4.416,2.136-6.4,3.607a11.859,11.859,0,0,0-2.577,2.981,10.227,10.227,0,0,0-1.9,3.811c-.515,2.811,1.342,5.491,1.685,8.328.773,6.346-6.029,11.976-4.744,18.237.75,3.651,4.123,6.223,7.611,7.526,1.229.461,2.633.92,3.208,2.1.258.515.3,1.111.544,1.631.814,1.737,3.491,1.8,4.929.539s1.891-3.311,2.061-5.22c.691-8.338-2.649-16.575-2.26-24.934.116-2.528.827-5.4,3.092-6.539,3.048-1.546,6.715,1.031,10.07.539a19.977,19.977,0,0,1,.964,12.19c-.533,2.224-1.456,4.38-1.523,6.673-.1,3.491,1.783,6.681,3.411,9.768a5.2,5.2,0,0,1,.688,1.884,4.54,4.54,0,0,1-.368,1.971c-.92,2.476-2.507,4.774-2.687,7.41a1.2,1.2,0,0,0,.193.881,1.108,1.108,0,0,0,.665.3c2.783.477,5.189-1.989,6.547-4.465a20.932,20.932,0,0,0,2.582-8.895c.281-5.246-1.6-10.407-1.484-15.658C576.089,71.171,578.787,65.159,577.207,59.4Z" transform="translate(406.133 366.728)" opacity="0.1"/>
    <path id="Path_90" data-name="Path 90" d="M578.207,58.4a2.84,2.84,0,0,0-.773-1.458,3.165,3.165,0,0,0-1.36-.557A26.882,26.882,0,0,0,572.5,55.7a5.725,5.725,0,0,0-.773-1.605c-2.525-3.566-6.261-6.929-10.657-7.689-2.3-.4-4.968-.041-6.442,1.773-.809,1-1.157,2.319-1.974,3.3-1.574,1.9-4.416,2.136-6.4,3.607a11.858,11.858,0,0,0-2.577,2.981,10.227,10.227,0,0,0-1.9,3.811c-.515,2.811,1.343,5.491,1.685,8.328.773,6.346-6.029,11.976-4.744,18.237.75,3.651,4.123,6.223,7.611,7.526,1.229.461,2.633.92,3.208,2.1.258.515.3,1.111.544,1.631.814,1.737,3.491,1.8,4.929.539s1.891-3.311,2.061-5.22c.69-8.338-2.649-16.575-2.26-24.934.116-2.528.827-5.4,3.092-6.539,3.048-1.546,6.715,1.031,10.07.539a19.977,19.977,0,0,1,.964,12.19c-.533,2.224-1.456,4.38-1.523,6.673-.1,3.491,1.783,6.681,3.411,9.768a5.2,5.2,0,0,1,.688,1.884,4.539,4.539,0,0,1-.368,1.971c-.92,2.476-2.507,4.775-2.687,7.41a1.2,1.2,0,0,0,.193.881,1.108,1.108,0,0,0,.665.3c2.783.477,5.189-1.989,6.547-4.465a20.935,20.935,0,0,0,2.582-8.895c.281-5.246-1.6-10.407-1.484-15.658C577.089,70.171,579.787,64.159,578.207,58.4Z" transform="translate(405.39 367.47)" fill="#3e373a"/>
    <path id="Path_91" data-name="Path 91" d="M581.79,471.833l10.222.327-1.466-7.58-7.83.745Z" transform="translate(396.116 68.123)" fill="#c3c7d9"/>
    <path id="Path_92" data-name="Path 92" d="M656.455,420.406c-.688.858-3.35,2.4-3.607,2.919s-3.435,2.061-5.068,2.319-6.784,1.376-7.73,1.976c-.678.433-6.117,1.8-9.691,2.564a27.511,27.511,0,0,1-2.935.528c-1.546.085-18.464-5.669-18.464-5.669l3.262-3.35.18-.062c.923-.312,5.184-1.752,7.55-2.437,2.664-.773,5.756-3.95,5.756-3.95s4.55-1.546,5.153-1.719-1.546-6.011-1.546-6.011,9.876-1.371,13.741-2.533,12.8-.732,14.429,3.821S657.153,419.548,656.455,420.406Z" transform="translate(353.123 101.584)" fill="#4b4b5b"/>
    <path id="Path_93" data-name="Path 93" d="M555.774,496.523s-1.974,2.061-3.95,1.891-8.887.515-8.887.515a13.856,13.856,0,0,0-3.481,2.018c-1.616,1.273-2.474.258-2.633.041l-.028-.041c-.861,2.708-2.834.644-2.834.644s.858-8.245.6-9.276,1.7-2.8,1.7-2.8l2.319-.59,5.875-1.5,8.418,2.919Z" transform="translate(408.798 39.981)" fill="#e7c7ca"/>
    <path id="Path_94" data-name="Path 94" d="M538.562,493.26l-1.739,12.064-.028-.041c-.861,2.708-2.834.644-2.834.644s.858-8.245.6-9.276,1.7-2.8,1.7-2.8Z" transform="translate(408.798 35.645)" opacity="0.1"/>
    <path id="Path_95" data-name="Path 95" d="M599,360.08s4.55,1.546,8.5,0" transform="translate(360.516 134.51)" opacity="0.1"/>
    <path id="Path_96" data-name="Path 96" d="M659.29,371.42a3.758,3.758,0,0,0,3.35,0" transform="translate(315.761 126.092)" opacity="0.1"/>
    <path id="Path_97" data-name="Path 97" d="M659.29,378.853s3.177.425,3.78-.433" transform="translate(315.761 120.895)" opacity="0.1"/>
    <path id="Path_98" data-name="Path 98" d="M655.29,393.554s5.967-.773,7.449-1.8" transform="translate(318.73 111)" opacity="0.1"/>
    <path id="Path_99" data-name="Path 99" d="M584.62,391.75s3.35,1.889,5.841,1.8" transform="translate(371.191 111)" opacity="0.1"/>
    <path id="Path_100" data-name="Path 100" d="M630.349,479.732a27.519,27.519,0,0,1-2.935.528c-1.546.085-18.464-5.669-18.464-5.669l3.262-3.35.18-.062c.515.363.938.675,1.239.912,1.42,1.118,2.791-.343,3.306-.343s4.981,3.692,4.981,3.692,4.123.946,4.811,1.8,3.092.688,3.52,1.288A2.3,2.3,0,0,1,630.349,479.732Z" transform="translate(353.13 52.036)" opacity="0.1"/>
    <path id="Path_101" data-name="Path 101" d="M495.984,408.965s-4.169.24-6.573-.773-10.392-3.35-12.711-1.708-7.9,3.092-5.326,9.621,3.78,6.7,3.78,6.7a9.3,9.3,0,0,1,2.061,2.139c.773,1.2,7.988,3.95,9.791,3.95s4.981,0,9.446,3.092a19.413,19.413,0,0,0,8.5,3.437s5.669,2.319,7.434,2.834,9.83,2.747,11.721,2.061,3.092-4.983,3.092-4.983.858-3.865.428-4.465-2.834-.43-3.52-1.288-4.811-1.8-4.811-1.8-4.455-3.695-4.97-3.695-1.886,1.458-3.306.343a75.411,75.411,0,0,0-8.892-5.669C498.87,417.038,495.984,408.965,495.984,408.965Z" transform="translate(455.751 100.484)" fill="#4b4b5b"/>
    <path id="Path_102" data-name="Path 102" d="M536.27,427.133a4.921,4.921,0,0,1,4.223,1.116c2.061,1.719,9,5.169,9,5.169" transform="translate(407.083 84.808)" opacity="0.1"/>
    <path id="Path_103" data-name="Path 103" d="M704.867,427s-9.191,1.391-10.907,3.28" transform="translate(290.024 84.833)" opacity="0.1"/>
    <path id="Path_104" data-name="Path 104" d="M709.24,500.3h-.4a69.267,69.267,0,0,0-7.325,0c-1.116.258-15.89,0-15.89,0l2.888-.6s-1.072-3.757-.392-4.069c0,0-3.865-2.546-.951-4.264a9.041,9.041,0,0,1,6.055-.995l7.315-2.479,1.4-.477s8.245.43,10.477,6.1S709.24,500.3,709.24,500.3Z" transform="translate(296.215 39.981)" fill="#e7c7ca"/>
    <path id="Path_105" data-name="Path 105" d="M752.214,500.34h-.4c2.4-1.979,7.825-8-8.3-12.394l1.4-.477s8.245.43,10.477,6.1S752.214,500.34,752.214,500.34Z" transform="translate(253.241 39.943)" opacity="0.1"/>
    <circle id="Ellipse_8" data-name="Ellipse 8" cx="0.451" cy="0.451" r="0.451" transform="translate(989.846 532.703)" fill="#4b4b5b"/>
    <circle id="Ellipse_9" data-name="Ellipse 9" cx="0.451" cy="0.451" r="0.451" transform="translate(987.226 533.448)" fill="#4b4b5b"/>
    <g id="Group_1" data-name="Group 1" transform="translate(944.011 429.203)" opacity="0.1">
      <path id="Path_106" data-name="Path 106" d="M616.475,115.981A19.991,19.991,0,0,0,615,107.7c-3.35.5-7.019-2.085-10.069-.539-2.257,1.144-2.966,4.012-3.092,6.54-.031.667-.036,1.335-.023,2,0-.237,0-.477.023-.714.119-2.528.827-5.4,3.092-6.539,3.051-1.546,6.715,1.031,10.069.539A19.938,19.938,0,0,1,616.475,115.981Z" transform="translate(-585.576 -106.572)"/>
      <path id="Path_107" data-name="Path 107" d="M552.805,117a8.581,8.581,0,0,0-.034-1.685c-.273-2.267-1.512-4.434-1.737-6.645-.289,2.667,1.409,5.228,1.737,7.933A1.61,1.61,0,0,1,552.805,117Z" transform="translate(-547.864 -108.062)"/>
      <path id="Path_108" data-name="Path 108" d="M557.34,208.908c-.16,1.912-.611,3.955-2.061,5.223s-4.123,1.2-4.929-.539c-.258-.515-.3-1.116-.546-1.631-.572-1.18-1.979-1.639-3.208-2.1-3.491-1.306-6.859-3.865-7.609-7.526a7.914,7.914,0,0,1-.137-1,8.122,8.122,0,0,0,.137,2.293c.75,3.651,4.123,6.22,7.609,7.526,1.229.461,2.636.92,3.208,2.1.258.515.3,1.111.546,1.631.812,1.737,3.489,1.8,4.929.539s1.889-3.311,2.061-5.223a29.409,29.409,0,0,0,.08-3.025C557.42,207.756,557.387,208.333,557.34,208.908Z" transform="translate(-538.823 -176.847)"/>
      <path id="Path_109" data-name="Path 109" d="M687.93,119.5v1.116c.144-4.793,1.9-9.611,1.729-14.3C689.525,110.649,688.028,115.086,687.93,119.5Z" transform="translate(-649.51 -106.31)"/>
      <path id="Path_110" data-name="Path 110" d="M654.826,199.035a3.32,3.32,0,0,0,.059-.93,5.152,5.152,0,0,0-.688-1.884c-1.489-2.834-3.187-5.736-3.388-8.882,0,.134-.018.258-.021.4-.1,3.489,1.78,6.681,3.409,9.768A6.188,6.188,0,0,1,654.826,199.035Z" transform="translate(-621.936 -166.462)"/>
      <path id="Path_111" data-name="Path 111" d="M664.8,216.775a20.966,20.966,0,0,1-2.6,8.895c-1.36,2.476-3.764,4.942-6.55,4.465a1.1,1.1,0,0,1-.665-.3.646.646,0,0,1-.121-.2c-.031.2-.057.4-.072.611a1.188,1.188,0,0,0,.193.879,1.1,1.1,0,0,0,.665.3c2.785.477,5.189-1.989,6.55-4.465a20.967,20.967,0,0,0,2.6-8.895c.031-.6.034-1.2.016-1.8C664.807,216.433,664.807,216.6,664.8,216.775Z" transform="translate(-624.896 -187.93)"/>
    </g>
    <path id="Path_112" data-name="Path 112" d="M695.31,509.739a9.117,9.117,0,0,0,10.822-3.319" transform="translate(289.022 25.876)" fill="none" stroke="#000" stroke-miterlimit="10" stroke-width="1" opacity="0.1"/>
    <path id="Path_113" data-name="Path 113" d="M700.29,533.327a12.714,12.714,0,0,1,12.11-.113" transform="translate(285.325 7.07)" fill="none" stroke="#000" stroke-miterlimit="10" stroke-width="1" opacity="0.1"/>
    <path id="Path_114" data-name="Path 114" d="M561.93,527.192s2.237-5.045,8.209-1.2" transform="translate(388.035 12.42)" fill="none" stroke="#000" stroke-miterlimit="10" stroke-width="1" opacity="0.1"/>
    <path id="Path_115" data-name="Path 115" d="M533.79,230.726l4.561-4.123s17.683-1.159,18.415,4.852c0,0,6.269-7.127,19.454-5.54l5.578,4.442-15.419,6.766-14.983,5.2-11.036-4.939Z" transform="translate(408.924 234.276)" opacity="0.1"/>
    <path id="Path_116" data-name="Path 116" d="M533.79,231.726l4.561-4.123s17.683-1.16,18.415,4.852c0,0,6.269-7.127,19.454-5.54l5.578,4.442-15.419,6.766-14.983,5.2-11.036-4.939Z" transform="translate(408.924 233.534)" fill="#d5d6db"/>
    <path id="Path_117" data-name="Path 117" d="M437.38,204.83l2.018,24.135,21.386,1.074-.928-24.032-.018-.4Z" transform="translate(503.317 260.945)" opacity="0.1"/>
    <path id="Path_118" data-name="Path 118" d="M437.38,202.83l2.018,24.135,21.386,1.074-.928-24.032-.018-.4Z" transform="translate(503.317 262.43)" fill="#4c1aaf"/>
    <path id="Path_119" data-name="Path 119" d="M571.771,202.83l-22.061,3.308v24.244l21.559-3.115Z" transform="translate(419.93 262.43)" opacity="0.1"/>
    <path id="Path_120" data-name="Path 120" d="M571.771,200.83l-22.061,3.308v24.244l21.559-3.115Z" transform="translate(419.93 263.915)" fill="#4c1aaf"/>
    <path id="Path_121" data-name="Path 121" d="M580.807,223.79l-11.917,1.324.26,4.061L580.8,227.9Z" transform="translate(405.692 246.871)" fill="#fff" opacity="0.3"/>
    <path id="Path_122" data-name="Path 122" d="M536.8,328.154l1.214,3.265a4.055,4.055,0,0,0,3.777.773c1.974-.773,3.695-1.157,4.553-1.909s2.061-4.532,2.061-4.532,1.2-4.123,2.4-5.153,4.38-15.23,0-13.842-7.73,14.272-7.73,14.272a3.055,3.055,0,0,1-1.889,1.031c-1.116.088-3.35-.173-3.78.773S535.51,326.265,536.8,328.154Z" transform="translate(407.076 174.166)" fill="#be6f72"/>
    <path id="Path_123" data-name="Path 123" d="M619.65,254.433a7.421,7.421,0,0,1-6.47-1.613l.93,24.03a6.558,6.558,0,0,0,5.54,1.829Z" transform="translate(349.99 214.133)" opacity="0.1"/>
    <path id="Path_124" data-name="Path 124" d="M619.65,252.433a7.421,7.421,0,0,1-6.47-1.613l.93,24.03a6.558,6.558,0,0,0,5.54,1.829Z" transform="translate(349.99 215.617)" fill="#4c1aaf"/>
    <path id="Path_125" data-name="Path 125" d="M619.65,252.433a7.421,7.421,0,0,1-6.47-1.613l.93,24.03a6.558,6.558,0,0,0,5.54,1.829Z" transform="translate(349.99 215.617)" opacity="0.1"/>
    <path id="Path_126" data-name="Path 126" d="M640.29,239.67s8.974-2.744,11.314-2.358" transform="translate(329.866 225.672)" opacity="0.1"/>
    <path id="Path_127" data-name="Path 127" d="M572.082,237.365s-8.7-2.061-10.152-1.476" transform="translate(388.035 226.779)" opacity="0.1"/>
    <path id="Path_128" data-name="Path 128" d="M662.25,243.762s6-2.2,8.171-1.154" transform="translate(313.564 221.923)" opacity="0.1"/>
    <path id="Path_129" data-name="Path 129" d="M650.52,449.124a19.732,19.732,0,0,1,2.958-1.837,48.282,48.282,0,0,0,4.38-2.677" transform="translate(322.271 71.76)" opacity="0.1"/>
    <path id="Path_130" data-name="Path 130" d="M542.555,360.08s-3.764,3.079-4.9,3.35-1.829,2.672-1.829,2.672" transform="translate(407.41 134.51)" opacity="0.1"/>
    <path id="Path_131" data-name="Path 131" d="M668.527,326.4l-1.2,3.272a4.058,4.058,0,0,1-3.78.773c-1.976-.773-3.692-1.157-4.553-1.909S656.933,324,656.933,324s-1.2-4.123-2.4-5.153-4.38-15.231,0-13.842,7.73,14.272,7.73,14.272a3.055,3.055,0,0,0,1.889,1.031c1.116.088,3.35-.173,3.78.773S669.816,324.515,668.527,326.4Z" transform="translate(320.96 175.465)" fill="#be6f72"/>
    <path id="Path_132" data-name="Path 132" d="M707.15,364.94s2.461,1.582,2.45,3.473" transform="translate(280.233 130.902)" opacity="0.1"/>
    <circle id="Ellipse_10" data-name="Ellipse 10" cx="11.51" cy="11.51" r="11.51" transform="translate(954.995 426.963)" fill="#be6f72"/>
    <path id="Path_133" data-name="Path 133" d="M581.65,95.34a23.591,23.591,0,0,0,3.955-1.5c2.986-1.049,6.29-.33,9.312.616a12.077,12.077,0,0,0,3.553.773,3.6,3.6,0,0,0,3.128-1.546,3.5,3.5,0,0,0-.021-3.229,9.092,9.092,0,0,0-2.1-2.595c-2.68-2.53-6-4.9-9.68-4.638a13.323,13.323,0,0,0-4.254,1.219,46.9,46.9,0,0,0-4.994,2.515c-1.239.719-3.535,1.68-4.249,2.994C574.675,92.913,579.125,95.737,581.65,95.34Z" transform="translate(377.627 340.044)" fill="#3e373a"/>
    <path id="Path_134" data-name="Path 134" d="M601.6,113.8a3.6,3.6,0,0,1-3.128,1.546,12.085,12.085,0,0,1-3.556-.758c-3.022-.946-6.323-1.667-9.312-.616a22.436,22.436,0,0,1-3.955,1.494c-2.036.32-5.313-1.453-5.669-3.708-.4,2.6,3.4,4.836,5.669,4.481a23.719,23.719,0,0,0,3.955-1.494c2.989-1.051,6.289-.33,9.312.616a11.6,11.6,0,0,0,3.556.758,3.623,3.623,0,0,0,3.128-1.546,3.017,3.017,0,0,0,.361-1.884A2.777,2.777,0,0,1,601.6,113.8Z" transform="translate(377.63 318.847)" opacity="0.1"/>
    <path id="Path_141" data-name="Path 141" d="M995.64,670.215c0,.7.077,1.273.175,1.273s.178-.57.178-1.273-.1-.371-.2-.371S995.64,669.512,995.64,670.215Z" transform="translate(66.076 -95.381)" fill="#ffd037"/>
    <path id="Path_142" data-name="Path 142" d="M990.78,673.342c.616.335,1.154.539,1.2.453s-.415-.428-1.031-.773-.374-.093-.42,0S990.161,673,990.78,673.342Z" transform="translate(69.962 -97.668)" fill="#ffd037"/>
  </g>
</svg>
