<svg width="319" height="258" viewBox="0 0 319 258" fill="none" xmlns="http://www.w3.org/2000/svg">
<path d="M44.0715 139.705C13.7061 124.448 15.3388 84.3474 22.4964 56.5081C27.0374 38.8524 36.9284 21.9841 52.3735 11.8149C92.9578 -14.9018 142.405 12.0846 186.182 11.8004C222.269 11.5671 283.999 -13.3418 294.692 38.6046C300.501 66.823 298.023 99.5246 278.35 122.327C254.384 150.108 214.07 149.612 179.928 150.181C177.217 150.224 174.498 150.268 171.787 150.326C131.202 151.187 81.682 158.608 44.0715 139.705Z" fill="#D2E2FF"/>
<path d="M64.1377 165.001C63.3286 163.076 62.0458 161.385 61.2513 159.453C58.8314 153.57 61.3606 146.631 59.3927 140.58C57.4903 134.734 51.7685 130.797 49.6985 125.009C48.0949 120.512 48.9186 115.518 47.92 110.846C46.7392 105.291 41.7463 101.624 37.8249 97.9792C26.6875 87.657 31.039 67.8946 15.0327 61.4943C11.1769 59.9488 6.14026 60.1894 3.59645 63.4698C0.673613 67.2385 2.48125 72.8516 5.44053 76.5839C8.40709 80.3163 12.4305 83.2905 14.4641 87.5987C16.5487 92.0162 16.2645 97.3231 18.5969 101.617C22.2268 108.316 31.0536 110.656 35.2082 117.034C39.1515 123.085 37.9634 131.249 41.1341 137.737C43.8674 143.328 49.5163 147.039 52.337 152.586C54.1155 156.093 54.6476 160.109 56.2001 163.718C57.2133 166.072 59.0647 168.879 61.5356 169.914C65.2019 171.459 65.2165 167.567 64.1377 165.001Z" fill="#FF846E"/>
<path d="M48.9477 135.521C47.2858 132.649 45.7041 129.704 44.6181 126.562C43.4737 123.253 43.0656 119.775 42.2128 116.393C41.79 114.709 41.2433 113.047 40.4416 111.509C39.6471 109.978 38.561 108.644 37.3511 107.419C36.1193 106.18 34.7854 105.05 33.5171 103.847C32.2416 102.63 31.0827 101.311 30.0768 99.8526C26.1554 94.1739 24.5373 87.3581 22.1247 80.9942C19.9307 75.2062 16.884 69.2505 11.585 65.7295C10.9436 65.3067 10.2803 64.9277 9.59512 64.5851C9.17965 64.3809 8.80792 65.0079 9.23067 65.212C14.9962 68.0477 18.4365 73.8284 20.7908 79.5727C23.3492 85.8054 24.8361 92.49 28.2692 98.3509C29.1074 99.7797 30.0549 101.143 31.1337 102.397C32.2708 103.716 33.5682 104.883 34.8583 106.056C36.1557 107.237 37.4604 108.433 38.5319 109.832C39.5815 111.21 40.3395 112.77 40.8935 114.403C42.0232 117.742 42.3804 121.27 43.2842 124.659C44.1297 127.823 45.5219 130.805 47.089 133.677C50.2305 139.428 54.1956 144.896 55.9304 151.296C56.1418 152.076 56.3167 152.863 56.4552 153.658C56.5354 154.117 57.2351 153.92 57.1549 153.468C56.0033 146.886 52.2349 141.214 48.9477 135.521Z" fill="#E06858"/>
<path d="M60.916 166.473C54.3634 152.557 46.7611 139.02 36.8774 127.24C26.9864 115.46 14.6901 105.451 0.403936 99.7433C0.0686482 106.253 3.37779 112.559 8.45812 116.634C10.6521 118.398 13.2688 119.768 14.8213 122.115C17.868 126.737 15.8782 133.713 19.6684 137.745C23.0869 141.382 29.9092 141.032 32.1105 145.515C33.3496 148.038 32.5332 151.216 33.8379 153.702C35.0041 155.925 37.5334 157.011 39.8731 157.922C46.8923 160.685 53.9042 163.725 60.916 166.473Z" fill="#D1A347"/>
<path d="M73.8246 157.31C72.0097 130.805 68.1466 104.219 59.123 79.2301C50.0994 54.241 35.6456 30.7974 15.1566 13.8853C12.3722 18.5434 13.728 25.3301 15.7834 30.3527C17.8389 35.3753 22.4017 37.8465 23.3347 43.1898C24.4936 49.8745 20.7982 59.4094 23.67 65.5473C26.0388 70.621 31.4253 73.9378 33.2402 79.2374C35.1572 84.8213 32.5915 91.0103 33.5828 96.8274C35.4196 107.609 48.248 113.076 52.3079 123.238C54.0499 127.597 54.0062 132.438 55.0412 137.016C57.0675 146.004 65.4205 153.527 73.8246 157.31Z" fill="#FFD26E"/>
<path d="M267.774 150.071C268.08 147.702 268.976 145.442 269.268 143.081C270.143 135.856 265.237 128.975 265.565 121.707C265.879 114.687 270.995 108.6 271.506 101.588C271.907 96.1422 269.479 90.879 269.151 85.4336C268.765 78.9531 273.146 73.3838 276.367 68.1716C285.5 53.3954 274.684 32.9332 290.384 21C294.167 18.1206 299.794 16.8522 303.598 19.6951C307.964 22.9609 307.688 29.7039 305.559 34.7192C303.431 39.7345 299.896 44.2468 298.963 49.6194C298.008 55.1304 299.939 60.8892 298.678 66.3346C296.71 74.8271 287.701 80.0903 285.056 88.4006C282.556 96.2734 286.353 104.912 284.83 113.032C283.525 120.031 278.423 125.84 277.001 132.817C276.105 137.227 276.746 141.812 276.134 146.273C275.733 149.182 274.545 152.841 272.132 154.73C268.568 157.521 267.366 153.235 267.774 150.071Z" fill="#FF846E"/>
<path d="M296.332 25.5124C292.359 29.6821 290.675 35.4118 289.917 40.9957C289.043 47.4616 289.371 54.0588 287.942 60.4592C286.579 66.5752 283.139 71.7874 280.522 77.3931C279.268 80.083 278.248 82.8896 277.774 85.8273C277.3 88.7213 277.271 91.6737 277.322 94.6041C277.424 100.378 277.993 106.472 275.886 111.983C275.631 112.653 275.34 113.302 275.012 113.936C274.793 114.359 275.464 114.68 275.682 114.257C278.372 109.045 278.284 103.067 278.131 97.3596C278.051 94.4073 277.949 91.4404 278.197 88.4953C278.445 85.4993 279.13 82.6126 280.267 79.8279C282.526 74.2659 286.018 69.2724 287.869 63.5354C289.939 57.1569 289.75 50.3775 290.347 43.773C290.858 38.1381 292.031 32.197 295.523 27.5899C295.945 27.0286 296.404 26.4965 296.893 25.9862C297.228 25.6436 296.66 25.1625 296.332 25.5124Z" fill="#E06858"/>
<path d="M268.554 169.054C275.624 142.789 293.773 119.695 317.622 106.617C319.517 112.077 318.694 118.82 315.297 123.5C313.555 125.891 311.23 127.867 309.823 130.469C307.986 133.888 307.753 138.335 304.743 140.792C302.228 142.847 298.438 142.84 296.04 145.034C293.518 147.33 293.358 151.23 291.579 154.139C289.947 156.822 287.053 158.476 284.123 159.599C281.193 160.729 278.102 161.443 275.289 162.843C272.482 164.25 269.37 166.021 268.554 169.054Z" fill="#D1A347"/>
<path d="M265.726 172.276C263.546 129.128 281.798 85.3826 313.992 56.5737C318.461 66.7793 316.135 79.631 308.657 87.883C306.572 90.1792 304.08 92.2058 302.746 95.005C300.399 99.911 302.199 105.677 303.737 110.889C305.275 116.101 306.354 122.276 302.972 126.54C298.97 131.585 290.53 131.49 286.944 136.833C283.766 141.572 286.003 148.227 283.722 153.461C281.929 157.58 277.745 160 274.108 162.624C270.471 165.249 265.361 167.807 265.726 172.276Z" fill="#FFD26E"/>
<path d="M286.995 257.493H31.8044C27.1177 257.493 24.2094 253.374 25.2809 248.373L40.6895 176.679C41.5205 172.815 45.4564 169.725 49.4872 169.725H269.297C273.335 169.725 277.271 172.815 278.095 176.679L293.504 248.373C294.59 253.374 291.681 257.493 286.995 257.493Z" fill="#1E3356"/>
<path d="M285.486 250.173H33.306C28.6775 250.173 25.7255 246.441 26.695 241.9L40.7989 176.161C41.5642 172.582 45.4492 169.717 49.4872 169.717H269.297C273.335 169.717 277.22 172.582 277.986 176.161L292.09 241.9C293.066 246.441 290.114 250.173 285.486 250.173Z" fill="#2B4172"/>
<path d="M265.07 213.689H53.7293C51.6374 213.689 50.2306 212.092 50.5951 210.138L56.8635 176.329C57.1842 174.601 59.021 173.209 60.9744 173.209H257.825C259.778 173.209 261.615 174.601 261.936 176.329L268.204 210.138C268.561 212.092 267.162 213.689 265.07 213.689Z" fill="#1E3356"/>
<path d="M73.5768 178.516H62.1989C61.8636 178.516 61.6377 178.275 61.6887 177.984L62.0386 176.008C62.0896 175.716 62.3957 175.483 62.731 175.483H74.0506C74.3786 175.483 74.6118 175.716 74.5681 176.008L74.262 177.984C74.2182 178.275 73.9121 178.516 73.5768 178.516Z" fill="#D2E2FF"/>
<path d="M90.2173 178.516H78.8394C78.5041 178.516 78.2709 178.275 78.3146 177.984L78.6061 176.008C78.6499 175.716 78.9487 175.483 79.284 175.483H90.6036C90.9316 175.483 91.1721 175.716 91.1357 176.008L90.8952 177.984C90.8441 178.275 90.5453 178.516 90.2173 178.516Z" fill="#D2E2FF"/>
<path d="M106.851 178.516H95.4726C95.1373 178.516 94.8968 178.275 94.9332 177.984L95.1592 176.008C95.1956 175.716 95.4872 175.483 95.8152 175.483H107.135C107.463 175.483 107.711 175.716 107.681 176.008L107.499 177.984C107.477 178.275 107.186 178.516 106.851 178.516Z" fill="#D2E2FF"/>
<path d="M123.491 178.516H112.113C111.778 178.516 111.53 178.275 111.559 177.984L111.727 176.008C111.748 175.716 112.04 175.483 112.368 175.483H123.688C124.016 175.483 124.271 175.716 124.249 176.008L124.125 177.984C124.11 178.275 123.826 178.516 123.491 178.516Z" fill="#D2E2FF"/>
<path d="M140.131 178.516H128.753C128.418 178.516 128.163 178.275 128.185 177.984L128.294 176.008C128.309 175.716 128.593 175.483 128.921 175.483H140.241C140.569 175.483 140.831 175.716 140.824 176.008L140.758 177.984C140.736 178.275 140.459 178.516 140.131 178.516Z" fill="#D2E2FF"/>
<path d="M156.765 178.516H145.387C145.051 178.516 144.789 178.275 144.804 177.984L144.855 176.008C144.862 175.716 145.139 175.483 145.467 175.483H156.786C157.114 175.483 157.384 175.716 157.384 176.008L157.377 177.984C157.37 178.275 157.1 178.516 156.765 178.516Z" fill="#D2E2FF"/>
<path d="M173.405 178.516H162.027C161.699 178.516 161.422 178.275 161.422 177.984L161.415 176.008C161.415 175.716 161.677 175.483 162.012 175.483H173.332C173.66 175.483 173.937 175.716 173.944 176.008L173.995 177.984C174.003 178.275 173.74 178.516 173.405 178.516Z" fill="#D2E2FF"/>
<path d="M190.045 178.516H178.667C178.332 178.516 178.063 178.275 178.048 177.984L177.982 176.008C177.975 175.716 178.23 175.483 178.565 175.483H189.885C190.213 175.483 190.497 175.716 190.512 176.008L190.621 177.984C190.628 178.275 190.373 178.516 190.045 178.516Z" fill="#D2E2FF"/>
<path d="M206.679 178.516H195.301C194.966 178.516 194.689 178.275 194.667 177.984L194.543 176.008C194.521 175.716 194.776 175.483 195.104 175.483H206.424C206.752 175.483 207.043 175.716 207.065 176.008L207.233 177.984C207.262 178.275 207.014 178.516 206.679 178.516Z" fill="#D2E2FF"/>
<path d="M223.319 178.516H211.941C211.606 178.516 211.322 178.275 211.292 177.984L211.11 176.008C211.081 175.716 211.329 175.483 211.657 175.483H222.977C223.305 175.483 223.603 175.716 223.633 176.008L223.858 177.984C223.895 178.275 223.654 178.516 223.319 178.516Z" fill="#D2E2FF"/>
<path d="M239.96 178.516H228.582C228.246 178.516 227.955 178.275 227.918 177.984L227.678 176.008C227.641 175.716 227.882 175.483 228.21 175.483H239.53C239.858 175.483 240.164 175.716 240.207 176.008L240.499 177.984C240.521 178.275 240.288 178.516 239.96 178.516Z" fill="#D2E2FF"/>
<path d="M256.593 178.516H245.215C244.88 178.516 244.581 178.275 244.53 177.984L244.224 176.008C244.18 175.716 244.413 175.483 244.741 175.483H256.061C256.389 175.483 256.702 175.716 256.753 176.008L257.103 177.984C257.154 178.275 256.928 178.516 256.593 178.516Z" fill="#D2E2FF"/>
<path d="M72.3741 186.294H60.8358C60.5005 186.294 60.2673 186.046 60.3256 185.747L61.1565 181.023C61.2075 180.725 61.521 180.484 61.8563 180.484H73.2706C73.6059 180.484 73.8391 180.725 73.7881 181.023L73.0665 185.747C73.0228 186.046 72.7094 186.294 72.3741 186.294Z" fill="#D2E2FF"/>
<path d="M89.2478 186.294H77.7096C77.3743 186.294 77.1338 186.046 77.1775 185.747L77.8699 181.023C77.9137 180.725 78.2198 180.484 78.5478 180.484H89.9695C90.3047 180.484 90.5453 180.725 90.5088 181.023L89.9257 185.747C89.882 186.046 89.5831 186.294 89.2478 186.294Z" fill="#D2E2FF"/>
<path d="M106.114 186.294H94.5761C94.2408 186.294 93.993 186.046 94.0294 185.747L94.5761 181.023C94.6125 180.725 94.9114 180.484 95.2394 180.484H106.661C106.996 180.484 107.244 180.725 107.215 181.023L106.77 185.747C106.749 186.046 106.457 186.294 106.114 186.294Z" fill="#D2E2FF"/>
<path d="M122.988 186.294H111.45C111.114 186.294 110.859 186.046 110.889 185.747L111.297 181.023C111.326 180.725 111.61 180.484 111.945 180.484H123.367C123.702 180.484 123.957 180.725 123.936 181.023L123.637 185.747C123.615 186.046 123.323 186.294 122.988 186.294Z" fill="#D2E2FF"/>
<path d="M139.862 186.294H128.323C127.988 186.294 127.726 186.046 127.748 185.747L128.01 181.023C128.025 180.725 128.309 180.484 128.644 180.484H140.066C140.401 180.484 140.663 180.725 140.649 181.023L140.489 185.747C140.474 186.046 140.197 186.294 139.862 186.294Z" fill="#D2E2FF"/>
<path d="M156.728 186.294H145.19C144.855 186.294 144.585 186.046 144.592 185.747L144.716 181.023C144.723 180.725 145 180.484 145.336 180.484H156.757C157.093 180.484 157.362 180.725 157.355 181.023L157.34 185.747C157.34 186.046 157.063 186.294 156.728 186.294Z" fill="#D2E2FF"/>
<path d="M173.602 186.294H162.064C161.728 186.294 161.451 186.046 161.451 185.747L161.437 181.023C161.437 180.725 161.706 180.484 162.034 180.484H173.456C173.791 180.484 174.068 180.725 174.076 181.023L174.2 185.747C174.207 186.046 173.937 186.294 173.602 186.294Z" fill="#D2E2FF"/>
<path d="M190.476 186.294H178.937C178.602 186.294 178.318 186.046 178.31 185.747L178.15 181.023C178.143 180.725 178.405 180.484 178.733 180.484H190.155C190.49 180.484 190.774 180.725 190.789 181.023L191.051 185.747C191.066 186.046 190.811 186.294 190.476 186.294Z" fill="#D2E2FF"/>
<path d="M207.342 186.294H195.804C195.468 186.294 195.177 186.046 195.162 185.747L194.863 181.023C194.842 180.725 195.097 180.484 195.432 180.484H206.854C207.189 180.484 207.48 180.725 207.502 181.023L207.91 185.747C207.932 186.046 207.677 186.294 207.342 186.294Z" fill="#D2E2FF"/>
<path d="M224.216 186.294H212.677C212.342 186.294 212.043 186.046 212.014 185.747L211.569 181.023C211.54 180.725 211.788 180.484 212.123 180.484H223.545C223.88 180.484 224.179 180.725 224.208 181.023L224.755 185.747C224.799 186.046 224.551 186.294 224.216 186.294Z" fill="#D2E2FF"/>
<path d="M241.089 186.294H229.551C229.216 186.294 228.91 186.046 228.873 185.747L228.29 181.023C228.254 180.725 228.494 180.484 228.829 180.484H240.251C240.586 180.484 240.892 180.725 240.929 181.023L241.621 185.747C241.658 186.046 241.425 186.294 241.089 186.294Z" fill="#D2E2FF"/>
<path d="M257.956 186.294H246.417C246.082 186.294 245.769 186.046 245.725 185.747L245.003 181.023C244.96 180.725 245.193 180.484 245.521 180.484H256.943C257.278 180.484 257.591 180.725 257.642 181.023L258.473 185.747C258.524 186.046 258.291 186.294 257.956 186.294Z" fill="#D2E2FF"/>
<path d="M88.2492 194.298H59.4364C59.0938 194.298 58.8605 194.043 58.9189 193.737L59.7717 188.882C59.8227 188.576 60.1434 188.328 60.4787 188.328H88.9927C89.328 188.328 89.5758 188.576 89.5393 188.882L88.9417 193.737C88.8979 194.043 88.5918 194.298 88.2492 194.298Z" fill="#D2E2FF"/>
<path d="M105.364 194.298H93.6576C93.315 194.298 93.0672 194.043 93.1037 193.737L93.6649 188.882C93.7013 188.576 94.0002 188.328 94.3428 188.328H105.925C106.26 188.328 106.515 188.576 106.486 188.882L106.034 193.737C105.998 194.043 105.699 194.298 105.364 194.298Z" fill="#D2E2FF"/>
<path d="M122.47 194.298H110.772C110.429 194.298 110.174 194.043 110.203 193.737L110.619 188.882C110.648 188.576 110.939 188.328 111.275 188.328H122.857C123.192 188.328 123.454 188.576 123.433 188.882L123.126 193.737C123.105 194.043 122.813 194.298 122.47 194.298Z" fill="#D2E2FF"/>
<path d="M139.585 194.298H127.886C127.544 194.298 127.281 194.043 127.303 193.737L127.58 188.882C127.595 188.576 127.886 188.328 128.221 188.328H139.803C140.139 188.328 140.408 188.576 140.394 188.882L140.233 193.737C140.212 194.043 139.92 194.298 139.585 194.298Z" fill="#D2E2FF"/>
<path d="M156.692 194.298H144.993C144.65 194.298 144.381 194.043 144.388 193.737L144.519 188.882C144.527 188.576 144.811 188.328 145.146 188.328H156.728C157.063 188.328 157.34 188.576 157.34 188.882L157.326 193.737C157.311 194.043 157.034 194.298 156.692 194.298Z" fill="#D2E2FF"/>
<path d="M173.806 194.298H162.107C161.765 194.298 161.488 194.043 161.488 193.737L161.473 188.882C161.473 188.576 161.743 188.328 162.085 188.328H173.667C174.003 188.328 174.287 188.576 174.294 188.882L174.425 193.737C174.418 194.043 174.141 194.298 173.806 194.298Z" fill="#D2E2FF"/>
<path d="M190.913 194.298H179.214C178.872 194.298 178.587 194.043 178.58 193.737L178.42 188.882C178.412 188.576 178.675 188.328 179.01 188.328H190.592C190.927 188.328 191.219 188.576 191.234 188.882L191.511 193.737C191.518 194.043 191.255 194.298 190.913 194.298Z" fill="#D2E2FF"/>
<path d="M208.027 194.298H196.328C195.986 194.298 195.694 194.043 195.673 193.737L195.366 188.882C195.345 188.576 195.607 188.328 195.942 188.328H207.524C207.859 188.328 208.158 188.576 208.18 188.882L208.596 193.737C208.625 194.043 208.37 194.298 208.027 194.298Z" fill="#D2E2FF"/>
<path d="M225.134 194.298H213.435C213.093 194.298 212.794 194.043 212.765 193.737L212.313 188.882C212.284 188.576 212.532 188.328 212.874 188.328H224.456C224.791 188.328 225.098 188.576 225.134 188.882L225.695 193.737C225.724 194.043 225.477 194.298 225.134 194.298Z" fill="#D2E2FF"/>
<path d="M259.355 194.298H230.542C230.2 194.298 229.894 194.043 229.857 193.737L229.26 188.882C229.223 188.576 229.464 188.328 229.806 188.328H258.32C258.655 188.328 258.976 188.576 259.027 188.882L259.88 193.737C259.931 194.043 259.698 194.298 259.355 194.298Z" fill="#D2E2FF"/>
<path d="M104.584 202.528H57.9932C57.6507 202.528 57.4101 202.266 57.4684 201.952L58.3504 196.951C58.4087 196.638 58.7294 196.383 59.072 196.383H105.167C105.509 196.383 105.764 196.638 105.735 196.951L105.269 201.952C105.232 202.266 104.926 202.528 104.584 202.528Z" fill="#D2E2FF"/>
<path d="M121.938 202.528H110.065C109.722 202.528 109.46 202.266 109.489 201.952L109.919 196.951C109.948 196.638 110.247 196.383 110.59 196.383H122.332C122.675 196.383 122.937 196.638 122.915 196.951L122.594 201.952C122.58 202.266 122.281 202.528 121.938 202.528Z" fill="#D2E2FF"/>
<path d="M139.293 202.528H127.427C127.084 202.528 126.815 202.266 126.837 201.952L127.121 196.951C127.135 196.638 127.427 196.383 127.77 196.383H139.512C139.854 196.383 140.124 196.638 140.11 196.951L139.942 201.952C139.935 202.266 139.643 202.528 139.293 202.528Z" fill="#D2E2FF"/>
<path d="M156.655 202.528H144.782C144.439 202.528 144.162 202.266 144.169 201.952L144.301 196.951C144.308 196.638 144.592 196.383 144.935 196.383H156.677C157.02 196.383 157.297 196.638 157.297 196.951L157.275 201.952C157.282 202.266 156.998 202.528 156.655 202.528Z" fill="#D2E2FF"/>
<path d="M174.01 202.528H162.137C161.794 202.528 161.51 202.266 161.51 201.952L161.495 196.951C161.495 196.638 161.772 196.383 162.115 196.383H173.857C174.2 196.383 174.484 196.638 174.491 196.951L174.622 201.952C174.63 202.266 174.36 202.528 174.01 202.528Z" fill="#D2E2FF"/>
<path d="M191.372 202.528H179.498C179.156 202.528 178.864 202.266 178.85 201.952L178.682 196.951C178.675 196.638 178.937 196.383 179.28 196.383H191.022C191.365 196.383 191.656 196.638 191.671 196.951L191.955 201.952C191.984 202.266 191.715 202.528 191.372 202.528Z" fill="#D2E2FF"/>
<path d="M208.727 202.528H196.853C196.511 202.528 196.212 202.266 196.19 201.952L195.869 196.951C195.847 196.638 196.11 196.383 196.452 196.383H208.195C208.537 196.383 208.836 196.638 208.865 196.951L209.295 201.952C209.332 202.266 209.069 202.528 208.727 202.528Z" fill="#D2E2FF"/>
<path d="M260.798 202.528H215.083C214.74 202.528 214.434 202.266 214.398 201.952L213.924 196.951C213.895 196.638 214.15 196.383 214.492 196.383H259.727C260.07 196.383 260.39 196.638 260.449 196.951L261.33 201.952C261.382 202.266 261.148 202.528 260.798 202.528Z" fill="#D2E2FF"/>
<path d="M68.5548 210.999H56.5136C56.1637 210.999 55.9232 210.729 55.9815 210.401L56.8853 205.254C56.9436 204.934 57.2716 204.671 57.6142 204.671H69.5315C69.8814 204.671 70.1219 204.934 70.0709 205.254L69.2837 210.401C69.2326 210.736 68.9046 210.999 68.5548 210.999Z" fill="#D2E2FF"/>
<path d="M86.1647 210.999H74.1235C73.7737 210.999 73.5258 210.729 73.5769 210.401L74.3276 205.254C74.3713 204.934 74.692 204.671 75.0419 204.671H86.9592C87.3091 204.671 87.5569 204.934 87.5131 205.254L86.879 210.401C86.8353 210.736 86.5219 210.999 86.1647 210.999Z" fill="#D2E2FF"/>
<path d="M103.782 210.999H91.7407C91.3908 210.999 91.1357 210.729 91.1722 210.401L91.7699 205.254C91.8063 204.934 92.1197 204.671 92.4696 204.671H104.387C104.737 204.671 104.992 204.934 104.963 205.254L104.482 210.401C104.438 210.736 104.132 210.999 103.782 210.999Z" fill="#D2E2FF"/>
<path d="M121.392 210.999H109.35C109.001 210.999 108.738 210.729 108.767 210.401L109.212 205.254C109.241 204.934 109.547 204.671 109.89 204.671H121.807C122.157 204.671 122.419 204.934 122.398 205.254L122.07 210.401C122.04 210.736 121.742 210.999 121.392 210.999Z" fill="#D2E2FF"/>
<path d="M191.839 210.999H126.96C126.611 210.999 126.341 210.729 126.355 210.401L126.647 205.254C126.662 204.934 126.96 204.671 127.31 204.671H191.489C191.839 204.671 192.13 204.934 192.152 205.254L192.443 210.401C192.458 210.736 192.188 210.999 191.839 210.999Z" fill="#D2E2FF"/>
<path d="M209.448 210.999H197.4C197.05 210.999 196.744 210.729 196.729 210.401L196.401 205.254C196.379 204.934 196.649 204.671 196.992 204.671H208.909C209.259 204.671 209.558 204.934 209.587 205.254L210.031 210.401C210.061 210.736 209.798 210.999 209.448 210.999Z" fill="#D2E2FF"/>
<path d="M227.058 210.999H215.017C214.667 210.999 214.354 210.729 214.325 210.401L213.844 205.254C213.814 204.934 214.07 204.671 214.419 204.671H226.337C226.687 204.671 226.993 204.934 227.036 205.254L227.634 210.401C227.663 210.736 227.408 210.999 227.058 210.999Z" fill="#D2E2FF"/>
<path d="M244.668 210.999H232.627C232.277 210.999 231.956 210.729 231.92 210.401L231.286 205.254C231.249 204.934 231.497 204.671 231.84 204.671H243.757C244.107 204.671 244.428 204.934 244.471 205.254L245.222 210.401C245.266 210.736 245.025 210.999 244.668 210.999Z" fill="#D2E2FF"/>
<path d="M262.285 210.999H250.244C249.894 210.999 249.566 210.729 249.515 210.401L248.728 205.254C248.677 204.934 248.918 204.671 249.268 204.671H261.185C261.535 204.671 261.863 204.934 261.914 205.254L262.817 210.401C262.869 210.736 262.635 210.999 262.285 210.999Z" fill="#D2E2FF"/>
<path d="M198.442 245.967H120.349C117.594 245.967 115.517 243.759 115.706 241.054L117.062 221.897C117.237 219.382 119.511 217.355 122.143 217.355H196.649C199.28 217.355 201.555 219.382 201.73 221.897L203.085 241.054C203.275 243.759 201.197 245.967 198.442 245.967Z" fill="#1E3356"/>
<path d="M118.046 240.456L117.849 243.431C117.806 244.13 118.812 244.692 120.102 244.692H198.712C200.002 244.692 201.008 244.123 200.964 243.431L200.767 240.456H118.046Z" fill="#D2E2FF"/>
<path d="M267.599 169.717H51.1927C46.2145 169.717 42.1837 165.686 42.1837 160.707V31.7304C42.1837 26.7515 46.2145 22.7203 51.1927 22.7203H267.599C272.577 22.7203 276.608 26.7515 276.608 31.7304V160.707C276.608 165.686 272.577 169.717 267.599 169.717Z" fill="#2B4172"/>
<path d="M266.185 162.041H52.6142C51.0106 162.041 49.7059 160.736 49.7059 159.132V33.305C49.7059 31.7012 51.0106 30.3964 52.6142 30.3964H266.185C267.789 30.3964 269.093 31.7012 269.093 33.305V159.132C269.093 160.743 267.789 162.041 266.185 162.041Z" fill="white"/>
<path d="M98.4245 41.1487H55.5952V68.1862H98.4245V41.1487Z" fill="#D2E2FF"/>
<path d="M82.7899 54.6711L77.8699 57.514L72.9426 60.357V54.6711V48.9851L77.8699 51.8281L82.7899 54.6711Z" fill="#FA5C82"/>
<path d="M98.4245 69.8846H55.5952V71.2405H98.4245V69.8846Z" fill="#FA5C82"/>
<path d="M98.4245 77.2545H55.5952V104.292H98.4245V77.2545Z" fill="#D2E2FF"/>
<path d="M82.7899 90.7769L77.8699 93.6198L72.9426 96.4628V90.7769V85.0836L77.8699 87.9339L82.7899 90.7769Z" fill="#FA5C82"/>
<path d="M98.4245 105.991H55.5952V107.346H98.4245V105.991Z" fill="#FA5C82"/>
<path d="M98.4245 113.36H55.5952V140.398H98.4245V113.36Z" fill="#D2E2FF"/>
<path d="M82.7899 126.875L77.8699 129.718L72.9426 132.569V126.875V121.19L77.8699 124.032L82.7899 126.875Z" fill="#FA5C82"/>
<path d="M98.4245 142.096H55.5952V143.452H98.4245V142.096Z" fill="#FA5C82"/>
<path d="M98.4245 149.466H55.5952V153.22H98.4245V149.466Z" fill="#D2E2FF"/>
<path d="M258.903 41.1487H104.795V153.22H258.903V41.1487Z" fill="#D2E2FF"/>
<path d="M151.531 136.855C145.314 137.54 138.841 138.386 132.879 136.053C125.196 133.043 120.189 125.119 118.979 116.954C116.843 102.579 123.666 86.7749 133.273 76.3433C139.709 69.3525 148.776 63.8488 158.222 64.8839C166.269 65.7733 173.266 71.2187 181.313 72.1299C195.855 73.7701 209.222 60.3424 223.632 62.8574C232.846 64.4684 239.843 72.4652 243.225 81.1837C249.53 97.4324 245.885 117.873 233.356 130.214C226.14 137.322 215.979 141.375 205.862 141.338C200.709 141.324 195.483 139.392 190.388 138.575C184.863 137.686 179.302 137.074 173.718 136.724C166.823 136.294 159.84 135.98 152.967 136.695C152.486 136.746 152.012 136.804 151.531 136.855Z" fill="#E9F2FF"/>
<path d="M171.634 69.389C171.634 69.389 167.384 57.6161 172.72 55.7791C172.72 55.7791 176.022 49.5537 185.162 49.5537C194.302 49.5537 195.796 56.2019 195.796 56.2019C195.796 56.2019 200.913 55.8885 196.532 69.389H171.634Z" fill="#1B1B28"/>
<path d="M188.041 89.4065C188.034 87.5112 188.369 85.6231 189.018 83.8444C189.346 82.9551 189.754 82.0876 190.293 81.3149C191.248 79.9517 192.611 78.902 193.537 77.517C194.222 76.4964 194.659 75.3301 195.016 74.1564C196.212 70.2346 196.634 66.0721 196.241 61.9826C196.241 57.7619 172.224 57.7619 172.224 61.9826C171.83 66.0649 172.253 70.2273 173.449 74.1564C173.806 75.3301 174.243 76.4964 174.928 77.517C175.861 78.902 177.217 79.9517 178.172 81.3149C178.718 82.0876 179.127 82.9551 179.447 83.8444C180.096 85.6231 180.431 87.5184 180.424 89.4065C180.424 89.4065 174.119 96.5941 174.119 102.331C174.119 108.068 194.586 108.885 194.586 102.331C194.594 95.7777 188.041 89.4065 188.041 89.4065Z" fill="#E7AC8D"/>
<path d="M184.943 82.8603C184.724 82.8603 184.506 82.8531 184.287 82.8385C184.163 82.8312 184.076 82.7218 184.083 82.5979C184.09 82.474 184.185 82.3792 184.323 82.3938C186.138 82.5323 187.961 82.0585 189.477 81.0598C189.579 80.9942 189.717 81.0161 189.783 81.1254C189.848 81.2275 189.819 81.366 189.717 81.4316C188.303 82.3646 186.634 82.8603 184.943 82.8603Z" fill="#B5795E"/>
<path d="M181.102 68.2737C181.102 69.0901 180.737 69.7535 180.293 69.7535C179.841 69.7535 179.484 69.0901 179.484 68.2737C179.484 67.4572 179.848 66.7939 180.293 66.7939C180.737 66.8012 181.102 67.4572 181.102 68.2737Z" fill="#1B1B28"/>
<path d="M180.329 67.6978C180.329 67.9676 180.205 68.1935 180.059 68.1935C179.906 68.1935 179.79 67.9749 179.79 67.6978C179.79 67.4281 179.914 67.2021 180.059 67.2021C180.213 67.2021 180.329 67.4208 180.329 67.6978Z" fill="white"/>
<path d="M188.996 68.2737C188.996 69.0901 188.631 69.7535 188.187 69.7535C187.735 69.7535 187.378 69.0901 187.378 68.2737C187.378 67.4572 187.742 66.7939 188.187 66.7939C188.631 66.8012 188.996 67.4572 188.996 68.2737Z" fill="#1B1B28"/>
<path d="M188.23 67.6978C188.23 67.9676 188.106 68.1935 187.961 68.1935C187.808 68.1935 187.691 67.9749 187.691 67.6978C187.691 67.4281 187.815 67.2021 187.961 67.2021C188.106 67.2021 188.23 67.4208 188.23 67.6978Z" fill="white"/>
<path d="M184.156 72.2174C184.076 72.2174 184.003 72.1737 183.966 72.108C183.908 71.9987 183.945 71.8675 184.047 71.8092C184.265 71.6852 184.404 71.5759 184.491 71.4447C184.586 71.3062 184.622 71.1312 184.571 71.0073C184.528 70.898 184.389 70.8178 184.302 70.8469C184.185 70.8834 184.061 70.8251 184.025 70.7084C183.988 70.5918 184.047 70.4679 184.163 70.4314C184.484 70.3294 184.856 70.5189 184.987 70.8469C185.089 71.1094 185.038 71.4374 184.856 71.6998C184.688 71.9404 184.455 72.0935 184.265 72.1955C184.229 72.2101 184.192 72.2174 184.156 72.2174Z" fill="#B5795E"/>
<path d="M187.414 74.2294C187.414 74.623 186.969 75.2135 186.27 75.68C185.723 76.0372 185.009 76.307 184.229 76.307C183.303 76.307 182.472 75.9206 181.896 75.4614C181.372 75.0458 181.051 74.5647 181.051 74.2294C181.051 73.9961 181.211 73.8722 181.481 73.8066C182.028 73.6681 183.055 73.7774 184.222 73.7774C185.49 73.7774 186.583 73.6535 187.086 73.843C187.297 73.9087 187.414 74.0326 187.414 74.2294Z" fill="#663837"/>
<path d="M187.101 73.8357C187.057 73.8721 187.006 73.9086 186.962 73.9377C185.366 74.8927 183.289 74.8927 181.692 73.9523C181.62 73.9086 181.554 73.8648 181.496 73.8065C182.042 73.668 183.07 73.7774 184.236 73.7774C185.497 73.7774 186.591 73.6534 187.101 73.8357Z" fill="white"/>
<path d="M186.27 75.68C185.723 76.0372 185.009 76.3069 184.229 76.3069C183.303 76.3069 182.472 75.9205 181.896 75.4613C183.34 75.0604 184.878 75.1624 186.27 75.68Z" fill="#A75A5A"/>
<path d="M181.24 71.1823C181.16 71.0584 181.036 70.9344 180.891 70.9126C180.322 70.8178 179.761 70.8251 179.192 70.9636C178.893 71.0365 178.689 71.3937 178.784 71.6853C178.886 71.9988 179.185 72.1737 179.506 72.0935C179.593 72.0716 179.688 72.0571 179.783 72.0425C180.045 72.0133 180.307 72.0133 180.57 72.0425H180.577C180.737 72.0716 180.883 72.0644 181.029 71.9842C181.153 71.9113 181.27 71.7728 181.299 71.6343C181.335 71.4885 181.328 71.3208 181.24 71.1823Z" fill="#E59090"/>
<path d="M187.232 71.1823C187.312 71.0584 187.436 70.9344 187.582 70.9126C188.15 70.8178 188.712 70.8251 189.28 70.9636C189.579 71.0365 189.79 71.3937 189.688 71.6853C189.586 71.9988 189.287 72.1737 188.967 72.0935C188.879 72.0716 188.784 72.0571 188.69 72.0425C188.427 72.0133 188.165 72.0133 187.902 72.0425H187.895C187.735 72.0716 187.589 72.0644 187.443 71.9842C187.319 71.9113 187.203 71.7728 187.174 71.6343C187.137 71.4885 187.144 71.3208 187.232 71.1823Z" fill="#E59090"/>
<path d="M181.109 65.7368C180.993 65.6421 180.803 65.5327 180.621 65.4744C180.439 65.4088 180.242 65.3651 180.045 65.3651C179.848 65.3651 179.644 65.3797 179.447 65.438C179.251 65.489 179.061 65.5765 178.872 65.6712L178.857 65.6785C178.748 65.7368 178.616 65.6858 178.558 65.5838C178.507 65.4817 178.544 65.3578 178.638 65.2922C178.842 65.1682 179.061 65.0443 179.294 64.9641C179.528 64.8767 179.775 64.8329 180.03 64.8111C180.286 64.7965 180.541 64.8256 180.789 64.8912C181.044 64.9641 181.262 65.0443 181.517 65.2193C181.67 65.3213 181.707 65.5327 181.605 65.6858C181.503 65.8389 181.291 65.8754 181.138 65.7733C181.131 65.766 181.124 65.7587 181.117 65.7587L181.109 65.7368Z" fill="#1B1B28"/>
<path d="M186.853 65.2193C187.101 65.0443 187.327 64.9641 187.582 64.8912C187.83 64.8256 188.092 64.7965 188.34 64.8111C188.595 64.8329 188.843 64.8694 189.076 64.9641C189.309 65.0443 189.528 65.161 189.732 65.2922C189.834 65.3578 189.87 65.4963 189.805 65.5983C189.747 65.7004 189.623 65.7296 189.521 65.6785L189.506 65.6712C189.316 65.5765 189.127 65.489 188.93 65.438C188.733 65.3797 188.529 65.3651 188.332 65.3651C188.136 65.3651 187.939 65.4088 187.757 65.4744C187.582 65.5327 187.385 65.6421 187.268 65.7368L187.254 65.7514C187.115 65.8681 186.904 65.8535 186.787 65.7077C186.671 65.5692 186.685 65.3578 186.831 65.2411C186.838 65.2339 186.846 65.2266 186.853 65.2193Z" fill="#1B1B28"/>
<path d="M173.937 71.3062C173.937 71.3062 176.175 68.0914 175.701 62.7991C175.701 62.7991 176.313 64.4611 178.616 64.5632C178.616 64.5632 177.836 63.6811 178.004 62.4273C178.004 62.4273 183.697 65.4744 192.473 63.0032C192.473 63.0032 192.137 68.1643 195.016 71.1093L196.54 69.6587V60.532C196.54 60.532 192.4 58.2649 184.236 58.2649C176.073 58.2649 171.634 60.4372 171.634 60.4372C171.634 60.4372 171.823 68.937 172.086 69.7608C172.348 70.5772 173.937 71.3062 173.937 71.3062Z" fill="#1B1B28"/>
<path d="M174.87 74.7542C173.886 75.9133 171.641 75.629 169.855 74.12C168.069 72.6111 167.421 70.446 168.405 69.2797C169.389 68.1206 171.634 68.4049 173.419 69.9139C175.198 71.4301 175.847 73.5952 174.87 74.7542Z" fill="#E7AC8D"/>
<path d="M172.749 74.3898C172.712 74.3898 172.676 74.3898 172.64 74.3825C172.516 74.3679 172.435 74.2513 172.45 74.1346C172.465 74.0107 172.574 73.9305 172.698 73.9451C172.865 73.967 173.062 73.8722 173.186 73.7045C173.303 73.5514 173.376 73.3401 173.405 73.063C173.492 72.2685 173.193 71.4229 172.625 70.8616C172.056 70.3002 171.211 70.0087 170.416 70.1034C170.3 70.1107 170.183 70.0305 170.169 69.9066C170.154 69.7827 170.241 69.6733 170.365 69.6588C171.306 69.5421 172.268 69.8774 172.938 70.5481C173.609 71.2115 173.951 72.1737 173.849 73.1141C173.813 73.4786 173.711 73.7556 173.543 73.9743C173.347 74.2367 173.04 74.3898 172.749 74.3898Z" fill="#B5795E"/>
<path d="M171.087 73.0047C171.058 73.0047 171.021 72.9974 170.992 72.9828C170.883 72.9318 170.832 72.8006 170.883 72.6912C171.298 71.7946 172.158 71.1385 173.128 70.9709C173.252 70.949 173.361 71.0292 173.383 71.1531C173.405 71.277 173.325 71.3864 173.201 71.4083C172.37 71.5541 171.634 72.1154 171.284 72.8808C171.247 72.9537 171.167 73.0047 171.087 73.0047Z" fill="#B5795E"/>
<path d="M198.612 74.1223C200.397 72.6113 201.047 70.4447 200.064 69.283C199.081 68.1214 196.837 68.4047 195.052 69.9158C193.267 71.4268 192.616 73.5935 193.599 74.7551C194.582 75.9167 196.826 75.6334 198.612 74.1223Z" fill="#E7AC8D"/>
<path d="M195.723 74.3897C195.432 74.3897 195.126 74.2366 194.929 73.9742C194.761 73.7555 194.659 73.4712 194.623 73.114C194.521 72.1736 194.863 71.2114 195.534 70.548C196.204 69.8847 197.166 69.5493 198.107 69.6587C198.231 69.6733 198.318 69.7826 198.303 69.9065C198.289 70.0305 198.18 70.1107 198.056 70.1034C197.261 70.0086 196.416 70.3002 195.847 70.8615C195.279 71.4228 194.98 72.2684 195.067 73.063C195.096 73.34 195.169 73.5514 195.286 73.7045C195.41 73.8721 195.607 73.9669 195.774 73.945C195.905 73.9305 196.007 74.0106 196.022 74.1346C196.037 74.2585 195.956 74.3678 195.833 74.3824C195.796 74.3897 195.76 74.3897 195.723 74.3897Z" fill="#B5795E"/>
<path d="M197.385 73.0047C197.305 73.0047 197.225 72.9536 197.181 72.8734C196.831 72.108 196.095 71.5467 195.264 71.4009C195.14 71.3791 195.06 71.2624 195.082 71.1458C195.104 71.0219 195.213 70.9417 195.337 70.9636C196.306 71.1312 197.174 71.7873 197.582 72.6839C197.633 72.7933 197.582 72.9245 197.473 72.9755C197.451 72.9974 197.414 73.0047 197.385 73.0047Z" fill="#B5795E"/>
<path d="M204.703 153.221H163.762C163.762 153.221 165.139 96.9951 168.091 94.451C170.052 92.7598 174.848 91.0905 177.851 90.1574C179.367 89.6909 180.431 89.4066 180.431 89.4066C181.627 92.388 184.229 92.1256 184.229 92.1256C184.229 92.1256 186.838 92.388 188.034 89.4066C188.034 89.4066 189.047 89.6763 190.505 90.1282C193.493 91.054 198.384 92.7379 200.366 94.451C203.333 96.9951 204.703 153.221 204.703 153.221Z" fill="#FF846E"/>
<path d="M190.512 90.1282C189.922 91.9288 188.289 95.2019 184.236 95.2019C179.688 95.2019 178.245 91.5279 177.859 90.1574C179.375 89.6909 180.439 89.4066 180.439 89.4066C181.634 92.388 184.236 92.1256 184.236 92.1256C184.236 92.1256 186.846 92.388 188.041 89.4066C188.041 89.4066 189.047 89.6763 190.512 90.1282Z" fill="#FFD26E"/>
<path d="M199.178 110.204L201.722 114.082L210.221 108.44C210.221 108.44 204.55 98.5406 200.454 94.5312L199.178 110.204Z" fill="#FF846E"/>
<path d="M169.287 110.204L166.743 114.082L158.244 108.44C158.244 108.44 163.915 98.5406 168.011 94.5312L169.287 110.204Z" fill="#FF846E"/>
<path d="M166.102 112.063C166.094 112.063 166.087 112.063 166.08 112.063C165.956 112.056 165.868 111.946 165.876 111.822C166.007 110.313 166.313 108.812 166.787 107.368C166.823 107.252 166.947 107.186 167.064 107.23C167.18 107.266 167.246 107.39 167.202 107.507C166.736 108.914 166.437 110.379 166.313 111.859C166.313 111.975 166.211 112.063 166.102 112.063Z" fill="#E06858"/>
<path d="M201.358 112.267C201.278 112.267 201.197 112.223 201.161 112.143C200.432 110.678 199.623 109.227 198.77 107.828C198.705 107.726 198.741 107.587 198.843 107.521C198.945 107.456 199.084 107.492 199.149 107.594C200.009 109.001 200.826 110.466 201.562 111.946C201.613 112.056 201.569 112.187 201.46 112.245C201.431 112.26 201.394 112.267 201.358 112.267Z" fill="#E06858"/>
<path d="M182.982 100.888L187.647 116.801C187.742 117.115 187.56 117.443 187.246 117.537C186.94 117.625 186.627 117.457 186.525 117.166L181.058 101.507C180.876 100.983 181.153 100.399 181.678 100.217C182.203 100.035 182.786 100.312 182.968 100.837C182.975 100.851 182.982 100.873 182.982 100.888Z" fill="#2B4172"/>
<path d="M185.708 112.719C185.708 112.719 183.689 118.587 179.892 116.838C177.968 115.948 177.917 113.36 178.106 111.56C178.215 110.466 178.449 109.388 178.755 108.338C179.003 107.478 179.17 106.217 179.987 105.677C180.606 105.269 181.568 105.109 182.268 104.926C182.88 104.773 186.168 103.782 186.445 104.824C186.751 105.976 184.892 106.056 184.892 106.056C184.892 106.056 186.197 106.158 186.437 107.04C186.678 107.93 187.56 111.822 187.378 112.369C187.188 112.916 185.708 112.719 185.708 112.719Z" fill="#E7AC8D"/>
<path d="M165.992 113.586L161.59 122.815L179.907 111.451L182.844 116.699C182.844 116.699 160.62 135.273 154.92 131.359C149.293 127.495 159.206 109.089 159.206 109.089L165.992 113.586Z" fill="#E7AC8D"/>
<path d="M183.143 133.925C175.176 133.225 169.279 126.19 169.979 118.223L170.307 114.461C180.264 114.352 189.907 115.125 199.171 117.005L198.843 120.767C198.143 128.734 191.117 134.625 183.143 133.925Z" fill="#FFF0DD"/>
<path d="M202.473 113.586L206.533 123.398L186.78 119.877L185.49 125.993C185.49 125.993 207.648 134.515 213.341 130.601C218.968 126.737 209.244 109.074 209.244 109.074L202.473 113.586Z" fill="#E7AC8D"/>
<path d="M183.704 118.981C183.704 118.981 172.931 115.693 172.538 116.779C172.144 117.866 177.735 119.513 177.735 119.513C177.735 119.513 171.306 120.315 171.342 121.095C171.379 121.875 177.013 121.86 177.013 121.86C177.013 121.86 172.691 124.594 172.807 125.308C172.924 126.023 177.166 123.952 177.166 123.952C177.166 123.952 174.433 127.393 174.826 128.078C175.22 128.764 178.471 125.148 178.471 125.148C178.471 125.148 182.64 128.8 186.62 126.139C190.599 123.479 185.956 117.457 186.117 116.415C186.277 115.372 186.299 114.541 185.424 114.447C184.535 114.366 182.859 115.001 183.704 118.981Z" fill="#E7AC8D"/>
<path d="M229.587 52.8414C216.446 52.8414 205.789 60.2477 205.789 69.389C205.789 73.5951 208.049 77.4295 211.759 80.3454C210.549 81.7232 208.34 83.7132 205.359 84.1871C205.359 84.1871 211.103 85.5502 215.469 82.7073C219.419 84.7338 224.303 85.9366 229.587 85.9366C242.729 85.9366 253.386 78.5303 253.386 69.389C253.386 60.2477 242.729 52.8414 229.587 52.8414Z" fill="white"/>
<path d="M222.714 69.039L225.243 76.9411C225.243 76.9411 229.77 78.4209 234.303 76.9411L235.732 68.4048L222.714 69.039Z" fill="#FFD26E"/>
<path d="M221.898 68.8787C221.468 68.4194 221.278 67.756 221.387 67.1364C221.497 66.5168 221.912 65.9628 222.473 65.6858C222.175 65.139 222.299 64.483 222.576 63.929C222.86 63.3749 223.421 62.9667 224.041 62.8865C223.822 61.5744 224.697 60.2039 225.907 59.6499C227.116 59.0959 228.676 59.4531 229.529 60.4736C230.338 60.1456 231.154 59.9196 232.029 59.9561C232.904 59.9925 233.829 60.5028 234.048 61.3484C234.741 61.3703 235.448 61.7056 235.878 62.245C236.3 62.7918 236.475 63.528 236.322 64.1987C237.292 64.8839 237.663 66.3783 237.175 67.4645C236.913 68.0476 236.796 68.7839 236.249 69.1046C235.695 69.4254 234.967 69.4108 234.434 69.0609C234.077 69.4837 233.458 69.6514 232.911 69.6659C232.357 69.6805 231.803 69.4545 231.424 69.0536C231.096 69.9211 230.149 70.4605 229.23 70.5844C228.312 70.7084 227.335 70.3001 226.781 69.5493C225.768 70.4678 223.939 70.3876 222.933 69.4691C222.517 69.7972 222.255 69.2577 221.898 68.8787Z" fill="#FA5C82"/>
<path d="M122.434 73.9377H113.87C113.542 73.9377 113.279 73.6753 113.279 73.3473V64.7819C113.279 64.4538 113.542 64.1914 113.87 64.1914H122.434C122.762 64.1914 123.025 64.4538 123.025 64.7819V73.3473C123.032 73.6753 122.762 73.9377 122.434 73.9377ZM114.467 72.7568H121.844V65.3723H114.467V72.7568Z" fill="#2B4172"/>
<path d="M153.273 65.3723H126.531C126.203 65.3723 125.94 65.1099 125.94 64.7819C125.94 64.4538 126.203 64.1914 126.531 64.1914H153.273C153.601 64.1914 153.864 64.4538 153.864 64.7819C153.864 65.1099 153.601 65.3723 153.273 65.3723Z" fill="#2B4172"/>
<path d="M144.505 69.6587H126.523C126.195 69.6587 125.933 69.3962 125.933 69.0682C125.933 68.7401 126.195 68.4777 126.523 68.4777H144.505C144.833 68.4777 145.095 68.7401 145.095 69.0682C145.095 69.3889 144.833 69.6587 144.505 69.6587Z" fill="#2B4172"/>
<path d="M122.434 88.4661H113.87C113.542 88.4661 113.279 88.2037 113.279 87.8756V79.3175C113.279 78.9895 113.542 78.7271 113.87 78.7271H122.434C122.762 78.7271 123.025 78.9895 123.025 79.3175V87.8829C123.032 88.2037 122.762 88.4661 122.434 88.4661ZM114.467 87.2852H121.844V79.908H114.467V87.2852Z" fill="#2B4172"/>
<path d="M153.273 79.908H126.531C126.203 79.908 125.94 79.6455 125.94 79.3175C125.94 78.9895 126.203 78.7271 126.531 78.7271H153.273C153.601 78.7271 153.864 78.9895 153.864 79.3175C153.864 79.6383 153.601 79.908 153.273 79.908Z" fill="#2B4172"/>
<path d="M144.505 84.187H126.523C126.195 84.187 125.933 83.9246 125.933 83.5966C125.933 83.2685 126.195 83.0061 126.523 83.0061H144.505C144.833 83.0061 145.095 83.2685 145.095 83.5966C145.095 83.9246 144.833 84.187 144.505 84.187Z" fill="#2B4172"/>
<path d="M122.434 59.4094H113.87C113.542 59.4094 113.279 59.1469 113.279 58.8189V50.2535C113.279 49.9255 113.542 49.663 113.87 49.663H122.434C122.762 49.663 123.025 49.9255 123.025 50.2535V58.8189C123.032 59.1396 122.762 59.4094 122.434 59.4094ZM114.467 58.2211H121.844V50.844H114.467V58.2211Z" fill="#2B4172"/>
<path d="M153.273 50.844H126.531C126.203 50.844 125.94 50.5815 125.94 50.2535C125.94 49.9255 126.203 49.663 126.531 49.663H153.273C153.601 49.663 153.864 49.9255 153.864 50.2535C153.864 50.5815 153.601 50.844 153.273 50.844Z" fill="#2B4172"/>
<path d="M144.505 55.123H126.523C126.195 55.123 125.933 54.8606 125.933 54.5325C125.933 54.2045 126.195 53.9421 126.523 53.9421H144.505C144.833 53.9421 145.095 54.2045 145.095 54.5325C145.095 54.8606 144.833 55.123 144.505 55.123Z" fill="#2B4172"/>
<path d="M125.554 46.8857C125.379 46.6888 125.08 46.667 124.883 46.8346L117.572 53.1548L113.709 50.0931C113.512 49.94 113.228 49.9328 113.024 50.0931C112.784 50.2827 112.747 50.6326 112.937 50.8658L116.734 55.6552C116.778 55.7062 116.829 55.7645 116.88 55.8083C117.354 56.2165 118.061 56.1654 118.469 55.6916L118.498 55.6552L125.554 47.498C125.707 47.3303 125.714 47.0606 125.554 46.8857Z" fill="#FA5C82"/>
<path d="M251.855 146.543H124.089V147.986H251.855V146.543Z" fill="#FA5C82"/>
<path d="M251.848 146.543H186.182V147.986H251.848V146.543Z" fill="white"/>
<path d="M120.08 147.265L118.177 148.358L116.282 149.459V147.265V145.071L118.177 146.171L120.08 147.265Z" fill="#FA5C82"/>
<path d="M113.068 145.071H112.004V149.452H113.068V145.071Z" fill="#FA5C82"/>
<path d="M110.961 145.071H109.897V149.452H110.961V145.071Z" fill="#FA5C82"/>
</svg>
