<svg width="64" height="84" viewBox="0 0 64 84" fill="none" xmlns="http://www.w3.org/2000/svg">
<path d="M11.125 68C15.6123 68 19.25 64.3623 19.25 59.875C19.25 55.3877 15.6123 51.75 11.125 51.75C6.63769 51.75 3 55.3877 3 59.875C3 64.3623 6.63769 68 11.125 68Z" stroke="#F7931E" stroke-width="2.5" stroke-linecap="round" stroke-linejoin="round"/>
<path d="M32.25 32.25C36.7373 32.25 40.375 28.6123 40.375 24.125C40.375 19.6377 36.7373 16 32.25 16C27.7627 16 24.125 19.6377 24.125 24.125C24.125 28.6123 27.7627 32.25 32.25 32.25Z" stroke="#F7931E" stroke-width="2.5" stroke-linecap="round" stroke-linejoin="round"/>
<path d="M53.375 68C57.8623 68 61.5 64.3623 61.5 59.875C61.5 55.3877 57.8623 51.75 53.375 51.75C48.8877 51.75 45.25 55.3877 45.25 59.875C45.25 64.3623 48.8877 68 53.375 68Z" stroke="#F7931E" stroke-width="2.5" stroke-linecap="round" stroke-linejoin="round"/>
<path d="M15.252 52.8878L24.4495 37.3203" stroke="#F7931E" stroke-width="2.5" stroke-linecap="round" stroke-linejoin="round"/>
<path d="M45.2495 46.1273L36.377 31.1123" stroke="#F7931E" stroke-width="2.5" stroke-linecap="round" stroke-linejoin="round"/>
<path d="M26.042 59.875H45.2495" stroke="#F7931E" stroke-width="2.5" stroke-linecap="round" stroke-linejoin="round"/>
</svg>
