<svg xmlns="http://www.w3.org/2000/svg" width="70" height="70" fill="none"><rect id="backgroundrect" width="100%" height="100%" x="0" y="0" fill="none" stroke="none"/><g class="currentLayer"><title>Layer 1</title><path id="svg_1" fill="#f7931e" fill-opacity="1" stroke="none" d="M24.2719 58.7097C22.4012 58.7097 20.8848 60.2261 20.8848 62.0968C20.8848 63.9674 22.4012 65.4839 24.2719 65.4839C26.1425 65.4839 27.659 63.9674 27.659 62.0968C27.659 60.2261 26.1425 58.7097 24.2719 58.7097ZM24.2719 63.2258C23.6484 63.2258 23.1428 62.7203 23.1428 62.0968C23.1428 61.4733 23.6484 60.9677 24.2719 60.9677C24.8954 60.9677 25.4009 61.4733 25.4009 62.0968C25.4009 62.7203 24.8954 63.2258 24.2719 63.2258Z"/><path id="svg_2" fill="#f7931e" fill-opacity="1" stroke="none" d="M29.9164 4.51613H18.6261C18.0026 4.51613 17.4971 5.02165 17.4971 5.64516C17.4971 6.26867 18.0026 6.77419 18.6261 6.77419H29.9164C30.5399 6.77419 31.0455 6.26867 31.0455 5.64516C31.0455 5.02165 30.5399 4.51613 29.9164 4.51613Z"/><path id="svg_3" fill="#f7931e" fill-opacity="1" stroke="none" d="M38.949 0H9.59413C7.72346 0 6.20703 1.51643 6.20703 3.3871V66.6129C6.20703 68.4836 7.72346 70 9.59413 70H38.949C40.8196 70 42.3361 68.4836 42.3361 66.6129V3.3871C42.3361 1.51643 40.8196 0 38.949 0ZM40.078 66.6129C40.078 67.2364 39.5725 67.7419 38.949 67.7419H9.59413C8.97062 67.7419 8.4651 67.2364 8.4651 66.6129V3.3871C8.4651 2.76359 8.97062 2.25806 9.59413 2.25806H38.949C39.5725 2.25806 40.078 2.76359 40.078 3.3871V66.6129Z"/><path id="svg_4" fill="#f7931e" fill-opacity="1" stroke="none" d="M58.1426 33.871C58.1171 26.9412 54.154 20.6288 47.9237 17.5948C47.3719 17.3044 46.6892 17.5162 46.3986 18.0679C46.1081 18.6196 46.32 19.3024 46.8717 19.5929C46.8948 19.6051 46.9184 19.6165 46.9424 19.6271C54.8084 23.423 58.1078 32.877 54.3119 40.743C52.5177 44.4609 49.3409 47.3297 45.46 48.7369C44.8739 48.9496 44.5712 49.5973 44.7838 50.1834C44.9457 50.6295 45.3692 50.9267 45.8439 50.9273C45.9751 50.9273 46.1054 50.9048 46.2289 50.8606C53.3707 48.257 58.1282 41.4725 58.1426 33.871Z"/><path id="svg_5" fill="#f7931e" fill-opacity="1" stroke="none" d="M61.3014 23.3039C59.2676 19.2188 56.0984 15.8073 52.1741 13.4784C51.6485 13.1428 50.9505 13.2969 50.6149 13.8225C50.2793 14.348 50.4334 15.046 50.9589 15.3817C50.979 15.3945 50.9994 15.4066 51.0202 15.4181C61.2128 21.4659 64.5727 34.6314 58.5249 44.8239C56.4181 48.3745 53.3317 51.2421 49.636 53.0826C49.0797 53.3641 48.857 54.0435 49.1385 54.5999C49.4172 55.1504 50.0862 55.3752 50.6408 55.1047C62.3663 49.267 67.1391 35.0292 61.3014 23.3039Z"/></g></svg>