<svg xmlns="http://www.w3.org/2000/svg" width="60" height="70" fill="none" style=""><rect id="backgroundrect" width="100%" height="100%" x="0" y="0" fill="none" stroke="none"/>

















<g class="currentLayer" style=""><title>Layer 1</title><path d="M30.1725 43.0926C34.5469 43.0926 38.093 39.5465 38.093 35.1721C38.093 30.7977 34.5469 27.2516 30.1725 27.2516C25.7981 27.2516 22.252 30.7977 22.252 35.1721C22.252 39.5465 25.7981 43.0926 30.1725 43.0926Z" stroke="#f7931e" stroke-width="2.5" stroke-miterlimit="10" stroke-linecap="round" stroke-linejoin="round" id="svg_1" class="" stroke-opacity="1"/><path d="M30.1726 15.1987C31.8843 15.1987 33.2719 13.8111 33.2719 12.0993C33.2719 10.3876 31.8843 9 30.1726 9C28.4609 9 27.0732 10.3876 27.0732 12.0993C27.0732 13.8111 28.4609 15.1987 30.1726 15.1987Z" stroke="#f7931e" stroke-width="2.5" stroke-miterlimit="10" stroke-linecap="round" stroke-linejoin="round" id="svg_2" class="" stroke-opacity="1"/><path d="M13.6423 21.7417C15.354 21.7417 16.7416 20.3541 16.7416 18.6424C16.7416 16.9307 15.354 15.543 13.6423 15.543C11.9306 15.543 10.543 16.9307 10.543 18.6424C10.543 20.3541 11.9306 21.7417 13.6423 21.7417Z" stroke="#f7931e" stroke-width="2.5" stroke-miterlimit="10" stroke-linecap="round" stroke-linejoin="round" id="svg_3" class="" stroke-opacity="1"/><path d="M7.09934 38.2716C8.81105 38.2716 10.1987 36.8839 10.1987 35.1722C10.1987 33.4605 8.81105 32.0729 7.09934 32.0729C5.38762 32.0729 4 33.4605 4 35.1722C4 36.8839 5.38762 38.2716 7.09934 38.2716Z" stroke="#f7931e" stroke-width="2.5" stroke-miterlimit="10" stroke-linecap="round" stroke-linejoin="round" id="svg_4" class="" stroke-opacity="1"/><path d="M13.6423 54.4569C15.354 54.4569 16.7416 53.0693 16.7416 51.3576C16.7416 49.6459 15.354 48.2582 13.6423 48.2582C11.9306 48.2582 10.543 49.6459 10.543 51.3576C10.543 53.0693 11.9306 54.4569 13.6423 54.4569Z" stroke="#f7931e" stroke-width="2.5" stroke-miterlimit="10" stroke-linecap="round" stroke-linejoin="round" id="svg_5" class="" stroke-opacity="1"/><path d="M30.1726 60.9999C31.8843 60.9999 33.2719 59.6123 33.2719 57.9006C33.2719 56.1889 31.8843 54.8013 30.1726 54.8013C28.4609 54.8013 27.0732 56.1889 27.0732 57.9006C27.0732 59.6123 28.4609 60.9999 30.1726 60.9999Z" stroke="#f7931e" stroke-width="2.5" stroke-miterlimit="10" stroke-linecap="round" stroke-linejoin="round" id="svg_6" class="" stroke-opacity="1"/><path d="M46.3572 54.4569C48.0689 54.4569 49.4565 53.0693 49.4565 51.3576C49.4565 49.6459 48.0689 48.2582 46.3572 48.2582C44.6454 48.2582 43.2578 49.6459 43.2578 51.3576C43.2578 53.0693 44.6454 54.4569 46.3572 54.4569Z" stroke="#f7931e" stroke-width="2.5" stroke-miterlimit="10" stroke-linecap="round" stroke-linejoin="round" id="svg_7" class="" stroke-opacity="1"/><path d="M52.9011 38.2716C54.6128 38.2716 56.0004 36.8839 56.0004 35.1722C56.0004 33.4605 54.6128 32.0729 52.9011 32.0729C51.1894 32.0729 49.8018 33.4605 49.8018 35.1722C49.8018 36.8839 51.1894 38.2716 52.9011 38.2716Z" stroke="#f7931e" stroke-width="2.5" stroke-miterlimit="10" stroke-linecap="round" stroke-linejoin="round" id="svg_8" class="" stroke-opacity="1"/><path d="M46.3572 21.7417C48.0689 21.7417 49.4565 20.3541 49.4565 18.6424C49.4565 16.9307 48.0689 15.543 46.3572 15.543C44.6454 15.543 43.2578 16.9307 43.2578 18.6424C43.2578 20.3541 44.6454 21.7417 46.3572 21.7417Z" stroke="#f7931e" stroke-width="2.5" stroke-miterlimit="10" stroke-linecap="round" stroke-linejoin="round" id="svg_9" class="" stroke-opacity="1"/><path d="M30.1719 15.1986V26.9072" stroke="#f7931e" stroke-width="2.5" stroke-miterlimit="10" stroke-linecap="round" stroke-linejoin="round" id="svg_10" class="" stroke-opacity="1"/><path d="M16.0527 21.053L24.3176 29.3179" stroke="#f7931e" stroke-width="2.5" stroke-miterlimit="10" stroke-linecap="round" stroke-linejoin="round" id="svg_11" class="" stroke-opacity="1"/><path d="M10.1982 35.1722H21.9068" stroke="#f7931e" stroke-width="2.5" stroke-miterlimit="10" stroke-linecap="round" stroke-linejoin="round" id="svg_12" class="" stroke-opacity="1"/><path d="M16.0527 48.947L24.3176 40.6821" stroke="#f7931e" stroke-width="2.5" stroke-miterlimit="10" stroke-linecap="round" stroke-linejoin="round" id="svg_13" class="" stroke-opacity="1"/><path d="M30.1719 54.8013V43.0927" stroke="#f7931e" stroke-width="2.5" stroke-miterlimit="10" stroke-linecap="round" stroke-linejoin="round" id="svg_14" class="" stroke-opacity="1"/><path d="M43.9465 48.947L35.6816 40.6821" stroke="#f7931e" stroke-width="2.5" stroke-miterlimit="10" stroke-linecap="round" stroke-linejoin="round" id="svg_15" class="" stroke-opacity="1"/><path d="M49.8014 35.1722H38.0928" stroke="#f7931e" stroke-width="2.5" stroke-miterlimit="10" stroke-linecap="round" stroke-linejoin="round" id="svg_16" class="" stroke-opacity="1"/><path d="M43.9465 21.053L35.6816 29.3179" stroke="#f7931e" stroke-width="2.5" stroke-miterlimit="10" stroke-linecap="round" stroke-linejoin="round" id="svg_17" class="" stroke-opacity="1"/></g></svg>